M48
; DRILL file KiCad 10.0.4 date 2026-06-29T11:23:35
; FORMAT={-:-/ absolute / metric / decimal}
; #@! TF.CreationDate,2026-06-29T11:23:35+02:00
; #@! TF.GenerationSoftware,Kicad,Pcbnew,10.0.4
; #@! TF.FileFunction,MixedPlating,1,2
FMAT,2
METRIC
; #@! TA.AperFunction,Plated,PTH,ViaDrill
T1C0.700
; #@! TA.AperFunction,Plated,PTH,ComponentDrill
T2C0.800
; #@! TA.AperFunction,Plated,PTH,ComponentDrill
T3C1.000
; #@! TA.AperFunction,Plated,PTH,ComponentDrill
T4C1.110
; #@! TA.AperFunction,Plated,PTH,ComponentDrill
T5C1.300
%
G90
G05
T1
X112.0Y-98.5
X115.5Y-54.5
X121.75Y-113.75
X122.0Y-98.5
X129.0Y-55.5
X129.5Y-68.135
X134.5Y-67.0
X134.906Y-53.96
X135.827Y-66.218
X137.0Y-53.029
X138.0Y-130.0
X138.448Y-68.988
X138.5Y-98.5
X138.5Y-104.5
X139.5Y-51.5
X140.0Y-48.0
X140.113Y-66.358
X141.866Y-61.0
X143.75Y-104.75
X147.0Y-72.5
X147.0Y-101.5
X153.5Y-72.5
X155.0Y-55.0
X155.0Y-77.5
X156.0Y-84.0
X156.5Y-57.5
X156.5Y-57.5
X157.0Y-75.5
X159.5Y-84.0
X159.943Y-79.289
X161.0Y-59.5
X161.5Y-51.0
X162.5Y-68.0
X162.5Y-79.5
X162.538Y-65.538
X163.5Y-46.5
X166.0Y-91.5
X167.0Y-89.5
X167.5Y-54.0
X167.838Y-62.0
X168.0Y-84.0
X168.0Y-93.5
X169.0Y-52.0
X170.0Y-56.0
X171.349Y-92.5
X171.5Y-54.5
X171.5Y-94.5
X173.5Y-55.5
X173.762Y-93.5
X180.0Y-46.0
X181.5Y-50.0
X181.9Y-48.0
X182.0Y-52.201
X182.796Y-69.06
X183.694Y-60.694
X184.0Y-101.0
X189.417Y-57.0
X198.5Y-83.0
X202.0Y-77.5
X204.0Y-77.5
X205.5Y-128.5
X217.0Y-104.0
X219.0Y-105.0
T2
X103.52Y-129.38
X103.65Y-79.89
X106.06Y-129.38
X106.19Y-79.89
X108.6Y-129.38
X108.73Y-79.89
X109.01Y-102.75
X110.86Y-106.52
X111.14Y-129.38
X111.27Y-79.89
X111.55Y-102.75
X113.4Y-106.52
X113.68Y-129.38
X113.81Y-79.89
X114.09Y-102.75
X115.94Y-106.52
X116.22Y-129.38
X116.35Y-79.89
X116.63Y-102.75
X118.48Y-106.52
X118.76Y-129.38
X118.89Y-79.89
X119.17Y-102.75
X121.02Y-106.52
X121.3Y-129.38
X121.43Y-79.89
X121.71Y-102.75
X123.56Y-106.52
X123.84Y-129.38
X123.97Y-79.89
X124.25Y-102.75
X126.1Y-106.52
X126.38Y-129.38
X126.51Y-79.89
X128.92Y-129.38
X129.05Y-79.89
X131.46Y-129.38
X131.59Y-79.89
X144.5Y-89.5
X145.0Y-62.5
X149.5Y-89.5
X150.0Y-62.5
X169.0Y-68.5
X169.0Y-101.0
X174.0Y-68.5
X174.0Y-101.0
X192.306Y-44.77
X192.306Y-60.0
X194.846Y-44.77
X194.846Y-60.0
X197.386Y-60.0
X197.42Y-44.77
X208.92Y-44.77
X208.92Y-60.0
X211.46Y-44.77
X211.46Y-60.0
X214.0Y-60.0
X214.034Y-44.77
T3
X210.46Y-76.74
X210.46Y-79.28
X210.46Y-81.82
X210.46Y-84.36
X210.46Y-86.9
X210.46Y-89.44
X210.46Y-91.98
X210.46Y-94.52
X210.46Y-97.06
X210.46Y-99.6
X210.46Y-102.14
X210.46Y-104.68
X210.46Y-107.22
X210.46Y-109.76
X210.46Y-112.3
X210.46Y-114.84
X210.46Y-117.38
X210.46Y-119.92
X210.46Y-122.46
X210.46Y-125.0
X213.0Y-76.74
X213.0Y-79.28
X213.0Y-81.82
X213.0Y-84.36
X213.0Y-86.9
X213.0Y-89.44
X213.0Y-91.98
X213.0Y-94.52
X213.0Y-97.06
X213.0Y-99.6
X213.0Y-102.14
X213.0Y-104.68
X213.0Y-107.22
X213.0Y-109.76
X213.0Y-112.3
X213.0Y-114.84
X213.0Y-117.38
X213.0Y-119.92
X213.0Y-122.46
X213.0Y-125.0
T4
X140.94Y-111.5
X140.94Y-126.74
X143.48Y-111.5
X143.48Y-114.04
X143.48Y-126.74
X146.02Y-111.5
X146.02Y-126.74
X147.29Y-123.69
X148.56Y-111.5
X148.56Y-126.74
X149.83Y-123.69
X151.1Y-111.5
X151.1Y-126.74
X152.37Y-123.69
X153.64Y-111.5
X153.64Y-126.74
X154.91Y-123.69
X156.18Y-111.5
X156.18Y-126.74
X157.45Y-123.69
X158.72Y-111.5
X158.72Y-126.74
X161.26Y-111.5
X161.26Y-126.74
X163.8Y-111.5
X163.8Y-126.74
X166.34Y-111.5
X166.34Y-126.74
X168.88Y-111.5
X168.88Y-126.74
X171.42Y-111.5
X171.42Y-126.74
X173.96Y-111.5
X173.96Y-126.74
X176.5Y-111.5
X176.5Y-126.74
X179.04Y-111.5
X179.04Y-126.74
X181.58Y-111.5
X181.58Y-126.74
X184.12Y-111.5
X184.12Y-126.74
X186.66Y-111.5
X186.66Y-114.04
X186.66Y-116.58
X186.66Y-119.12
X186.66Y-121.66
X186.66Y-124.2
X186.66Y-126.74
X189.2Y-111.5
X189.2Y-126.74
X191.74Y-111.5
X191.74Y-126.74
X194.28Y-111.5
X194.28Y-126.74
X196.82Y-111.5
X196.82Y-126.74
X199.36Y-111.5
X199.36Y-126.74
T5
X95.218Y-83.75
X95.218Y-88.75
X95.218Y-109.75
X95.218Y-114.75
X95.218Y-122.75
X95.218Y-127.75
X95.25Y-96.75
X95.25Y-101.75
X95.5Y-52.0
X95.5Y-57.0
X95.5Y-67.0
X95.5Y-72.0
X108.0Y-48.0
X113.0Y-48.0
M30
