%TF.GenerationSoftware,KiCad,Pcbnew,10.0.4*%
%TF.CreationDate,2026-06-29T11:23:32+02:00*%
%TF.ProjectId,puppet_pcb,70757070-6574-45f7-9063-622e6b696361,rev?*%
%TF.SameCoordinates,Original*%
%TF.FileFunction,Copper,L2,Bot*%
%TF.FilePolarity,Positive*%
%FSLAX46Y46*%
G04 Gerber Fmt 4.6, Leading zero omitted, Abs format (unit mm)*
G04 Created by KiCad (PCBNEW 10.0.4) date 2026-06-29 11:23:32*
%MOMM*%
%LPD*%
G01*
G04 APERTURE LIST*
%TA.AperFunction,ComponentPad*%
%ADD10C,1.700000*%
%TD*%
%TA.AperFunction,ComponentPad*%
%ADD11C,1.270000*%
%TD*%
%TA.AperFunction,ComponentPad*%
%ADD12C,2.800000*%
%TD*%
%TA.AperFunction,ComponentPad*%
%ADD13C,1.665000*%
%TD*%
%TA.AperFunction,ViaPad*%
%ADD14C,0.900000*%
%TD*%
%TA.AperFunction,Conductor*%
%ADD15C,0.200000*%
%TD*%
G04 APERTURE END LIST*
D10*
X213000000Y-125000000D03*
X210460000Y-125000000D03*
X213000000Y-122460000D03*
X210460000Y-122460000D03*
X213000000Y-119920000D03*
X210460000Y-119920000D03*
X213000000Y-117380000D03*
X210460000Y-117380000D03*
X213000000Y-114840000D03*
X210460000Y-114840000D03*
X213000000Y-112300000D03*
X210460000Y-112300000D03*
X213000000Y-109760000D03*
X210460000Y-109760000D03*
X213000000Y-107220000D03*
X210460000Y-107220000D03*
X213000000Y-104680000D03*
X210460000Y-104680000D03*
X213000000Y-102140000D03*
X210460000Y-102140000D03*
X213000000Y-99600000D03*
X210460000Y-99600000D03*
X213000000Y-97060000D03*
X210460000Y-97060000D03*
X213000000Y-94520000D03*
X210460000Y-94520000D03*
X213000000Y-91980000D03*
X210460000Y-91980000D03*
X213000000Y-89440000D03*
X210460000Y-89440000D03*
X213000000Y-86900000D03*
X210460000Y-86900000D03*
X213000000Y-84360000D03*
X210460000Y-84360000D03*
X213000000Y-81820000D03*
X210460000Y-81820000D03*
X213000000Y-79280000D03*
X210460000Y-79280000D03*
X213000000Y-76740000D03*
%TA.AperFunction,ComponentPad*%
G36*
G01*
X209610000Y-77340000D02*
X209610000Y-76140000D01*
G75*
G02*
X209860000Y-75890000I250000J0D01*
G01*
X211060000Y-75890000D01*
G75*
G02*
X211310000Y-76140000I0J-250000D01*
G01*
X211310000Y-77340000D01*
G75*
G02*
X211060000Y-77590000I-250000J0D01*
G01*
X209860000Y-77590000D01*
G75*
G02*
X209610000Y-77340000I0J250000D01*
G01*
G37*
%TD.AperFunction*%
D11*
X149500000Y-89500000D03*
X144500000Y-89500000D03*
X126100000Y-106520000D03*
X123560000Y-106520000D03*
X121020000Y-106520000D03*
X118480000Y-106520000D03*
X115940000Y-106520000D03*
X113400000Y-106520000D03*
X110860000Y-106520000D03*
X103520000Y-129380000D03*
X106060000Y-129380000D03*
X108600000Y-129380000D03*
X111140000Y-129380000D03*
X113680000Y-129380000D03*
X116220000Y-129380000D03*
X118760000Y-129380000D03*
X121300000Y-129380000D03*
X123840000Y-129380000D03*
X126380000Y-129380000D03*
X128920000Y-129380000D03*
X131460000Y-129380000D03*
X208920000Y-60000000D03*
X211460000Y-60000000D03*
X214000000Y-60000000D03*
X208920000Y-44770000D03*
X211460000Y-44770000D03*
X214034000Y-44770000D03*
%TA.AperFunction,ComponentPad*%
G36*
G01*
X106600000Y-49149999D02*
X106600000Y-46850001D01*
G75*
G02*
X106850001Y-46600000I250001J0D01*
G01*
X109149999Y-46600000D01*
G75*
G02*
X109400000Y-46850001I0J-250001D01*
G01*
X109400000Y-49149999D01*
G75*
G02*
X109149999Y-49400000I-250001J0D01*
G01*
X106850001Y-49400000D01*
G75*
G02*
X106600000Y-49149999I0J250001D01*
G01*
G37*
%TD.AperFunction*%
D12*
X113000000Y-48000000D03*
D11*
X192306000Y-60000000D03*
X194846000Y-60000000D03*
X197386000Y-60000000D03*
X192306000Y-44770000D03*
X194846000Y-44770000D03*
X197420000Y-44770000D03*
%TA.AperFunction,ComponentPad*%
G36*
G01*
X96399999Y-103150000D02*
X94100001Y-103150000D01*
G75*
G02*
X93850000Y-102899999I0J250001D01*
G01*
X93850000Y-100600001D01*
G75*
G02*
X94100001Y-100350000I250001J0D01*
G01*
X96399999Y-100350000D01*
G75*
G02*
X96650000Y-100600001I0J-250001D01*
G01*
X96650000Y-102899999D01*
G75*
G02*
X96399999Y-103150000I-250001J0D01*
G01*
G37*
%TD.AperFunction*%
D12*
X95250000Y-96750000D03*
%TA.AperFunction,ComponentPad*%
G36*
G01*
X96367499Y-116150000D02*
X94067501Y-116150000D01*
G75*
G02*
X93817500Y-115899999I0J250001D01*
G01*
X93817500Y-113600001D01*
G75*
G02*
X94067501Y-113350000I250001J0D01*
G01*
X96367499Y-113350000D01*
G75*
G02*
X96617500Y-113600001I0J-250001D01*
G01*
X96617500Y-115899999D01*
G75*
G02*
X96367499Y-116150000I-250001J0D01*
G01*
G37*
%TD.AperFunction*%
X95217500Y-109750000D03*
D11*
X150000000Y-62500000D03*
X145000000Y-62500000D03*
%TA.AperFunction,ComponentPad*%
G36*
G01*
X96367499Y-90150000D02*
X94067501Y-90150000D01*
G75*
G02*
X93817500Y-89899999I0J250001D01*
G01*
X93817500Y-87600001D01*
G75*
G02*
X94067501Y-87350000I250001J0D01*
G01*
X96367499Y-87350000D01*
G75*
G02*
X96617500Y-87600001I0J-250001D01*
G01*
X96617500Y-89899999D01*
G75*
G02*
X96367499Y-90150000I-250001J0D01*
G01*
G37*
%TD.AperFunction*%
D12*
X95217500Y-83750000D03*
%TA.AperFunction,ComponentPad*%
G36*
G01*
X96649999Y-58400000D02*
X94350001Y-58400000D01*
G75*
G02*
X94100000Y-58149999I0J250001D01*
G01*
X94100000Y-55850001D01*
G75*
G02*
X94350001Y-55600000I250001J0D01*
G01*
X96649999Y-55600000D01*
G75*
G02*
X96900000Y-55850001I0J-250001D01*
G01*
X96900000Y-58149999D01*
G75*
G02*
X96649999Y-58400000I-250001J0D01*
G01*
G37*
%TD.AperFunction*%
X95500000Y-52000000D03*
%TA.AperFunction,ComponentPad*%
G36*
G01*
X96649999Y-73400000D02*
X94350001Y-73400000D01*
G75*
G02*
X94100000Y-73149999I0J250001D01*
G01*
X94100000Y-70850001D01*
G75*
G02*
X94350001Y-70600000I250001J0D01*
G01*
X96649999Y-70600000D01*
G75*
G02*
X96900000Y-70850001I0J-250001D01*
G01*
X96900000Y-73149999D01*
G75*
G02*
X96649999Y-73400000I-250001J0D01*
G01*
G37*
%TD.AperFunction*%
X95500000Y-67000000D03*
D11*
X174000000Y-68500000D03*
X169000000Y-68500000D03*
X174000000Y-101000000D03*
X169000000Y-101000000D03*
%TA.AperFunction,ComponentPad*%
G36*
G01*
X96367499Y-129150000D02*
X94067501Y-129150000D01*
G75*
G02*
X93817500Y-128899999I0J250001D01*
G01*
X93817500Y-126600001D01*
G75*
G02*
X94067501Y-126350000I250001J0D01*
G01*
X96367499Y-126350000D01*
G75*
G02*
X96617500Y-126600001I0J-250001D01*
G01*
X96617500Y-128899999D01*
G75*
G02*
X96367499Y-129150000I-250001J0D01*
G01*
G37*
%TD.AperFunction*%
D12*
X95217500Y-122750000D03*
D13*
X146020000Y-126740000D03*
X148560000Y-126740000D03*
X151100000Y-126740000D03*
X153640000Y-126740000D03*
X156180000Y-126740000D03*
X158720000Y-126740000D03*
X161260000Y-126740000D03*
X163800000Y-126740000D03*
X166340000Y-126740000D03*
X168880000Y-126740000D03*
X171420000Y-126740000D03*
X173960000Y-126740000D03*
X173960000Y-111500000D03*
X171420000Y-111500000D03*
X168880000Y-111500000D03*
X166340000Y-111500000D03*
X163800000Y-111500000D03*
X161260000Y-111500000D03*
X158720000Y-111500000D03*
X156180000Y-111500000D03*
X153640000Y-111500000D03*
X151100000Y-111500000D03*
X148560000Y-111500000D03*
X179040000Y-126740000D03*
X181580000Y-126740000D03*
X184120000Y-126740000D03*
X186660000Y-126740000D03*
X189200000Y-126740000D03*
X191740000Y-126740000D03*
X194280000Y-126740000D03*
X196820000Y-126740000D03*
X199360000Y-126740000D03*
X199360000Y-111500000D03*
X196820000Y-111500000D03*
X194280000Y-111500000D03*
X191740000Y-111500000D03*
X189200000Y-111500000D03*
X186660000Y-111500000D03*
X184120000Y-111500000D03*
X181580000Y-111500000D03*
X179040000Y-111500000D03*
X176500000Y-126740000D03*
X186660000Y-124200000D03*
X186660000Y-121660000D03*
X186660000Y-119120000D03*
X186660000Y-116580000D03*
X186660000Y-114040000D03*
X157450000Y-123690000D03*
X154910000Y-123690000D03*
X152370000Y-123690000D03*
X149830000Y-123690000D03*
X147290000Y-123690000D03*
X146020000Y-111500000D03*
X140940000Y-111500000D03*
X143480000Y-126740000D03*
X143480000Y-114040000D03*
X176500000Y-111500000D03*
X143480000Y-111500000D03*
X140940000Y-126740000D03*
D11*
X109010000Y-102750000D03*
X111550000Y-102750000D03*
X114090000Y-102750000D03*
X116630000Y-102750000D03*
X119170000Y-102750000D03*
X121710000Y-102750000D03*
X124250000Y-102750000D03*
X131590000Y-79890000D03*
X129050000Y-79890000D03*
X126510000Y-79890000D03*
X123970000Y-79890000D03*
X121430000Y-79890000D03*
X118890000Y-79890000D03*
X116350000Y-79890000D03*
X113810000Y-79890000D03*
X111270000Y-79890000D03*
X108730000Y-79890000D03*
X106190000Y-79890000D03*
X103650000Y-79890000D03*
D14*
X134906300Y-53960000D03*
X122000000Y-98500000D03*
X112000000Y-98500000D03*
X162537900Y-65537900D03*
X181500000Y-50000000D03*
X173500000Y-55500000D03*
X180000000Y-46000000D03*
X171500000Y-54500000D03*
X156500000Y-57500000D03*
X138000000Y-130000000D03*
X121750000Y-113750000D03*
X147000000Y-101500000D03*
X143750000Y-104750000D03*
X217000000Y-104000000D03*
X219000000Y-105000000D03*
X202000000Y-77500000D03*
X184000000Y-101000000D03*
X198500000Y-83000000D03*
X205500000Y-128500000D03*
X167000000Y-89500000D03*
X147000000Y-72500000D03*
X153500000Y-72500000D03*
X137000000Y-53028600D03*
X141866050Y-61000000D03*
X157000000Y-75500000D03*
X168000000Y-84000000D03*
X189417200Y-57000000D03*
X135826800Y-66217800D03*
X167500000Y-54000000D03*
X138447800Y-68987700D03*
X167837500Y-62000000D03*
X183693850Y-60693850D03*
X182795900Y-69060500D03*
X171500000Y-94500000D03*
X140113100Y-66358500D03*
X134500000Y-67000000D03*
X163500000Y-46500000D03*
X169000000Y-52000000D03*
X173761700Y-93500000D03*
X182000000Y-52200600D03*
X162500000Y-68000000D03*
X129500000Y-68135000D03*
X115500000Y-54500000D03*
X129000000Y-55500000D03*
X161000000Y-59500000D03*
X170000000Y-56000000D03*
X155000000Y-55000000D03*
X181900000Y-48000000D03*
X140000000Y-48000000D03*
X139500000Y-51500000D03*
X168000000Y-93500000D03*
X159942700Y-79289100D03*
X171348900Y-92500000D03*
X162500000Y-79500000D03*
X156000000Y-84000000D03*
X159500000Y-84000000D03*
X166000000Y-91500000D03*
X155000000Y-77500000D03*
X138500000Y-104500000D03*
X138500000Y-98500000D03*
X156500000Y-57500000D03*
X161500000Y-51000000D03*
X204000000Y-77500000D03*
D15*
X201000000Y-93343600D02*
X197196400Y-93343600D01*
X197196400Y-93343600D02*
X179040000Y-111500000D01*
X202000000Y-92343600D02*
X201000000Y-93343600D01*
X202000000Y-77500000D02*
X202000000Y-92343600D01*
X207540000Y-122460000D02*
X210460000Y-122460000D01*
X205500000Y-124500000D02*
X207540000Y-122460000D01*
X205500000Y-128500000D02*
X205500000Y-124500000D01*
X166200600Y-68000000D02*
X162500000Y-68000000D01*
X182000000Y-52200600D02*
X166200600Y-68000000D01*
X205000000Y-70500000D02*
X215500000Y-70500000D01*
X198500000Y-77000000D02*
X205000000Y-70500000D01*
X198500000Y-83000000D02*
X198500000Y-77000000D01*
X184000000Y-97500000D02*
X180000000Y-93500000D01*
X180000000Y-93500000D02*
X173761700Y-93500000D01*
X170000000Y-90339400D02*
X170000000Y-78154050D01*
X168000000Y-93500000D02*
X168000000Y-92339400D01*
X168000000Y-92339400D02*
X170000000Y-90339400D01*
X170000000Y-78154050D02*
X167000000Y-78154050D01*
X156000000Y-77500000D02*
X155000000Y-77500000D01*
X165119600Y-90619600D02*
X165119600Y-86619600D01*
X166000000Y-91500000D02*
X165119600Y-90619600D01*
X165119600Y-86619600D02*
X156000000Y-77500000D01*
X138454100Y-54482700D02*
X137000000Y-53028600D01*
X141866050Y-61000000D02*
X141866050Y-57908150D01*
X136782200Y-66217800D02*
X135826800Y-66217800D01*
X141866050Y-61133950D02*
X136782200Y-66217800D01*
X141866050Y-57908150D02*
X138454100Y-54496200D01*
X141866050Y-61000000D02*
X141866050Y-61133950D01*
X138454100Y-54496200D02*
X138454100Y-54482700D01*
X129500000Y-55993300D02*
X129006700Y-55500000D01*
X129006700Y-55500000D02*
X129000000Y-55500000D01*
X129500000Y-68135000D02*
X129500000Y-55993300D01*
X162500000Y-72500000D02*
X162500000Y-79500000D01*
X185000000Y-53500000D02*
X184250000Y-54250000D01*
X180750000Y-54250000D02*
X162500000Y-72500000D01*
X185000000Y-50000000D02*
X185000000Y-53500000D01*
X193576000Y-43500000D02*
X191500000Y-43500000D01*
X191500000Y-43500000D02*
X185000000Y-50000000D01*
X184250000Y-54250000D02*
X180750000Y-54250000D01*
X194846000Y-44770000D02*
X193576000Y-43500000D01*
X105296700Y-108703300D02*
X111216700Y-108703300D01*
X111216700Y-108703300D02*
X113400000Y-106520000D01*
X92500000Y-125032500D02*
X92500000Y-121500000D01*
X92500000Y-121500000D02*
X105296700Y-108703300D01*
X95217500Y-127750000D02*
X92500000Y-125032500D01*
X116500000Y-104440000D02*
X116500000Y-102880000D01*
X108000000Y-104500000D02*
X116440000Y-104500000D01*
X116440000Y-104500000D02*
X116500000Y-104440000D01*
X116500000Y-102880000D02*
X116630000Y-102750000D01*
X107497700Y-103997700D02*
X108000000Y-104500000D01*
X107497700Y-96030200D02*
X107497700Y-103997700D01*
X95217500Y-83750000D02*
X107497700Y-96030200D01*
X123560000Y-109060000D02*
X123560000Y-106520000D01*
X140940000Y-126440000D02*
X123560000Y-109060000D01*
X140940000Y-126740000D02*
X140940000Y-126440000D01*
X126000000Y-100000000D02*
X110500000Y-100000000D01*
X129000000Y-103000000D02*
X126000000Y-100000000D01*
X129000000Y-109000000D02*
X129000000Y-103000000D01*
X123560000Y-109000000D02*
X129000000Y-109000000D01*
X123560000Y-106520000D02*
X123560000Y-109000000D01*
X112000000Y-98500000D02*
X122000000Y-98500000D01*
X110500000Y-100000000D02*
X110500000Y-89571700D01*
X98798800Y-70298800D02*
X95500000Y-67000000D01*
X98798800Y-77870500D02*
X98798800Y-70298800D01*
X110500000Y-89571700D02*
X98798800Y-77870500D01*
X111550000Y-102750000D02*
X110500000Y-101700000D01*
X110500000Y-101700000D02*
X110500000Y-100000000D01*
X167837500Y-54337500D02*
X167500000Y-54000000D01*
X167837500Y-62000000D02*
X167837500Y-54337500D01*
X166075800Y-62000000D02*
X162537900Y-65537900D01*
X167837500Y-62000000D02*
X166075800Y-62000000D01*
X179000000Y-50000000D02*
X181500000Y-50000000D01*
X173500000Y-55500000D02*
X179000000Y-50000000D01*
X179500000Y-48000000D02*
X181900000Y-48000000D01*
X171500000Y-56000000D02*
X179500000Y-48000000D01*
X170000000Y-56000000D02*
X171500000Y-56000000D01*
X171500000Y-54500000D02*
X180000000Y-46000000D01*
X156500000Y-56000000D02*
X156500000Y-57500000D01*
X161500000Y-51000000D02*
X156500000Y-56000000D01*
X197386000Y-92288400D02*
X197386000Y-60000000D01*
X192174400Y-97500000D02*
X197386000Y-92288400D01*
X184000000Y-97500000D02*
X192174400Y-97500000D01*
X184000000Y-101000000D02*
X184000000Y-97500000D01*
X121750000Y-113750000D02*
X138000000Y-130000000D01*
X140940000Y-107560000D02*
X140940000Y-111500000D01*
X143750000Y-104750000D02*
X140940000Y-107560000D01*
X141470000Y-99970000D02*
X148560000Y-107060000D01*
X137030000Y-99970000D02*
X141470000Y-99970000D01*
X116950000Y-79890000D02*
X137030000Y-99970000D01*
X116350000Y-79890000D02*
X116950000Y-79890000D01*
X148560000Y-107060000D02*
X148560000Y-111500000D01*
X171500000Y-94500000D02*
X169466700Y-94500000D01*
X169466700Y-94500000D02*
X168180900Y-95785800D01*
X147000000Y-101500000D02*
X148500000Y-100000000D01*
X148500000Y-100000000D02*
X164000000Y-100000000D01*
X166611800Y-97388200D02*
X166611800Y-97354900D01*
X164000000Y-100000000D02*
X166611800Y-97388200D01*
X166611800Y-97354900D02*
X168180900Y-95785800D01*
X175615400Y-115695400D02*
X186660000Y-126740000D01*
X138500000Y-112500000D02*
X141695400Y-115695400D01*
X141695400Y-115695400D02*
X175615400Y-115695400D01*
X138500000Y-104500000D02*
X138500000Y-112500000D01*
X218000000Y-105000000D02*
X217000000Y-104000000D01*
X219000000Y-105000000D02*
X218000000Y-105000000D01*
X215500000Y-72000000D02*
X215500000Y-70500000D01*
X215500000Y-70500000D02*
X215500000Y-48000000D01*
X214034000Y-46534000D02*
X215500000Y-48000000D01*
X214034000Y-44770000D02*
X214034000Y-46534000D01*
X215500000Y-81000000D02*
X215500000Y-72000000D01*
X214680000Y-81820000D02*
X215500000Y-81000000D01*
X215500000Y-82640000D02*
X214680000Y-81820000D01*
X215500000Y-98700000D02*
X215500000Y-82640000D01*
X214600000Y-99600000D02*
X215500000Y-98700000D01*
X213000000Y-81820000D02*
X214680000Y-81820000D01*
X215500000Y-100500000D02*
X214600000Y-99600000D01*
X215500000Y-127000000D02*
X215500000Y-100500000D01*
X214500000Y-128000000D02*
X215500000Y-127000000D01*
X210460000Y-127460000D02*
X211000000Y-128000000D01*
X211000000Y-128000000D02*
X214500000Y-128000000D01*
X210460000Y-125000000D02*
X210460000Y-127460000D01*
X214600000Y-99600000D02*
X213000000Y-99600000D01*
X153500000Y-72500000D02*
X154000000Y-72500000D01*
X197420000Y-44770000D02*
X189417200Y-52772800D01*
X146000000Y-71500000D02*
X147000000Y-72500000D01*
X168000000Y-84000000D02*
X168000000Y-88500000D01*
X92000000Y-63500000D02*
X92000000Y-55500000D01*
X135826800Y-70326800D02*
X137000000Y-71500000D01*
X168000000Y-88500000D02*
X167000000Y-89500000D01*
X154000000Y-72500000D02*
X157000000Y-75500000D01*
X95500000Y-67000000D02*
X92000000Y-63500000D01*
X189417200Y-52772800D02*
X189417200Y-57000000D01*
X92000000Y-55500000D02*
X95500000Y-52000000D01*
X137000000Y-71500000D02*
X146000000Y-71500000D01*
X135826800Y-66217800D02*
X135826800Y-70326800D01*
X166218300Y-93823300D02*
X168180900Y-95785800D01*
X166218300Y-93000000D02*
X166218300Y-93823300D01*
X182795900Y-61591800D02*
X182795900Y-69060500D01*
X169500000Y-89718300D02*
X166218300Y-93000000D01*
X186531400Y-50544600D02*
X192306000Y-44770000D01*
X165500000Y-79000000D02*
X169500000Y-79000000D01*
X140113100Y-67322400D02*
X140113100Y-66358500D01*
X158500000Y-69575800D02*
X158500000Y-79434314D01*
X183693850Y-60693850D02*
X186531400Y-57856300D01*
X183693850Y-60693850D02*
X182795900Y-61591800D01*
X162912950Y-81587050D02*
X165500000Y-79000000D01*
X138447800Y-68987700D02*
X140113100Y-67322400D01*
X160652736Y-81587050D02*
X162912950Y-81587050D01*
X169500000Y-79000000D02*
X169500000Y-89718300D01*
X186531400Y-57856300D02*
X186531400Y-50544600D01*
X158500000Y-79434314D02*
X160652736Y-81587050D01*
X162537900Y-65537900D02*
X158500000Y-69575800D01*
X163500000Y-46500000D02*
X167000000Y-46500000D01*
X169500000Y-49000000D02*
X169500000Y-51500000D01*
X167000000Y-46500000D02*
X169500000Y-49000000D01*
X169500000Y-51500000D02*
X169000000Y-52000000D01*
X95500000Y-79374100D02*
X109010000Y-92884100D01*
X109010000Y-92884100D02*
X109010000Y-102750000D01*
X95500000Y-72000000D02*
X95500000Y-79374100D01*
X99710000Y-122750000D02*
X115940000Y-106520000D01*
X95217500Y-122750000D02*
X99710000Y-122750000D01*
X128000000Y-54500000D02*
X129000000Y-55500000D01*
X115500000Y-54500000D02*
X128000000Y-54500000D01*
X155000000Y-55000000D02*
X155000000Y-57500000D01*
X157000000Y-59500000D02*
X161000000Y-59500000D01*
X155000000Y-57500000D02*
X157000000Y-59500000D01*
X139500000Y-51500000D02*
X139500000Y-48500000D01*
X139500000Y-48500000D02*
X140000000Y-48000000D01*
X162500000Y-81000000D02*
X161652000Y-81000000D01*
X159941100Y-79289100D02*
X159942700Y-79289100D01*
X165345950Y-78154050D02*
X162500000Y-81000000D01*
X167000000Y-78154050D02*
X165345950Y-78154050D01*
X161652000Y-81000000D02*
X159941100Y-79289100D01*
X174654050Y-78154050D02*
X167000000Y-78154050D01*
X192306000Y-60502100D02*
X174654050Y-78154050D01*
X192306000Y-60000000D02*
X192306000Y-60502100D01*
X194846000Y-69002900D02*
X171348900Y-92500000D01*
X194846000Y-60000000D02*
X194846000Y-69002900D01*
X156000000Y-84000000D02*
X159500000Y-84000000D01*
X151100000Y-111500000D02*
X151100000Y-107600000D01*
X123970000Y-80470000D02*
X123970000Y-79890000D01*
X151100000Y-107600000D02*
X123970000Y-80470000D01*
X138500000Y-97000000D02*
X121430000Y-79930000D01*
X138500000Y-98500000D02*
X138500000Y-97000000D01*
X121430000Y-79930000D02*
X121430000Y-79890000D01*
X181580000Y-126740000D02*
X171540000Y-116700000D01*
X136500000Y-102580000D02*
X136500000Y-111500000D01*
X113810000Y-79890000D02*
X136500000Y-102580000D01*
X136500000Y-111500000D02*
X141700000Y-116700000D01*
X141700000Y-116700000D02*
X171540000Y-116700000D01*
X135440000Y-112440000D02*
X140100000Y-117100000D01*
X169400000Y-117100000D02*
X179040000Y-126740000D01*
X135440000Y-104060000D02*
X135440000Y-112440000D01*
X140100000Y-117100000D02*
X169400000Y-117100000D01*
X111270000Y-79890000D02*
X135440000Y-104060000D01*
X204000000Y-91620000D02*
X204000000Y-77500000D01*
X199830000Y-95790000D02*
X204000000Y-91620000D01*
X184120000Y-111500000D02*
X199830000Y-95790000D01*
X134500000Y-67000000D02*
X134500000Y-54553700D01*
X134906300Y-54147400D02*
X134906300Y-53960000D01*
X134500000Y-54553700D02*
X134906300Y-54147400D01*
X114500000Y-49500000D02*
X113000000Y-48000000D01*
X133629700Y-54000000D02*
X129129700Y-49500000D01*
X134906300Y-53960000D02*
X134866300Y-54000000D01*
X134866300Y-54000000D02*
X133629700Y-54000000D01*
X129129700Y-49500000D02*
X114500000Y-49500000D01*
M02*
