%TF.GenerationSoftware,KiCad,Pcbnew,10.0.4*%
%TF.CreationDate,2026-06-29T11:23:35+02:00*%
%TF.ProjectId,puppet_pcb,70757070-6574-45f7-9063-622e6b696361,rev?*%
%TF.SameCoordinates,Original*%
%TF.FileFunction,Drillmap*%
%TF.FilePolarity,Positive*%
%FSLAX45Y45*%
G04 Gerber Fmt 4.5, Leading zero omitted, Abs format (unit mm)*
G04 Created by KiCad (PCBNEW 10.0.4) date 2026-06-29 11:23:35*
%MOMM*%
%LPD*%
G01*
G04 APERTURE LIST*
%ADD10C,0.200000*%
%ADD11C,0.100000*%
%ADD12C,0.111000*%
%ADD13C,0.130000*%
G04 APERTURE END LIST*
D10*
X8700000Y-4050000D02*
X22100000Y-4050000D01*
X22100000Y-13450000D01*
X8700000Y-13450000D01*
X8700000Y-4050000D01*
D11*
X11165000Y-9815000D02*
X11235000Y-9885000D01*
X11235000Y-9815000D02*
X11165000Y-9885000D01*
X11515000Y-5415000D02*
X11585000Y-5485000D01*
X11585000Y-5415000D02*
X11515000Y-5485000D01*
X12140000Y-11340000D02*
X12210000Y-11410000D01*
X12210000Y-11340000D02*
X12140000Y-11410000D01*
X12165000Y-9815000D02*
X12235000Y-9885000D01*
X12235000Y-9815000D02*
X12165000Y-9885000D01*
X12865000Y-5515000D02*
X12935000Y-5585000D01*
X12935000Y-5515000D02*
X12865000Y-5585000D01*
X12915000Y-6778500D02*
X12985000Y-6848500D01*
X12985000Y-6778500D02*
X12915000Y-6848500D01*
X13415000Y-6665000D02*
X13485000Y-6735000D01*
X13485000Y-6665000D02*
X13415000Y-6735000D01*
X13455630Y-5361000D02*
X13525630Y-5431000D01*
X13525630Y-5361000D02*
X13455630Y-5431000D01*
X13547680Y-6586780D02*
X13617680Y-6656780D01*
X13617680Y-6586780D02*
X13547680Y-6656780D01*
X13665000Y-5267860D02*
X13735000Y-5337860D01*
X13735000Y-5267860D02*
X13665000Y-5337860D01*
X13765000Y-12965000D02*
X13835000Y-13035000D01*
X13835000Y-12965000D02*
X13765000Y-13035000D01*
X13809780Y-6863770D02*
X13879780Y-6933770D01*
X13879780Y-6863770D02*
X13809780Y-6933770D01*
X13815000Y-9815000D02*
X13885000Y-9885000D01*
X13885000Y-9815000D02*
X13815000Y-9885000D01*
X13815000Y-10415000D02*
X13885000Y-10485000D01*
X13885000Y-10415000D02*
X13815000Y-10485000D01*
X13915000Y-5115000D02*
X13985000Y-5185000D01*
X13985000Y-5115000D02*
X13915000Y-5185000D01*
X13965000Y-4765000D02*
X14035000Y-4835000D01*
X14035000Y-4765000D02*
X13965000Y-4835000D01*
X13976310Y-6600850D02*
X14046310Y-6670850D01*
X14046310Y-6600850D02*
X13976310Y-6670850D01*
X14151605Y-6065000D02*
X14221605Y-6135000D01*
X14221605Y-6065000D02*
X14151605Y-6135000D01*
X14340000Y-10440000D02*
X14410000Y-10510000D01*
X14410000Y-10440000D02*
X14340000Y-10510000D01*
X14665000Y-7215000D02*
X14735000Y-7285000D01*
X14735000Y-7215000D02*
X14665000Y-7285000D01*
X14665000Y-10115000D02*
X14735000Y-10185000D01*
X14735000Y-10115000D02*
X14665000Y-10185000D01*
X15315000Y-7215000D02*
X15385000Y-7285000D01*
X15385000Y-7215000D02*
X15315000Y-7285000D01*
X15465000Y-5465000D02*
X15535000Y-5535000D01*
X15535000Y-5465000D02*
X15465000Y-5535000D01*
X15465000Y-7715000D02*
X15535000Y-7785000D01*
X15535000Y-7715000D02*
X15465000Y-7785000D01*
X15565000Y-8365000D02*
X15635000Y-8435000D01*
X15635000Y-8365000D02*
X15565000Y-8435000D01*
X15615000Y-5715000D02*
X15685000Y-5785000D01*
X15685000Y-5715000D02*
X15615000Y-5785000D01*
X15615000Y-5715000D02*
X15685000Y-5785000D01*
X15685000Y-5715000D02*
X15615000Y-5785000D01*
X15665000Y-7515000D02*
X15735000Y-7585000D01*
X15735000Y-7515000D02*
X15665000Y-7585000D01*
X15915000Y-8365000D02*
X15985000Y-8435000D01*
X15985000Y-8365000D02*
X15915000Y-8435000D01*
X15959270Y-7893910D02*
X16029270Y-7963910D01*
X16029270Y-7893910D02*
X15959270Y-7963910D01*
X16065000Y-5915000D02*
X16135000Y-5985000D01*
X16135000Y-5915000D02*
X16065000Y-5985000D01*
X16115000Y-5065000D02*
X16185000Y-5135000D01*
X16185000Y-5065000D02*
X16115000Y-5135000D01*
X16215000Y-6765000D02*
X16285000Y-6835000D01*
X16285000Y-6765000D02*
X16215000Y-6835000D01*
X16215000Y-7915000D02*
X16285000Y-7985000D01*
X16285000Y-7915000D02*
X16215000Y-7985000D01*
X16218790Y-6518790D02*
X16288790Y-6588790D01*
X16288790Y-6518790D02*
X16218790Y-6588790D01*
X16315000Y-4615000D02*
X16385000Y-4685000D01*
X16385000Y-4615000D02*
X16315000Y-4685000D01*
X16565000Y-9115000D02*
X16635000Y-9185000D01*
X16635000Y-9115000D02*
X16565000Y-9185000D01*
X16665000Y-8915000D02*
X16735000Y-8985000D01*
X16735000Y-8915000D02*
X16665000Y-8985000D01*
X16715000Y-5365000D02*
X16785000Y-5435000D01*
X16785000Y-5365000D02*
X16715000Y-5435000D01*
X16748750Y-6165000D02*
X16818750Y-6235000D01*
X16818750Y-6165000D02*
X16748750Y-6235000D01*
X16765000Y-8365000D02*
X16835000Y-8435000D01*
X16835000Y-8365000D02*
X16765000Y-8435000D01*
X16765000Y-9315000D02*
X16835000Y-9385000D01*
X16835000Y-9315000D02*
X16765000Y-9385000D01*
X16865000Y-5165000D02*
X16935000Y-5235000D01*
X16935000Y-5165000D02*
X16865000Y-5235000D01*
X16965000Y-5565000D02*
X17035000Y-5635000D01*
X17035000Y-5565000D02*
X16965000Y-5635000D01*
X17099890Y-9215000D02*
X17169890Y-9285000D01*
X17169890Y-9215000D02*
X17099890Y-9285000D01*
X17115000Y-5415000D02*
X17185000Y-5485000D01*
X17185000Y-5415000D02*
X17115000Y-5485000D01*
X17115000Y-9415000D02*
X17185000Y-9485000D01*
X17185000Y-9415000D02*
X17115000Y-9485000D01*
X17315000Y-5515000D02*
X17385000Y-5585000D01*
X17385000Y-5515000D02*
X17315000Y-5585000D01*
X17341170Y-9315000D02*
X17411170Y-9385000D01*
X17411170Y-9315000D02*
X17341170Y-9385000D01*
X17965000Y-4565000D02*
X18035000Y-4635000D01*
X18035000Y-4565000D02*
X17965000Y-4635000D01*
X18115000Y-4965000D02*
X18185000Y-5035000D01*
X18185000Y-4965000D02*
X18115000Y-5035000D01*
X18155000Y-4765000D02*
X18225000Y-4835000D01*
X18225000Y-4765000D02*
X18155000Y-4835000D01*
X18165000Y-5185060D02*
X18235000Y-5255060D01*
X18235000Y-5185060D02*
X18165000Y-5255060D01*
X18244590Y-6871050D02*
X18314590Y-6941050D01*
X18314590Y-6871050D02*
X18244590Y-6941050D01*
X18334385Y-6034385D02*
X18404385Y-6104385D01*
X18404385Y-6034385D02*
X18334385Y-6104385D01*
X18365000Y-10065000D02*
X18435000Y-10135000D01*
X18435000Y-10065000D02*
X18365000Y-10135000D01*
X18906720Y-5665000D02*
X18976720Y-5735000D01*
X18976720Y-5665000D02*
X18906720Y-5735000D01*
X19815000Y-8265000D02*
X19885000Y-8335000D01*
X19885000Y-8265000D02*
X19815000Y-8335000D01*
X20165000Y-7715000D02*
X20235000Y-7785000D01*
X20235000Y-7715000D02*
X20165000Y-7785000D01*
X20365000Y-7715000D02*
X20435000Y-7785000D01*
X20435000Y-7715000D02*
X20365000Y-7785000D01*
X20515000Y-12815000D02*
X20585000Y-12885000D01*
X20585000Y-12815000D02*
X20515000Y-12885000D01*
X21665000Y-10365000D02*
X21735000Y-10435000D01*
X21735000Y-10365000D02*
X21665000Y-10435000D01*
X21865000Y-10465000D02*
X21935000Y-10535000D01*
X21935000Y-10465000D02*
X21865000Y-10535000D01*
X10392000Y-12938000D02*
G75*
G02*
X10312000Y-12938000I-40000J0D01*
G01*
X10312000Y-12938000D02*
G75*
G02*
X10392000Y-12938000I40000J0D01*
G01*
X10405000Y-7989000D02*
G75*
G02*
X10325000Y-7989000I-40000J0D01*
G01*
X10325000Y-7989000D02*
G75*
G02*
X10405000Y-7989000I40000J0D01*
G01*
X10646000Y-12938000D02*
G75*
G02*
X10566000Y-12938000I-40000J0D01*
G01*
X10566000Y-12938000D02*
G75*
G02*
X10646000Y-12938000I40000J0D01*
G01*
X10659000Y-7989000D02*
G75*
G02*
X10579000Y-7989000I-40000J0D01*
G01*
X10579000Y-7989000D02*
G75*
G02*
X10659000Y-7989000I40000J0D01*
G01*
X10900000Y-12938000D02*
G75*
G02*
X10820000Y-12938000I-40000J0D01*
G01*
X10820000Y-12938000D02*
G75*
G02*
X10900000Y-12938000I40000J0D01*
G01*
X10913000Y-7989000D02*
G75*
G02*
X10833000Y-7989000I-40000J0D01*
G01*
X10833000Y-7989000D02*
G75*
G02*
X10913000Y-7989000I40000J0D01*
G01*
X10941000Y-10275000D02*
G75*
G02*
X10861000Y-10275000I-40000J0D01*
G01*
X10861000Y-10275000D02*
G75*
G02*
X10941000Y-10275000I40000J0D01*
G01*
X11126000Y-10652000D02*
G75*
G02*
X11046000Y-10652000I-40000J0D01*
G01*
X11046000Y-10652000D02*
G75*
G02*
X11126000Y-10652000I40000J0D01*
G01*
X11154000Y-12938000D02*
G75*
G02*
X11074000Y-12938000I-40000J0D01*
G01*
X11074000Y-12938000D02*
G75*
G02*
X11154000Y-12938000I40000J0D01*
G01*
X11167000Y-7989000D02*
G75*
G02*
X11087000Y-7989000I-40000J0D01*
G01*
X11087000Y-7989000D02*
G75*
G02*
X11167000Y-7989000I40000J0D01*
G01*
X11195000Y-10275000D02*
G75*
G02*
X11115000Y-10275000I-40000J0D01*
G01*
X11115000Y-10275000D02*
G75*
G02*
X11195000Y-10275000I40000J0D01*
G01*
X11380000Y-10652000D02*
G75*
G02*
X11300000Y-10652000I-40000J0D01*
G01*
X11300000Y-10652000D02*
G75*
G02*
X11380000Y-10652000I40000J0D01*
G01*
X11408000Y-12938000D02*
G75*
G02*
X11328000Y-12938000I-40000J0D01*
G01*
X11328000Y-12938000D02*
G75*
G02*
X11408000Y-12938000I40000J0D01*
G01*
X11421000Y-7989000D02*
G75*
G02*
X11341000Y-7989000I-40000J0D01*
G01*
X11341000Y-7989000D02*
G75*
G02*
X11421000Y-7989000I40000J0D01*
G01*
X11449000Y-10275000D02*
G75*
G02*
X11369000Y-10275000I-40000J0D01*
G01*
X11369000Y-10275000D02*
G75*
G02*
X11449000Y-10275000I40000J0D01*
G01*
X11634000Y-10652000D02*
G75*
G02*
X11554000Y-10652000I-40000J0D01*
G01*
X11554000Y-10652000D02*
G75*
G02*
X11634000Y-10652000I40000J0D01*
G01*
X11662000Y-12938000D02*
G75*
G02*
X11582000Y-12938000I-40000J0D01*
G01*
X11582000Y-12938000D02*
G75*
G02*
X11662000Y-12938000I40000J0D01*
G01*
X11675000Y-7989000D02*
G75*
G02*
X11595000Y-7989000I-40000J0D01*
G01*
X11595000Y-7989000D02*
G75*
G02*
X11675000Y-7989000I40000J0D01*
G01*
X11703000Y-10275000D02*
G75*
G02*
X11623000Y-10275000I-40000J0D01*
G01*
X11623000Y-10275000D02*
G75*
G02*
X11703000Y-10275000I40000J0D01*
G01*
X11888000Y-10652000D02*
G75*
G02*
X11808000Y-10652000I-40000J0D01*
G01*
X11808000Y-10652000D02*
G75*
G02*
X11888000Y-10652000I40000J0D01*
G01*
X11916000Y-12938000D02*
G75*
G02*
X11836000Y-12938000I-40000J0D01*
G01*
X11836000Y-12938000D02*
G75*
G02*
X11916000Y-12938000I40000J0D01*
G01*
X11929000Y-7989000D02*
G75*
G02*
X11849000Y-7989000I-40000J0D01*
G01*
X11849000Y-7989000D02*
G75*
G02*
X11929000Y-7989000I40000J0D01*
G01*
X11957000Y-10275000D02*
G75*
G02*
X11877000Y-10275000I-40000J0D01*
G01*
X11877000Y-10275000D02*
G75*
G02*
X11957000Y-10275000I40000J0D01*
G01*
X12142000Y-10652000D02*
G75*
G02*
X12062000Y-10652000I-40000J0D01*
G01*
X12062000Y-10652000D02*
G75*
G02*
X12142000Y-10652000I40000J0D01*
G01*
X12170000Y-12938000D02*
G75*
G02*
X12090000Y-12938000I-40000J0D01*
G01*
X12090000Y-12938000D02*
G75*
G02*
X12170000Y-12938000I40000J0D01*
G01*
X12183000Y-7989000D02*
G75*
G02*
X12103000Y-7989000I-40000J0D01*
G01*
X12103000Y-7989000D02*
G75*
G02*
X12183000Y-7989000I40000J0D01*
G01*
X12211000Y-10275000D02*
G75*
G02*
X12131000Y-10275000I-40000J0D01*
G01*
X12131000Y-10275000D02*
G75*
G02*
X12211000Y-10275000I40000J0D01*
G01*
X12396000Y-10652000D02*
G75*
G02*
X12316000Y-10652000I-40000J0D01*
G01*
X12316000Y-10652000D02*
G75*
G02*
X12396000Y-10652000I40000J0D01*
G01*
X12424000Y-12938000D02*
G75*
G02*
X12344000Y-12938000I-40000J0D01*
G01*
X12344000Y-12938000D02*
G75*
G02*
X12424000Y-12938000I40000J0D01*
G01*
X12437000Y-7989000D02*
G75*
G02*
X12357000Y-7989000I-40000J0D01*
G01*
X12357000Y-7989000D02*
G75*
G02*
X12437000Y-7989000I40000J0D01*
G01*
X12465000Y-10275000D02*
G75*
G02*
X12385000Y-10275000I-40000J0D01*
G01*
X12385000Y-10275000D02*
G75*
G02*
X12465000Y-10275000I40000J0D01*
G01*
X12650000Y-10652000D02*
G75*
G02*
X12570000Y-10652000I-40000J0D01*
G01*
X12570000Y-10652000D02*
G75*
G02*
X12650000Y-10652000I40000J0D01*
G01*
X12678000Y-12938000D02*
G75*
G02*
X12598000Y-12938000I-40000J0D01*
G01*
X12598000Y-12938000D02*
G75*
G02*
X12678000Y-12938000I40000J0D01*
G01*
X12691000Y-7989000D02*
G75*
G02*
X12611000Y-7989000I-40000J0D01*
G01*
X12611000Y-7989000D02*
G75*
G02*
X12691000Y-7989000I40000J0D01*
G01*
X12932000Y-12938000D02*
G75*
G02*
X12852000Y-12938000I-40000J0D01*
G01*
X12852000Y-12938000D02*
G75*
G02*
X12932000Y-12938000I40000J0D01*
G01*
X12945000Y-7989000D02*
G75*
G02*
X12865000Y-7989000I-40000J0D01*
G01*
X12865000Y-7989000D02*
G75*
G02*
X12945000Y-7989000I40000J0D01*
G01*
X13186000Y-12938000D02*
G75*
G02*
X13106000Y-12938000I-40000J0D01*
G01*
X13106000Y-12938000D02*
G75*
G02*
X13186000Y-12938000I40000J0D01*
G01*
X13199000Y-7989000D02*
G75*
G02*
X13119000Y-7989000I-40000J0D01*
G01*
X13119000Y-7989000D02*
G75*
G02*
X13199000Y-7989000I40000J0D01*
G01*
X14490000Y-8950000D02*
G75*
G02*
X14410000Y-8950000I-40000J0D01*
G01*
X14410000Y-8950000D02*
G75*
G02*
X14490000Y-8950000I40000J0D01*
G01*
X14540000Y-6250000D02*
G75*
G02*
X14460000Y-6250000I-40000J0D01*
G01*
X14460000Y-6250000D02*
G75*
G02*
X14540000Y-6250000I40000J0D01*
G01*
X14990000Y-8950000D02*
G75*
G02*
X14910000Y-8950000I-40000J0D01*
G01*
X14910000Y-8950000D02*
G75*
G02*
X14990000Y-8950000I40000J0D01*
G01*
X15040000Y-6250000D02*
G75*
G02*
X14960000Y-6250000I-40000J0D01*
G01*
X14960000Y-6250000D02*
G75*
G02*
X15040000Y-6250000I40000J0D01*
G01*
X16940000Y-6850000D02*
G75*
G02*
X16860000Y-6850000I-40000J0D01*
G01*
X16860000Y-6850000D02*
G75*
G02*
X16940000Y-6850000I40000J0D01*
G01*
X16940000Y-10100000D02*
G75*
G02*
X16860000Y-10100000I-40000J0D01*
G01*
X16860000Y-10100000D02*
G75*
G02*
X16940000Y-10100000I40000J0D01*
G01*
X17440000Y-6850000D02*
G75*
G02*
X17360000Y-6850000I-40000J0D01*
G01*
X17360000Y-6850000D02*
G75*
G02*
X17440000Y-6850000I40000J0D01*
G01*
X17440000Y-10100000D02*
G75*
G02*
X17360000Y-10100000I-40000J0D01*
G01*
X17360000Y-10100000D02*
G75*
G02*
X17440000Y-10100000I40000J0D01*
G01*
X19270600Y-4477000D02*
G75*
G02*
X19190600Y-4477000I-40000J0D01*
G01*
X19190600Y-4477000D02*
G75*
G02*
X19270600Y-4477000I40000J0D01*
G01*
X19270600Y-6000000D02*
G75*
G02*
X19190600Y-6000000I-40000J0D01*
G01*
X19190600Y-6000000D02*
G75*
G02*
X19270600Y-6000000I40000J0D01*
G01*
X19524600Y-4477000D02*
G75*
G02*
X19444600Y-4477000I-40000J0D01*
G01*
X19444600Y-4477000D02*
G75*
G02*
X19524600Y-4477000I40000J0D01*
G01*
X19524600Y-6000000D02*
G75*
G02*
X19444600Y-6000000I-40000J0D01*
G01*
X19444600Y-6000000D02*
G75*
G02*
X19524600Y-6000000I40000J0D01*
G01*
X19778600Y-6000000D02*
G75*
G02*
X19698600Y-6000000I-40000J0D01*
G01*
X19698600Y-6000000D02*
G75*
G02*
X19778600Y-6000000I40000J0D01*
G01*
X19782000Y-4477000D02*
G75*
G02*
X19702000Y-4477000I-40000J0D01*
G01*
X19702000Y-4477000D02*
G75*
G02*
X19782000Y-4477000I40000J0D01*
G01*
X20932000Y-4477000D02*
G75*
G02*
X20852000Y-4477000I-40000J0D01*
G01*
X20852000Y-4477000D02*
G75*
G02*
X20932000Y-4477000I40000J0D01*
G01*
X20932000Y-6000000D02*
G75*
G02*
X20852000Y-6000000I-40000J0D01*
G01*
X20852000Y-6000000D02*
G75*
G02*
X20932000Y-6000000I40000J0D01*
G01*
X21186000Y-4477000D02*
G75*
G02*
X21106000Y-4477000I-40000J0D01*
G01*
X21106000Y-4477000D02*
G75*
G02*
X21186000Y-4477000I40000J0D01*
G01*
X21186000Y-6000000D02*
G75*
G02*
X21106000Y-6000000I-40000J0D01*
G01*
X21106000Y-6000000D02*
G75*
G02*
X21186000Y-6000000I40000J0D01*
G01*
X21440000Y-6000000D02*
G75*
G02*
X21360000Y-6000000I-40000J0D01*
G01*
X21360000Y-6000000D02*
G75*
G02*
X21440000Y-6000000I40000J0D01*
G01*
X21443400Y-4477000D02*
G75*
G02*
X21363400Y-4477000I-40000J0D01*
G01*
X21363400Y-4477000D02*
G75*
G02*
X21443400Y-4477000I40000J0D01*
G01*
X21046000Y-7624000D02*
X21046000Y-7724000D01*
X20996000Y-7674000D02*
X21096000Y-7674000D01*
X21046000Y-7878000D02*
X21046000Y-7978000D01*
X20996000Y-7928000D02*
X21096000Y-7928000D01*
X21046000Y-8132000D02*
X21046000Y-8232000D01*
X20996000Y-8182000D02*
X21096000Y-8182000D01*
X21046000Y-8386000D02*
X21046000Y-8486000D01*
X20996000Y-8436000D02*
X21096000Y-8436000D01*
X21046000Y-8640000D02*
X21046000Y-8740000D01*
X20996000Y-8690000D02*
X21096000Y-8690000D01*
X21046000Y-8894000D02*
X21046000Y-8994000D01*
X20996000Y-8944000D02*
X21096000Y-8944000D01*
X21046000Y-9148000D02*
X21046000Y-9248000D01*
X20996000Y-9198000D02*
X21096000Y-9198000D01*
X21046000Y-9402000D02*
X21046000Y-9502000D01*
X20996000Y-9452000D02*
X21096000Y-9452000D01*
X21046000Y-9656000D02*
X21046000Y-9756000D01*
X20996000Y-9706000D02*
X21096000Y-9706000D01*
X21046000Y-9910000D02*
X21046000Y-10010000D01*
X20996000Y-9960000D02*
X21096000Y-9960000D01*
X21046000Y-10164000D02*
X21046000Y-10264000D01*
X20996000Y-10214000D02*
X21096000Y-10214000D01*
X21046000Y-10418000D02*
X21046000Y-10518000D01*
X20996000Y-10468000D02*
X21096000Y-10468000D01*
X21046000Y-10672000D02*
X21046000Y-10772000D01*
X20996000Y-10722000D02*
X21096000Y-10722000D01*
X21046000Y-10926000D02*
X21046000Y-11026000D01*
X20996000Y-10976000D02*
X21096000Y-10976000D01*
X21046000Y-11180000D02*
X21046000Y-11280000D01*
X20996000Y-11230000D02*
X21096000Y-11230000D01*
X21046000Y-11434000D02*
X21046000Y-11534000D01*
X20996000Y-11484000D02*
X21096000Y-11484000D01*
X21046000Y-11688000D02*
X21046000Y-11788000D01*
X20996000Y-11738000D02*
X21096000Y-11738000D01*
X21046000Y-11942000D02*
X21046000Y-12042000D01*
X20996000Y-11992000D02*
X21096000Y-11992000D01*
X21046000Y-12196000D02*
X21046000Y-12296000D01*
X20996000Y-12246000D02*
X21096000Y-12246000D01*
X21046000Y-12450000D02*
X21046000Y-12550000D01*
X20996000Y-12500000D02*
X21096000Y-12500000D01*
X21300000Y-7624000D02*
X21300000Y-7724000D01*
X21250000Y-7674000D02*
X21350000Y-7674000D01*
X21300000Y-7878000D02*
X21300000Y-7978000D01*
X21250000Y-7928000D02*
X21350000Y-7928000D01*
X21300000Y-8132000D02*
X21300000Y-8232000D01*
X21250000Y-8182000D02*
X21350000Y-8182000D01*
X21300000Y-8386000D02*
X21300000Y-8486000D01*
X21250000Y-8436000D02*
X21350000Y-8436000D01*
X21300000Y-8640000D02*
X21300000Y-8740000D01*
X21250000Y-8690000D02*
X21350000Y-8690000D01*
X21300000Y-8894000D02*
X21300000Y-8994000D01*
X21250000Y-8944000D02*
X21350000Y-8944000D01*
X21300000Y-9148000D02*
X21300000Y-9248000D01*
X21250000Y-9198000D02*
X21350000Y-9198000D01*
X21300000Y-9402000D02*
X21300000Y-9502000D01*
X21250000Y-9452000D02*
X21350000Y-9452000D01*
X21300000Y-9656000D02*
X21300000Y-9756000D01*
X21250000Y-9706000D02*
X21350000Y-9706000D01*
X21300000Y-9910000D02*
X21300000Y-10010000D01*
X21250000Y-9960000D02*
X21350000Y-9960000D01*
X21300000Y-10164000D02*
X21300000Y-10264000D01*
X21250000Y-10214000D02*
X21350000Y-10214000D01*
X21300000Y-10418000D02*
X21300000Y-10518000D01*
X21250000Y-10468000D02*
X21350000Y-10468000D01*
X21300000Y-10672000D02*
X21300000Y-10772000D01*
X21250000Y-10722000D02*
X21350000Y-10722000D01*
X21300000Y-10926000D02*
X21300000Y-11026000D01*
X21250000Y-10976000D02*
X21350000Y-10976000D01*
X21300000Y-11180000D02*
X21300000Y-11280000D01*
X21250000Y-11230000D02*
X21350000Y-11230000D01*
X21300000Y-11434000D02*
X21300000Y-11534000D01*
X21250000Y-11484000D02*
X21350000Y-11484000D01*
X21300000Y-11688000D02*
X21300000Y-11788000D01*
X21250000Y-11738000D02*
X21350000Y-11738000D01*
X21300000Y-11942000D02*
X21300000Y-12042000D01*
X21250000Y-11992000D02*
X21350000Y-11992000D01*
X21300000Y-12196000D02*
X21300000Y-12296000D01*
X21250000Y-12246000D02*
X21350000Y-12246000D01*
X21300000Y-12450000D02*
X21300000Y-12550000D01*
X21250000Y-12500000D02*
X21350000Y-12500000D01*
D12*
X14133245Y-11189245D02*
X14133245Y-11110755D01*
X14054755Y-11110755D01*
X14054755Y-11189245D01*
X14133245Y-11189245D01*
X14133245Y-12713245D02*
X14133245Y-12634755D01*
X14054755Y-12634755D01*
X14054755Y-12713245D01*
X14133245Y-12713245D01*
X14387245Y-11189245D02*
X14387245Y-11110755D01*
X14308755Y-11110755D01*
X14308755Y-11189245D01*
X14387245Y-11189245D01*
X14387245Y-11443245D02*
X14387245Y-11364755D01*
X14308755Y-11364755D01*
X14308755Y-11443245D01*
X14387245Y-11443245D01*
X14387245Y-12713245D02*
X14387245Y-12634755D01*
X14308755Y-12634755D01*
X14308755Y-12713245D01*
X14387245Y-12713245D01*
X14641245Y-11189245D02*
X14641245Y-11110755D01*
X14562755Y-11110755D01*
X14562755Y-11189245D01*
X14641245Y-11189245D01*
X14641245Y-12713245D02*
X14641245Y-12634755D01*
X14562755Y-12634755D01*
X14562755Y-12713245D01*
X14641245Y-12713245D01*
X14768245Y-12408245D02*
X14768245Y-12329755D01*
X14689755Y-12329755D01*
X14689755Y-12408245D01*
X14768245Y-12408245D01*
X14895245Y-11189245D02*
X14895245Y-11110755D01*
X14816755Y-11110755D01*
X14816755Y-11189245D01*
X14895245Y-11189245D01*
X14895245Y-12713245D02*
X14895245Y-12634755D01*
X14816755Y-12634755D01*
X14816755Y-12713245D01*
X14895245Y-12713245D01*
X15022245Y-12408245D02*
X15022245Y-12329755D01*
X14943755Y-12329755D01*
X14943755Y-12408245D01*
X15022245Y-12408245D01*
X15149245Y-11189245D02*
X15149245Y-11110755D01*
X15070755Y-11110755D01*
X15070755Y-11189245D01*
X15149245Y-11189245D01*
X15149245Y-12713245D02*
X15149245Y-12634755D01*
X15070755Y-12634755D01*
X15070755Y-12713245D01*
X15149245Y-12713245D01*
X15276245Y-12408245D02*
X15276245Y-12329755D01*
X15197755Y-12329755D01*
X15197755Y-12408245D01*
X15276245Y-12408245D01*
X15403245Y-11189245D02*
X15403245Y-11110755D01*
X15324755Y-11110755D01*
X15324755Y-11189245D01*
X15403245Y-11189245D01*
X15403245Y-12713245D02*
X15403245Y-12634755D01*
X15324755Y-12634755D01*
X15324755Y-12713245D01*
X15403245Y-12713245D01*
X15530245Y-12408245D02*
X15530245Y-12329755D01*
X15451755Y-12329755D01*
X15451755Y-12408245D01*
X15530245Y-12408245D01*
X15657245Y-11189245D02*
X15657245Y-11110755D01*
X15578755Y-11110755D01*
X15578755Y-11189245D01*
X15657245Y-11189245D01*
X15657245Y-12713245D02*
X15657245Y-12634755D01*
X15578755Y-12634755D01*
X15578755Y-12713245D01*
X15657245Y-12713245D01*
X15784245Y-12408245D02*
X15784245Y-12329755D01*
X15705755Y-12329755D01*
X15705755Y-12408245D01*
X15784245Y-12408245D01*
X15911245Y-11189245D02*
X15911245Y-11110755D01*
X15832755Y-11110755D01*
X15832755Y-11189245D01*
X15911245Y-11189245D01*
X15911245Y-12713245D02*
X15911245Y-12634755D01*
X15832755Y-12634755D01*
X15832755Y-12713245D01*
X15911245Y-12713245D01*
X16165245Y-11189245D02*
X16165245Y-11110755D01*
X16086755Y-11110755D01*
X16086755Y-11189245D01*
X16165245Y-11189245D01*
X16165245Y-12713245D02*
X16165245Y-12634755D01*
X16086755Y-12634755D01*
X16086755Y-12713245D01*
X16165245Y-12713245D01*
X16419245Y-11189245D02*
X16419245Y-11110755D01*
X16340755Y-11110755D01*
X16340755Y-11189245D01*
X16419245Y-11189245D01*
X16419245Y-12713245D02*
X16419245Y-12634755D01*
X16340755Y-12634755D01*
X16340755Y-12713245D01*
X16419245Y-12713245D01*
X16673245Y-11189245D02*
X16673245Y-11110755D01*
X16594755Y-11110755D01*
X16594755Y-11189245D01*
X16673245Y-11189245D01*
X16673245Y-12713245D02*
X16673245Y-12634755D01*
X16594755Y-12634755D01*
X16594755Y-12713245D01*
X16673245Y-12713245D01*
X16927245Y-11189245D02*
X16927245Y-11110755D01*
X16848755Y-11110755D01*
X16848755Y-11189245D01*
X16927245Y-11189245D01*
X16927245Y-12713245D02*
X16927245Y-12634755D01*
X16848755Y-12634755D01*
X16848755Y-12713245D01*
X16927245Y-12713245D01*
X17181245Y-11189245D02*
X17181245Y-11110755D01*
X17102755Y-11110755D01*
X17102755Y-11189245D01*
X17181245Y-11189245D01*
X17181245Y-12713245D02*
X17181245Y-12634755D01*
X17102755Y-12634755D01*
X17102755Y-12713245D01*
X17181245Y-12713245D01*
X17435245Y-11189245D02*
X17435245Y-11110755D01*
X17356755Y-11110755D01*
X17356755Y-11189245D01*
X17435245Y-11189245D01*
X17435245Y-12713245D02*
X17435245Y-12634755D01*
X17356755Y-12634755D01*
X17356755Y-12713245D01*
X17435245Y-12713245D01*
X17689245Y-11189245D02*
X17689245Y-11110755D01*
X17610755Y-11110755D01*
X17610755Y-11189245D01*
X17689245Y-11189245D01*
X17689245Y-12713245D02*
X17689245Y-12634755D01*
X17610755Y-12634755D01*
X17610755Y-12713245D01*
X17689245Y-12713245D01*
X17943245Y-11189245D02*
X17943245Y-11110755D01*
X17864755Y-11110755D01*
X17864755Y-11189245D01*
X17943245Y-11189245D01*
X17943245Y-12713245D02*
X17943245Y-12634755D01*
X17864755Y-12634755D01*
X17864755Y-12713245D01*
X17943245Y-12713245D01*
X18197245Y-11189245D02*
X18197245Y-11110755D01*
X18118755Y-11110755D01*
X18118755Y-11189245D01*
X18197245Y-11189245D01*
X18197245Y-12713245D02*
X18197245Y-12634755D01*
X18118755Y-12634755D01*
X18118755Y-12713245D01*
X18197245Y-12713245D01*
X18451245Y-11189245D02*
X18451245Y-11110755D01*
X18372755Y-11110755D01*
X18372755Y-11189245D01*
X18451245Y-11189245D01*
X18451245Y-12713245D02*
X18451245Y-12634755D01*
X18372755Y-12634755D01*
X18372755Y-12713245D01*
X18451245Y-12713245D01*
X18705245Y-11189245D02*
X18705245Y-11110755D01*
X18626755Y-11110755D01*
X18626755Y-11189245D01*
X18705245Y-11189245D01*
X18705245Y-11443245D02*
X18705245Y-11364755D01*
X18626755Y-11364755D01*
X18626755Y-11443245D01*
X18705245Y-11443245D01*
X18705245Y-11697245D02*
X18705245Y-11618755D01*
X18626755Y-11618755D01*
X18626755Y-11697245D01*
X18705245Y-11697245D01*
X18705245Y-11951245D02*
X18705245Y-11872755D01*
X18626755Y-11872755D01*
X18626755Y-11951245D01*
X18705245Y-11951245D01*
X18705245Y-12205245D02*
X18705245Y-12126755D01*
X18626755Y-12126755D01*
X18626755Y-12205245D01*
X18705245Y-12205245D01*
X18705245Y-12459245D02*
X18705245Y-12380755D01*
X18626755Y-12380755D01*
X18626755Y-12459245D01*
X18705245Y-12459245D01*
X18705245Y-12713245D02*
X18705245Y-12634755D01*
X18626755Y-12634755D01*
X18626755Y-12713245D01*
X18705245Y-12713245D01*
X18959245Y-11189245D02*
X18959245Y-11110755D01*
X18880755Y-11110755D01*
X18880755Y-11189245D01*
X18959245Y-11189245D01*
X18959245Y-12713245D02*
X18959245Y-12634755D01*
X18880755Y-12634755D01*
X18880755Y-12713245D01*
X18959245Y-12713245D01*
X19213245Y-11189245D02*
X19213245Y-11110755D01*
X19134755Y-11110755D01*
X19134755Y-11189245D01*
X19213245Y-11189245D01*
X19213245Y-12713245D02*
X19213245Y-12634755D01*
X19134755Y-12634755D01*
X19134755Y-12713245D01*
X19213245Y-12713245D01*
X19467245Y-11189245D02*
X19467245Y-11110755D01*
X19388755Y-11110755D01*
X19388755Y-11189245D01*
X19467245Y-11189245D01*
X19467245Y-12713245D02*
X19467245Y-12634755D01*
X19388755Y-12634755D01*
X19388755Y-12713245D01*
X19467245Y-12713245D01*
X19721245Y-11189245D02*
X19721245Y-11110755D01*
X19642755Y-11110755D01*
X19642755Y-11189245D01*
X19721245Y-11189245D01*
X19721245Y-12713245D02*
X19721245Y-12634755D01*
X19642755Y-12634755D01*
X19642755Y-12713245D01*
X19721245Y-12713245D01*
X19975245Y-11189245D02*
X19975245Y-11110755D01*
X19896755Y-11110755D01*
X19896755Y-11189245D01*
X19975245Y-11189245D01*
X19975245Y-12713245D02*
X19975245Y-12634755D01*
X19896755Y-12634755D01*
X19896755Y-12713245D01*
X19975245Y-12713245D01*
D13*
X9521750Y-8440000D02*
X9586750Y-8375000D01*
X9521750Y-8310000D01*
X9456750Y-8375000D01*
X9521750Y-8440000D01*
X9521750Y-8940000D02*
X9586750Y-8875000D01*
X9521750Y-8810000D01*
X9456750Y-8875000D01*
X9521750Y-8940000D01*
X9521750Y-11040000D02*
X9586750Y-10975000D01*
X9521750Y-10910000D01*
X9456750Y-10975000D01*
X9521750Y-11040000D01*
X9521750Y-11540000D02*
X9586750Y-11475000D01*
X9521750Y-11410000D01*
X9456750Y-11475000D01*
X9521750Y-11540000D01*
X9521750Y-12340000D02*
X9586750Y-12275000D01*
X9521750Y-12210000D01*
X9456750Y-12275000D01*
X9521750Y-12340000D01*
X9521750Y-12840000D02*
X9586750Y-12775000D01*
X9521750Y-12710000D01*
X9456750Y-12775000D01*
X9521750Y-12840000D01*
X9525000Y-9740000D02*
X9590000Y-9675000D01*
X9525000Y-9610000D01*
X9460000Y-9675000D01*
X9525000Y-9740000D01*
X9525000Y-10240000D02*
X9590000Y-10175000D01*
X9525000Y-10110000D01*
X9460000Y-10175000D01*
X9525000Y-10240000D01*
X9550000Y-5265000D02*
X9615000Y-5200000D01*
X9550000Y-5135000D01*
X9485000Y-5200000D01*
X9550000Y-5265000D01*
X9550000Y-5765000D02*
X9615000Y-5700000D01*
X9550000Y-5635000D01*
X9485000Y-5700000D01*
X9550000Y-5765000D01*
X9550000Y-6765000D02*
X9615000Y-6700000D01*
X9550000Y-6635000D01*
X9485000Y-6700000D01*
X9550000Y-6765000D01*
X9550000Y-7265000D02*
X9615000Y-7200000D01*
X9550000Y-7135000D01*
X9485000Y-7200000D01*
X9550000Y-7265000D01*
X10800000Y-4865000D02*
X10865000Y-4800000D01*
X10800000Y-4735000D01*
X10735000Y-4800000D01*
X10800000Y-4865000D01*
X11300000Y-4865000D02*
X11365000Y-4800000D01*
X11300000Y-4735000D01*
X11235000Y-4800000D01*
X11300000Y-4865000D01*
D10*
X8950777Y-13771484D02*
X8950777Y-13571484D01*
X8950777Y-13571484D02*
X8998396Y-13571484D01*
X8998396Y-13571484D02*
X9026967Y-13581008D01*
X9026967Y-13581008D02*
X9046015Y-13600055D01*
X9046015Y-13600055D02*
X9055539Y-13619103D01*
X9055539Y-13619103D02*
X9065063Y-13657198D01*
X9065063Y-13657198D02*
X9065063Y-13685769D01*
X9065063Y-13685769D02*
X9055539Y-13723865D01*
X9055539Y-13723865D02*
X9046015Y-13742912D01*
X9046015Y-13742912D02*
X9026967Y-13761960D01*
X9026967Y-13761960D02*
X8998396Y-13771484D01*
X8998396Y-13771484D02*
X8950777Y-13771484D01*
X9150777Y-13771484D02*
X9150777Y-13638150D01*
X9150777Y-13676246D02*
X9160301Y-13657198D01*
X9160301Y-13657198D02*
X9169824Y-13647674D01*
X9169824Y-13647674D02*
X9188872Y-13638150D01*
X9188872Y-13638150D02*
X9207920Y-13638150D01*
X9274586Y-13771484D02*
X9274586Y-13638150D01*
X9274586Y-13571484D02*
X9265063Y-13581008D01*
X9265063Y-13581008D02*
X9274586Y-13590531D01*
X9274586Y-13590531D02*
X9284110Y-13581008D01*
X9284110Y-13581008D02*
X9274586Y-13571484D01*
X9274586Y-13571484D02*
X9274586Y-13590531D01*
X9398396Y-13771484D02*
X9379348Y-13761960D01*
X9379348Y-13761960D02*
X9369824Y-13742912D01*
X9369824Y-13742912D02*
X9369824Y-13571484D01*
X9503158Y-13771484D02*
X9484110Y-13761960D01*
X9484110Y-13761960D02*
X9474586Y-13742912D01*
X9474586Y-13742912D02*
X9474586Y-13571484D01*
X9731729Y-13771484D02*
X9731729Y-13571484D01*
X9731729Y-13571484D02*
X9798396Y-13714341D01*
X9798396Y-13714341D02*
X9865063Y-13571484D01*
X9865063Y-13571484D02*
X9865063Y-13771484D01*
X10046015Y-13771484D02*
X10046015Y-13666722D01*
X10046015Y-13666722D02*
X10036491Y-13647674D01*
X10036491Y-13647674D02*
X10017444Y-13638150D01*
X10017444Y-13638150D02*
X9979348Y-13638150D01*
X9979348Y-13638150D02*
X9960301Y-13647674D01*
X10046015Y-13761960D02*
X10026967Y-13771484D01*
X10026967Y-13771484D02*
X9979348Y-13771484D01*
X9979348Y-13771484D02*
X9960301Y-13761960D01*
X9960301Y-13761960D02*
X9950777Y-13742912D01*
X9950777Y-13742912D02*
X9950777Y-13723865D01*
X9950777Y-13723865D02*
X9960301Y-13704817D01*
X9960301Y-13704817D02*
X9979348Y-13695293D01*
X9979348Y-13695293D02*
X10026967Y-13695293D01*
X10026967Y-13695293D02*
X10046015Y-13685769D01*
X10141253Y-13638150D02*
X10141253Y-13838150D01*
X10141253Y-13647674D02*
X10160301Y-13638150D01*
X10160301Y-13638150D02*
X10198396Y-13638150D01*
X10198396Y-13638150D02*
X10217444Y-13647674D01*
X10217444Y-13647674D02*
X10226967Y-13657198D01*
X10226967Y-13657198D02*
X10236491Y-13676246D01*
X10236491Y-13676246D02*
X10236491Y-13733388D01*
X10236491Y-13733388D02*
X10226967Y-13752436D01*
X10226967Y-13752436D02*
X10217444Y-13761960D01*
X10217444Y-13761960D02*
X10198396Y-13771484D01*
X10198396Y-13771484D02*
X10160301Y-13771484D01*
X10160301Y-13771484D02*
X10141253Y-13761960D01*
X10322205Y-13752436D02*
X10331729Y-13761960D01*
X10331729Y-13761960D02*
X10322205Y-13771484D01*
X10322205Y-13771484D02*
X10312682Y-13761960D01*
X10312682Y-13761960D02*
X10322205Y-13752436D01*
X10322205Y-13752436D02*
X10322205Y-13771484D01*
X10322205Y-13647674D02*
X10331729Y-13657198D01*
X10331729Y-13657198D02*
X10322205Y-13666722D01*
X10322205Y-13666722D02*
X10312682Y-13657198D01*
X10312682Y-13657198D02*
X10322205Y-13647674D01*
X10322205Y-13647674D02*
X10322205Y-13666722D01*
D11*
X8620000Y-14065000D02*
X8690000Y-14135000D01*
X8690000Y-14065000D02*
X8620000Y-14135000D01*
D10*
X8988872Y-13991484D02*
X9007920Y-13991484D01*
X9007920Y-13991484D02*
X9026967Y-14001008D01*
X9026967Y-14001008D02*
X9036491Y-14010531D01*
X9036491Y-14010531D02*
X9046015Y-14029579D01*
X9046015Y-14029579D02*
X9055539Y-14067674D01*
X9055539Y-14067674D02*
X9055539Y-14115293D01*
X9055539Y-14115293D02*
X9046015Y-14153388D01*
X9046015Y-14153388D02*
X9036491Y-14172436D01*
X9036491Y-14172436D02*
X9026967Y-14181960D01*
X9026967Y-14181960D02*
X9007920Y-14191484D01*
X9007920Y-14191484D02*
X8988872Y-14191484D01*
X8988872Y-14191484D02*
X8969824Y-14181960D01*
X8969824Y-14181960D02*
X8960301Y-14172436D01*
X8960301Y-14172436D02*
X8950777Y-14153388D01*
X8950777Y-14153388D02*
X8941253Y-14115293D01*
X8941253Y-14115293D02*
X8941253Y-14067674D01*
X8941253Y-14067674D02*
X8950777Y-14029579D01*
X8950777Y-14029579D02*
X8960301Y-14010531D01*
X8960301Y-14010531D02*
X8969824Y-14001008D01*
X8969824Y-14001008D02*
X8988872Y-13991484D01*
X9141253Y-14172436D02*
X9150777Y-14181960D01*
X9150777Y-14181960D02*
X9141253Y-14191484D01*
X9141253Y-14191484D02*
X9131729Y-14181960D01*
X9131729Y-14181960D02*
X9141253Y-14172436D01*
X9141253Y-14172436D02*
X9141253Y-14191484D01*
X9217444Y-13991484D02*
X9350777Y-13991484D01*
X9350777Y-13991484D02*
X9265063Y-14191484D01*
X9465063Y-13991484D02*
X9484110Y-13991484D01*
X9484110Y-13991484D02*
X9503158Y-14001008D01*
X9503158Y-14001008D02*
X9512682Y-14010531D01*
X9512682Y-14010531D02*
X9522205Y-14029579D01*
X9522205Y-14029579D02*
X9531729Y-14067674D01*
X9531729Y-14067674D02*
X9531729Y-14115293D01*
X9531729Y-14115293D02*
X9522205Y-14153388D01*
X9522205Y-14153388D02*
X9512682Y-14172436D01*
X9512682Y-14172436D02*
X9503158Y-14181960D01*
X9503158Y-14181960D02*
X9484110Y-14191484D01*
X9484110Y-14191484D02*
X9465063Y-14191484D01*
X9465063Y-14191484D02*
X9446015Y-14181960D01*
X9446015Y-14181960D02*
X9436491Y-14172436D01*
X9436491Y-14172436D02*
X9426967Y-14153388D01*
X9426967Y-14153388D02*
X9417444Y-14115293D01*
X9417444Y-14115293D02*
X9417444Y-14067674D01*
X9417444Y-14067674D02*
X9426967Y-14029579D01*
X9426967Y-14029579D02*
X9436491Y-14010531D01*
X9436491Y-14010531D02*
X9446015Y-14001008D01*
X9446015Y-14001008D02*
X9465063Y-13991484D01*
X9655539Y-13991484D02*
X9674586Y-13991484D01*
X9674586Y-13991484D02*
X9693634Y-14001008D01*
X9693634Y-14001008D02*
X9703158Y-14010531D01*
X9703158Y-14010531D02*
X9712682Y-14029579D01*
X9712682Y-14029579D02*
X9722205Y-14067674D01*
X9722205Y-14067674D02*
X9722205Y-14115293D01*
X9722205Y-14115293D02*
X9712682Y-14153388D01*
X9712682Y-14153388D02*
X9703158Y-14172436D01*
X9703158Y-14172436D02*
X9693634Y-14181960D01*
X9693634Y-14181960D02*
X9674586Y-14191484D01*
X9674586Y-14191484D02*
X9655539Y-14191484D01*
X9655539Y-14191484D02*
X9636491Y-14181960D01*
X9636491Y-14181960D02*
X9626967Y-14172436D01*
X9626967Y-14172436D02*
X9617444Y-14153388D01*
X9617444Y-14153388D02*
X9607920Y-14115293D01*
X9607920Y-14115293D02*
X9607920Y-14067674D01*
X9607920Y-14067674D02*
X9617444Y-14029579D01*
X9617444Y-14029579D02*
X9626967Y-14010531D01*
X9626967Y-14010531D02*
X9636491Y-14001008D01*
X9636491Y-14001008D02*
X9655539Y-13991484D01*
X9807920Y-14191484D02*
X9807920Y-14058150D01*
X9807920Y-14077198D02*
X9817444Y-14067674D01*
X9817444Y-14067674D02*
X9836491Y-14058150D01*
X9836491Y-14058150D02*
X9865063Y-14058150D01*
X9865063Y-14058150D02*
X9884110Y-14067674D01*
X9884110Y-14067674D02*
X9893634Y-14086722D01*
X9893634Y-14086722D02*
X9893634Y-14191484D01*
X9893634Y-14086722D02*
X9903158Y-14067674D01*
X9903158Y-14067674D02*
X9922205Y-14058150D01*
X9922205Y-14058150D02*
X9950777Y-14058150D01*
X9950777Y-14058150D02*
X9969825Y-14067674D01*
X9969825Y-14067674D02*
X9979348Y-14086722D01*
X9979348Y-14086722D02*
X9979348Y-14191484D01*
X10074586Y-14191484D02*
X10074586Y-14058150D01*
X10074586Y-14077198D02*
X10084110Y-14067674D01*
X10084110Y-14067674D02*
X10103158Y-14058150D01*
X10103158Y-14058150D02*
X10131729Y-14058150D01*
X10131729Y-14058150D02*
X10150777Y-14067674D01*
X10150777Y-14067674D02*
X10160301Y-14086722D01*
X10160301Y-14086722D02*
X10160301Y-14191484D01*
X10160301Y-14086722D02*
X10169825Y-14067674D01*
X10169825Y-14067674D02*
X10188872Y-14058150D01*
X10188872Y-14058150D02*
X10217444Y-14058150D01*
X10217444Y-14058150D02*
X10236491Y-14067674D01*
X10236491Y-14067674D02*
X10246015Y-14086722D01*
X10246015Y-14086722D02*
X10246015Y-14191484D01*
X10636491Y-13981960D02*
X10465063Y-14239103D01*
X10893634Y-13991484D02*
X10912682Y-13991484D01*
X10912682Y-13991484D02*
X10931729Y-14001008D01*
X10931729Y-14001008D02*
X10941253Y-14010531D01*
X10941253Y-14010531D02*
X10950777Y-14029579D01*
X10950777Y-14029579D02*
X10960301Y-14067674D01*
X10960301Y-14067674D02*
X10960301Y-14115293D01*
X10960301Y-14115293D02*
X10950777Y-14153388D01*
X10950777Y-14153388D02*
X10941253Y-14172436D01*
X10941253Y-14172436D02*
X10931729Y-14181960D01*
X10931729Y-14181960D02*
X10912682Y-14191484D01*
X10912682Y-14191484D02*
X10893634Y-14191484D01*
X10893634Y-14191484D02*
X10874587Y-14181960D01*
X10874587Y-14181960D02*
X10865063Y-14172436D01*
X10865063Y-14172436D02*
X10855539Y-14153388D01*
X10855539Y-14153388D02*
X10846015Y-14115293D01*
X10846015Y-14115293D02*
X10846015Y-14067674D01*
X10846015Y-14067674D02*
X10855539Y-14029579D01*
X10855539Y-14029579D02*
X10865063Y-14010531D01*
X10865063Y-14010531D02*
X10874587Y-14001008D01*
X10874587Y-14001008D02*
X10893634Y-13991484D01*
X11046015Y-14172436D02*
X11055539Y-14181960D01*
X11055539Y-14181960D02*
X11046015Y-14191484D01*
X11046015Y-14191484D02*
X11036491Y-14181960D01*
X11036491Y-14181960D02*
X11046015Y-14172436D01*
X11046015Y-14172436D02*
X11046015Y-14191484D01*
X11179348Y-13991484D02*
X11198396Y-13991484D01*
X11198396Y-13991484D02*
X11217444Y-14001008D01*
X11217444Y-14001008D02*
X11226967Y-14010531D01*
X11226967Y-14010531D02*
X11236491Y-14029579D01*
X11236491Y-14029579D02*
X11246015Y-14067674D01*
X11246015Y-14067674D02*
X11246015Y-14115293D01*
X11246015Y-14115293D02*
X11236491Y-14153388D01*
X11236491Y-14153388D02*
X11226967Y-14172436D01*
X11226967Y-14172436D02*
X11217444Y-14181960D01*
X11217444Y-14181960D02*
X11198396Y-14191484D01*
X11198396Y-14191484D02*
X11179348Y-14191484D01*
X11179348Y-14191484D02*
X11160301Y-14181960D01*
X11160301Y-14181960D02*
X11150777Y-14172436D01*
X11150777Y-14172436D02*
X11141253Y-14153388D01*
X11141253Y-14153388D02*
X11131729Y-14115293D01*
X11131729Y-14115293D02*
X11131729Y-14067674D01*
X11131729Y-14067674D02*
X11141253Y-14029579D01*
X11141253Y-14029579D02*
X11150777Y-14010531D01*
X11150777Y-14010531D02*
X11160301Y-14001008D01*
X11160301Y-14001008D02*
X11179348Y-13991484D01*
X11322206Y-14010531D02*
X11331729Y-14001008D01*
X11331729Y-14001008D02*
X11350777Y-13991484D01*
X11350777Y-13991484D02*
X11398396Y-13991484D01*
X11398396Y-13991484D02*
X11417444Y-14001008D01*
X11417444Y-14001008D02*
X11426967Y-14010531D01*
X11426967Y-14010531D02*
X11436491Y-14029579D01*
X11436491Y-14029579D02*
X11436491Y-14048627D01*
X11436491Y-14048627D02*
X11426967Y-14077198D01*
X11426967Y-14077198D02*
X11312682Y-14191484D01*
X11312682Y-14191484D02*
X11436491Y-14191484D01*
X11503158Y-13991484D02*
X11636491Y-13991484D01*
X11636491Y-13991484D02*
X11550777Y-14191484D01*
X11798396Y-13991484D02*
X11760301Y-13991484D01*
X11760301Y-13991484D02*
X11741253Y-14001008D01*
X11741253Y-14001008D02*
X11731729Y-14010531D01*
X11731729Y-14010531D02*
X11712682Y-14039103D01*
X11712682Y-14039103D02*
X11703158Y-14077198D01*
X11703158Y-14077198D02*
X11703158Y-14153388D01*
X11703158Y-14153388D02*
X11712682Y-14172436D01*
X11712682Y-14172436D02*
X11722206Y-14181960D01*
X11722206Y-14181960D02*
X11741253Y-14191484D01*
X11741253Y-14191484D02*
X11779348Y-14191484D01*
X11779348Y-14191484D02*
X11798396Y-14181960D01*
X11798396Y-14181960D02*
X11807920Y-14172436D01*
X11807920Y-14172436D02*
X11817444Y-14153388D01*
X11817444Y-14153388D02*
X11817444Y-14105769D01*
X11817444Y-14105769D02*
X11807920Y-14086722D01*
X11807920Y-14086722D02*
X11798396Y-14077198D01*
X11798396Y-14077198D02*
X11779348Y-14067674D01*
X11779348Y-14067674D02*
X11741253Y-14067674D01*
X11741253Y-14067674D02*
X11722206Y-14077198D01*
X11722206Y-14077198D02*
X11712682Y-14086722D01*
X11712682Y-14086722D02*
X11703158Y-14105769D01*
X11893634Y-13991484D02*
X11893634Y-14029579D01*
X11969825Y-13991484D02*
X11969825Y-14029579D01*
X12265063Y-14267674D02*
X12255539Y-14258150D01*
X12255539Y-14258150D02*
X12236491Y-14229579D01*
X12236491Y-14229579D02*
X12226968Y-14210531D01*
X12226968Y-14210531D02*
X12217444Y-14181960D01*
X12217444Y-14181960D02*
X12207920Y-14134341D01*
X12207920Y-14134341D02*
X12207920Y-14096246D01*
X12207920Y-14096246D02*
X12217444Y-14048627D01*
X12217444Y-14048627D02*
X12226968Y-14020055D01*
X12226968Y-14020055D02*
X12236491Y-14001008D01*
X12236491Y-14001008D02*
X12255539Y-13972436D01*
X12255539Y-13972436D02*
X12265063Y-13962912D01*
X12426968Y-13991484D02*
X12388872Y-13991484D01*
X12388872Y-13991484D02*
X12369825Y-14001008D01*
X12369825Y-14001008D02*
X12360301Y-14010531D01*
X12360301Y-14010531D02*
X12341253Y-14039103D01*
X12341253Y-14039103D02*
X12331729Y-14077198D01*
X12331729Y-14077198D02*
X12331729Y-14153388D01*
X12331729Y-14153388D02*
X12341253Y-14172436D01*
X12341253Y-14172436D02*
X12350777Y-14181960D01*
X12350777Y-14181960D02*
X12369825Y-14191484D01*
X12369825Y-14191484D02*
X12407920Y-14191484D01*
X12407920Y-14191484D02*
X12426968Y-14181960D01*
X12426968Y-14181960D02*
X12436491Y-14172436D01*
X12436491Y-14172436D02*
X12446015Y-14153388D01*
X12446015Y-14153388D02*
X12446015Y-14105769D01*
X12446015Y-14105769D02*
X12436491Y-14086722D01*
X12436491Y-14086722D02*
X12426968Y-14077198D01*
X12426968Y-14077198D02*
X12407920Y-14067674D01*
X12407920Y-14067674D02*
X12369825Y-14067674D01*
X12369825Y-14067674D02*
X12350777Y-14077198D01*
X12350777Y-14077198D02*
X12341253Y-14086722D01*
X12341253Y-14086722D02*
X12331729Y-14105769D01*
X12512682Y-13991484D02*
X12636491Y-13991484D01*
X12636491Y-13991484D02*
X12569825Y-14067674D01*
X12569825Y-14067674D02*
X12598396Y-14067674D01*
X12598396Y-14067674D02*
X12617444Y-14077198D01*
X12617444Y-14077198D02*
X12626968Y-14086722D01*
X12626968Y-14086722D02*
X12636491Y-14105769D01*
X12636491Y-14105769D02*
X12636491Y-14153388D01*
X12636491Y-14153388D02*
X12626968Y-14172436D01*
X12626968Y-14172436D02*
X12617444Y-14181960D01*
X12617444Y-14181960D02*
X12598396Y-14191484D01*
X12598396Y-14191484D02*
X12541253Y-14191484D01*
X12541253Y-14191484D02*
X12522206Y-14181960D01*
X12522206Y-14181960D02*
X12512682Y-14172436D01*
X12874587Y-14191484D02*
X12874587Y-13991484D01*
X12960301Y-14191484D02*
X12960301Y-14086722D01*
X12960301Y-14086722D02*
X12950777Y-14067674D01*
X12950777Y-14067674D02*
X12931730Y-14058150D01*
X12931730Y-14058150D02*
X12903158Y-14058150D01*
X12903158Y-14058150D02*
X12884110Y-14067674D01*
X12884110Y-14067674D02*
X12874587Y-14077198D01*
X13084110Y-14191484D02*
X13065063Y-14181960D01*
X13065063Y-14181960D02*
X13055539Y-14172436D01*
X13055539Y-14172436D02*
X13046015Y-14153388D01*
X13046015Y-14153388D02*
X13046015Y-14096246D01*
X13046015Y-14096246D02*
X13055539Y-14077198D01*
X13055539Y-14077198D02*
X13065063Y-14067674D01*
X13065063Y-14067674D02*
X13084110Y-14058150D01*
X13084110Y-14058150D02*
X13112682Y-14058150D01*
X13112682Y-14058150D02*
X13131730Y-14067674D01*
X13131730Y-14067674D02*
X13141253Y-14077198D01*
X13141253Y-14077198D02*
X13150777Y-14096246D01*
X13150777Y-14096246D02*
X13150777Y-14153388D01*
X13150777Y-14153388D02*
X13141253Y-14172436D01*
X13141253Y-14172436D02*
X13131730Y-14181960D01*
X13131730Y-14181960D02*
X13112682Y-14191484D01*
X13112682Y-14191484D02*
X13084110Y-14191484D01*
X13265063Y-14191484D02*
X13246015Y-14181960D01*
X13246015Y-14181960D02*
X13236491Y-14162912D01*
X13236491Y-14162912D02*
X13236491Y-13991484D01*
X13417444Y-14181960D02*
X13398396Y-14191484D01*
X13398396Y-14191484D02*
X13360301Y-14191484D01*
X13360301Y-14191484D02*
X13341253Y-14181960D01*
X13341253Y-14181960D02*
X13331730Y-14162912D01*
X13331730Y-14162912D02*
X13331730Y-14086722D01*
X13331730Y-14086722D02*
X13341253Y-14067674D01*
X13341253Y-14067674D02*
X13360301Y-14058150D01*
X13360301Y-14058150D02*
X13398396Y-14058150D01*
X13398396Y-14058150D02*
X13417444Y-14067674D01*
X13417444Y-14067674D02*
X13426968Y-14086722D01*
X13426968Y-14086722D02*
X13426968Y-14105769D01*
X13426968Y-14105769D02*
X13331730Y-14124817D01*
X13503158Y-14181960D02*
X13522206Y-14191484D01*
X13522206Y-14191484D02*
X13560301Y-14191484D01*
X13560301Y-14191484D02*
X13579349Y-14181960D01*
X13579349Y-14181960D02*
X13588872Y-14162912D01*
X13588872Y-14162912D02*
X13588872Y-14153388D01*
X13588872Y-14153388D02*
X13579349Y-14134341D01*
X13579349Y-14134341D02*
X13560301Y-14124817D01*
X13560301Y-14124817D02*
X13531730Y-14124817D01*
X13531730Y-14124817D02*
X13512682Y-14115293D01*
X13512682Y-14115293D02*
X13503158Y-14096246D01*
X13503158Y-14096246D02*
X13503158Y-14086722D01*
X13503158Y-14086722D02*
X13512682Y-14067674D01*
X13512682Y-14067674D02*
X13531730Y-14058150D01*
X13531730Y-14058150D02*
X13560301Y-14058150D01*
X13560301Y-14058150D02*
X13579349Y-14067674D01*
X13655539Y-14267674D02*
X13665063Y-14258150D01*
X13665063Y-14258150D02*
X13684111Y-14229579D01*
X13684111Y-14229579D02*
X13693634Y-14210531D01*
X13693634Y-14210531D02*
X13703158Y-14181960D01*
X13703158Y-14181960D02*
X13712682Y-14134341D01*
X13712682Y-14134341D02*
X13712682Y-14096246D01*
X13712682Y-14096246D02*
X13703158Y-14048627D01*
X13703158Y-14048627D02*
X13693634Y-14020055D01*
X13693634Y-14020055D02*
X13684111Y-14001008D01*
X13684111Y-14001008D02*
X13665063Y-13972436D01*
X13665063Y-13972436D02*
X13655539Y-13962912D01*
D11*
X8690000Y-14364000D02*
G75*
G02*
X8610000Y-14364000I-40000J0D01*
G01*
X8610000Y-14364000D02*
G75*
G02*
X8690000Y-14364000I40000J0D01*
G01*
D10*
X8988872Y-14255484D02*
X9007920Y-14255484D01*
X9007920Y-14255484D02*
X9026967Y-14265008D01*
X9026967Y-14265008D02*
X9036491Y-14274531D01*
X9036491Y-14274531D02*
X9046015Y-14293579D01*
X9046015Y-14293579D02*
X9055539Y-14331674D01*
X9055539Y-14331674D02*
X9055539Y-14379293D01*
X9055539Y-14379293D02*
X9046015Y-14417388D01*
X9046015Y-14417388D02*
X9036491Y-14436436D01*
X9036491Y-14436436D02*
X9026967Y-14445960D01*
X9026967Y-14445960D02*
X9007920Y-14455484D01*
X9007920Y-14455484D02*
X8988872Y-14455484D01*
X8988872Y-14455484D02*
X8969824Y-14445960D01*
X8969824Y-14445960D02*
X8960301Y-14436436D01*
X8960301Y-14436436D02*
X8950777Y-14417388D01*
X8950777Y-14417388D02*
X8941253Y-14379293D01*
X8941253Y-14379293D02*
X8941253Y-14331674D01*
X8941253Y-14331674D02*
X8950777Y-14293579D01*
X8950777Y-14293579D02*
X8960301Y-14274531D01*
X8960301Y-14274531D02*
X8969824Y-14265008D01*
X8969824Y-14265008D02*
X8988872Y-14255484D01*
X9141253Y-14436436D02*
X9150777Y-14445960D01*
X9150777Y-14445960D02*
X9141253Y-14455484D01*
X9141253Y-14455484D02*
X9131729Y-14445960D01*
X9131729Y-14445960D02*
X9141253Y-14436436D01*
X9141253Y-14436436D02*
X9141253Y-14455484D01*
X9265063Y-14341198D02*
X9246015Y-14331674D01*
X9246015Y-14331674D02*
X9236491Y-14322150D01*
X9236491Y-14322150D02*
X9226967Y-14303103D01*
X9226967Y-14303103D02*
X9226967Y-14293579D01*
X9226967Y-14293579D02*
X9236491Y-14274531D01*
X9236491Y-14274531D02*
X9246015Y-14265008D01*
X9246015Y-14265008D02*
X9265063Y-14255484D01*
X9265063Y-14255484D02*
X9303158Y-14255484D01*
X9303158Y-14255484D02*
X9322205Y-14265008D01*
X9322205Y-14265008D02*
X9331729Y-14274531D01*
X9331729Y-14274531D02*
X9341253Y-14293579D01*
X9341253Y-14293579D02*
X9341253Y-14303103D01*
X9341253Y-14303103D02*
X9331729Y-14322150D01*
X9331729Y-14322150D02*
X9322205Y-14331674D01*
X9322205Y-14331674D02*
X9303158Y-14341198D01*
X9303158Y-14341198D02*
X9265063Y-14341198D01*
X9265063Y-14341198D02*
X9246015Y-14350722D01*
X9246015Y-14350722D02*
X9236491Y-14360246D01*
X9236491Y-14360246D02*
X9226967Y-14379293D01*
X9226967Y-14379293D02*
X9226967Y-14417388D01*
X9226967Y-14417388D02*
X9236491Y-14436436D01*
X9236491Y-14436436D02*
X9246015Y-14445960D01*
X9246015Y-14445960D02*
X9265063Y-14455484D01*
X9265063Y-14455484D02*
X9303158Y-14455484D01*
X9303158Y-14455484D02*
X9322205Y-14445960D01*
X9322205Y-14445960D02*
X9331729Y-14436436D01*
X9331729Y-14436436D02*
X9341253Y-14417388D01*
X9341253Y-14417388D02*
X9341253Y-14379293D01*
X9341253Y-14379293D02*
X9331729Y-14360246D01*
X9331729Y-14360246D02*
X9322205Y-14350722D01*
X9322205Y-14350722D02*
X9303158Y-14341198D01*
X9465063Y-14255484D02*
X9484110Y-14255484D01*
X9484110Y-14255484D02*
X9503158Y-14265008D01*
X9503158Y-14265008D02*
X9512682Y-14274531D01*
X9512682Y-14274531D02*
X9522205Y-14293579D01*
X9522205Y-14293579D02*
X9531729Y-14331674D01*
X9531729Y-14331674D02*
X9531729Y-14379293D01*
X9531729Y-14379293D02*
X9522205Y-14417388D01*
X9522205Y-14417388D02*
X9512682Y-14436436D01*
X9512682Y-14436436D02*
X9503158Y-14445960D01*
X9503158Y-14445960D02*
X9484110Y-14455484D01*
X9484110Y-14455484D02*
X9465063Y-14455484D01*
X9465063Y-14455484D02*
X9446015Y-14445960D01*
X9446015Y-14445960D02*
X9436491Y-14436436D01*
X9436491Y-14436436D02*
X9426967Y-14417388D01*
X9426967Y-14417388D02*
X9417444Y-14379293D01*
X9417444Y-14379293D02*
X9417444Y-14331674D01*
X9417444Y-14331674D02*
X9426967Y-14293579D01*
X9426967Y-14293579D02*
X9436491Y-14274531D01*
X9436491Y-14274531D02*
X9446015Y-14265008D01*
X9446015Y-14265008D02*
X9465063Y-14255484D01*
X9655539Y-14255484D02*
X9674586Y-14255484D01*
X9674586Y-14255484D02*
X9693634Y-14265008D01*
X9693634Y-14265008D02*
X9703158Y-14274531D01*
X9703158Y-14274531D02*
X9712682Y-14293579D01*
X9712682Y-14293579D02*
X9722205Y-14331674D01*
X9722205Y-14331674D02*
X9722205Y-14379293D01*
X9722205Y-14379293D02*
X9712682Y-14417388D01*
X9712682Y-14417388D02*
X9703158Y-14436436D01*
X9703158Y-14436436D02*
X9693634Y-14445960D01*
X9693634Y-14445960D02*
X9674586Y-14455484D01*
X9674586Y-14455484D02*
X9655539Y-14455484D01*
X9655539Y-14455484D02*
X9636491Y-14445960D01*
X9636491Y-14445960D02*
X9626967Y-14436436D01*
X9626967Y-14436436D02*
X9617444Y-14417388D01*
X9617444Y-14417388D02*
X9607920Y-14379293D01*
X9607920Y-14379293D02*
X9607920Y-14331674D01*
X9607920Y-14331674D02*
X9617444Y-14293579D01*
X9617444Y-14293579D02*
X9626967Y-14274531D01*
X9626967Y-14274531D02*
X9636491Y-14265008D01*
X9636491Y-14265008D02*
X9655539Y-14255484D01*
X9807920Y-14455484D02*
X9807920Y-14322150D01*
X9807920Y-14341198D02*
X9817444Y-14331674D01*
X9817444Y-14331674D02*
X9836491Y-14322150D01*
X9836491Y-14322150D02*
X9865063Y-14322150D01*
X9865063Y-14322150D02*
X9884110Y-14331674D01*
X9884110Y-14331674D02*
X9893634Y-14350722D01*
X9893634Y-14350722D02*
X9893634Y-14455484D01*
X9893634Y-14350722D02*
X9903158Y-14331674D01*
X9903158Y-14331674D02*
X9922205Y-14322150D01*
X9922205Y-14322150D02*
X9950777Y-14322150D01*
X9950777Y-14322150D02*
X9969825Y-14331674D01*
X9969825Y-14331674D02*
X9979348Y-14350722D01*
X9979348Y-14350722D02*
X9979348Y-14455484D01*
X10074586Y-14455484D02*
X10074586Y-14322150D01*
X10074586Y-14341198D02*
X10084110Y-14331674D01*
X10084110Y-14331674D02*
X10103158Y-14322150D01*
X10103158Y-14322150D02*
X10131729Y-14322150D01*
X10131729Y-14322150D02*
X10150777Y-14331674D01*
X10150777Y-14331674D02*
X10160301Y-14350722D01*
X10160301Y-14350722D02*
X10160301Y-14455484D01*
X10160301Y-14350722D02*
X10169825Y-14331674D01*
X10169825Y-14331674D02*
X10188872Y-14322150D01*
X10188872Y-14322150D02*
X10217444Y-14322150D01*
X10217444Y-14322150D02*
X10236491Y-14331674D01*
X10236491Y-14331674D02*
X10246015Y-14350722D01*
X10246015Y-14350722D02*
X10246015Y-14455484D01*
X10636491Y-14245960D02*
X10465063Y-14503103D01*
X10893634Y-14255484D02*
X10912682Y-14255484D01*
X10912682Y-14255484D02*
X10931729Y-14265008D01*
X10931729Y-14265008D02*
X10941253Y-14274531D01*
X10941253Y-14274531D02*
X10950777Y-14293579D01*
X10950777Y-14293579D02*
X10960301Y-14331674D01*
X10960301Y-14331674D02*
X10960301Y-14379293D01*
X10960301Y-14379293D02*
X10950777Y-14417388D01*
X10950777Y-14417388D02*
X10941253Y-14436436D01*
X10941253Y-14436436D02*
X10931729Y-14445960D01*
X10931729Y-14445960D02*
X10912682Y-14455484D01*
X10912682Y-14455484D02*
X10893634Y-14455484D01*
X10893634Y-14455484D02*
X10874587Y-14445960D01*
X10874587Y-14445960D02*
X10865063Y-14436436D01*
X10865063Y-14436436D02*
X10855539Y-14417388D01*
X10855539Y-14417388D02*
X10846015Y-14379293D01*
X10846015Y-14379293D02*
X10846015Y-14331674D01*
X10846015Y-14331674D02*
X10855539Y-14293579D01*
X10855539Y-14293579D02*
X10865063Y-14274531D01*
X10865063Y-14274531D02*
X10874587Y-14265008D01*
X10874587Y-14265008D02*
X10893634Y-14255484D01*
X11046015Y-14436436D02*
X11055539Y-14445960D01*
X11055539Y-14445960D02*
X11046015Y-14455484D01*
X11046015Y-14455484D02*
X11036491Y-14445960D01*
X11036491Y-14445960D02*
X11046015Y-14436436D01*
X11046015Y-14436436D02*
X11046015Y-14455484D01*
X11179348Y-14255484D02*
X11198396Y-14255484D01*
X11198396Y-14255484D02*
X11217444Y-14265008D01*
X11217444Y-14265008D02*
X11226967Y-14274531D01*
X11226967Y-14274531D02*
X11236491Y-14293579D01*
X11236491Y-14293579D02*
X11246015Y-14331674D01*
X11246015Y-14331674D02*
X11246015Y-14379293D01*
X11246015Y-14379293D02*
X11236491Y-14417388D01*
X11236491Y-14417388D02*
X11226967Y-14436436D01*
X11226967Y-14436436D02*
X11217444Y-14445960D01*
X11217444Y-14445960D02*
X11198396Y-14455484D01*
X11198396Y-14455484D02*
X11179348Y-14455484D01*
X11179348Y-14455484D02*
X11160301Y-14445960D01*
X11160301Y-14445960D02*
X11150777Y-14436436D01*
X11150777Y-14436436D02*
X11141253Y-14417388D01*
X11141253Y-14417388D02*
X11131729Y-14379293D01*
X11131729Y-14379293D02*
X11131729Y-14331674D01*
X11131729Y-14331674D02*
X11141253Y-14293579D01*
X11141253Y-14293579D02*
X11150777Y-14274531D01*
X11150777Y-14274531D02*
X11160301Y-14265008D01*
X11160301Y-14265008D02*
X11179348Y-14255484D01*
X11312682Y-14255484D02*
X11436491Y-14255484D01*
X11436491Y-14255484D02*
X11369825Y-14331674D01*
X11369825Y-14331674D02*
X11398396Y-14331674D01*
X11398396Y-14331674D02*
X11417444Y-14341198D01*
X11417444Y-14341198D02*
X11426967Y-14350722D01*
X11426967Y-14350722D02*
X11436491Y-14369769D01*
X11436491Y-14369769D02*
X11436491Y-14417388D01*
X11436491Y-14417388D02*
X11426967Y-14436436D01*
X11426967Y-14436436D02*
X11417444Y-14445960D01*
X11417444Y-14445960D02*
X11398396Y-14455484D01*
X11398396Y-14455484D02*
X11341253Y-14455484D01*
X11341253Y-14455484D02*
X11322206Y-14445960D01*
X11322206Y-14445960D02*
X11312682Y-14436436D01*
X11626967Y-14455484D02*
X11512682Y-14455484D01*
X11569825Y-14455484D02*
X11569825Y-14255484D01*
X11569825Y-14255484D02*
X11550777Y-14284055D01*
X11550777Y-14284055D02*
X11531729Y-14303103D01*
X11531729Y-14303103D02*
X11512682Y-14312627D01*
X11807920Y-14255484D02*
X11712682Y-14255484D01*
X11712682Y-14255484D02*
X11703158Y-14350722D01*
X11703158Y-14350722D02*
X11712682Y-14341198D01*
X11712682Y-14341198D02*
X11731729Y-14331674D01*
X11731729Y-14331674D02*
X11779348Y-14331674D01*
X11779348Y-14331674D02*
X11798396Y-14341198D01*
X11798396Y-14341198D02*
X11807920Y-14350722D01*
X11807920Y-14350722D02*
X11817444Y-14369769D01*
X11817444Y-14369769D02*
X11817444Y-14417388D01*
X11817444Y-14417388D02*
X11807920Y-14436436D01*
X11807920Y-14436436D02*
X11798396Y-14445960D01*
X11798396Y-14445960D02*
X11779348Y-14455484D01*
X11779348Y-14455484D02*
X11731729Y-14455484D01*
X11731729Y-14455484D02*
X11712682Y-14445960D01*
X11712682Y-14445960D02*
X11703158Y-14436436D01*
X11893634Y-14255484D02*
X11893634Y-14293579D01*
X11969825Y-14255484D02*
X11969825Y-14293579D01*
X12265063Y-14531674D02*
X12255539Y-14522150D01*
X12255539Y-14522150D02*
X12236491Y-14493579D01*
X12236491Y-14493579D02*
X12226968Y-14474531D01*
X12226968Y-14474531D02*
X12217444Y-14445960D01*
X12217444Y-14445960D02*
X12207920Y-14398341D01*
X12207920Y-14398341D02*
X12207920Y-14360246D01*
X12207920Y-14360246D02*
X12217444Y-14312627D01*
X12217444Y-14312627D02*
X12226968Y-14284055D01*
X12226968Y-14284055D02*
X12236491Y-14265008D01*
X12236491Y-14265008D02*
X12255539Y-14236436D01*
X12255539Y-14236436D02*
X12265063Y-14226912D01*
X12436491Y-14255484D02*
X12341253Y-14255484D01*
X12341253Y-14255484D02*
X12331729Y-14350722D01*
X12331729Y-14350722D02*
X12341253Y-14341198D01*
X12341253Y-14341198D02*
X12360301Y-14331674D01*
X12360301Y-14331674D02*
X12407920Y-14331674D01*
X12407920Y-14331674D02*
X12426968Y-14341198D01*
X12426968Y-14341198D02*
X12436491Y-14350722D01*
X12436491Y-14350722D02*
X12446015Y-14369769D01*
X12446015Y-14369769D02*
X12446015Y-14417388D01*
X12446015Y-14417388D02*
X12436491Y-14436436D01*
X12436491Y-14436436D02*
X12426968Y-14445960D01*
X12426968Y-14445960D02*
X12407920Y-14455484D01*
X12407920Y-14455484D02*
X12360301Y-14455484D01*
X12360301Y-14455484D02*
X12341253Y-14445960D01*
X12341253Y-14445960D02*
X12331729Y-14436436D01*
X12560301Y-14341198D02*
X12541253Y-14331674D01*
X12541253Y-14331674D02*
X12531729Y-14322150D01*
X12531729Y-14322150D02*
X12522206Y-14303103D01*
X12522206Y-14303103D02*
X12522206Y-14293579D01*
X12522206Y-14293579D02*
X12531729Y-14274531D01*
X12531729Y-14274531D02*
X12541253Y-14265008D01*
X12541253Y-14265008D02*
X12560301Y-14255484D01*
X12560301Y-14255484D02*
X12598396Y-14255484D01*
X12598396Y-14255484D02*
X12617444Y-14265008D01*
X12617444Y-14265008D02*
X12626968Y-14274531D01*
X12626968Y-14274531D02*
X12636491Y-14293579D01*
X12636491Y-14293579D02*
X12636491Y-14303103D01*
X12636491Y-14303103D02*
X12626968Y-14322150D01*
X12626968Y-14322150D02*
X12617444Y-14331674D01*
X12617444Y-14331674D02*
X12598396Y-14341198D01*
X12598396Y-14341198D02*
X12560301Y-14341198D01*
X12560301Y-14341198D02*
X12541253Y-14350722D01*
X12541253Y-14350722D02*
X12531729Y-14360246D01*
X12531729Y-14360246D02*
X12522206Y-14379293D01*
X12522206Y-14379293D02*
X12522206Y-14417388D01*
X12522206Y-14417388D02*
X12531729Y-14436436D01*
X12531729Y-14436436D02*
X12541253Y-14445960D01*
X12541253Y-14445960D02*
X12560301Y-14455484D01*
X12560301Y-14455484D02*
X12598396Y-14455484D01*
X12598396Y-14455484D02*
X12617444Y-14445960D01*
X12617444Y-14445960D02*
X12626968Y-14436436D01*
X12626968Y-14436436D02*
X12636491Y-14417388D01*
X12636491Y-14417388D02*
X12636491Y-14379293D01*
X12636491Y-14379293D02*
X12626968Y-14360246D01*
X12626968Y-14360246D02*
X12617444Y-14350722D01*
X12617444Y-14350722D02*
X12598396Y-14341198D01*
X12874587Y-14455484D02*
X12874587Y-14255484D01*
X12960301Y-14455484D02*
X12960301Y-14350722D01*
X12960301Y-14350722D02*
X12950777Y-14331674D01*
X12950777Y-14331674D02*
X12931730Y-14322150D01*
X12931730Y-14322150D02*
X12903158Y-14322150D01*
X12903158Y-14322150D02*
X12884110Y-14331674D01*
X12884110Y-14331674D02*
X12874587Y-14341198D01*
X13084110Y-14455484D02*
X13065063Y-14445960D01*
X13065063Y-14445960D02*
X13055539Y-14436436D01*
X13055539Y-14436436D02*
X13046015Y-14417388D01*
X13046015Y-14417388D02*
X13046015Y-14360246D01*
X13046015Y-14360246D02*
X13055539Y-14341198D01*
X13055539Y-14341198D02*
X13065063Y-14331674D01*
X13065063Y-14331674D02*
X13084110Y-14322150D01*
X13084110Y-14322150D02*
X13112682Y-14322150D01*
X13112682Y-14322150D02*
X13131730Y-14331674D01*
X13131730Y-14331674D02*
X13141253Y-14341198D01*
X13141253Y-14341198D02*
X13150777Y-14360246D01*
X13150777Y-14360246D02*
X13150777Y-14417388D01*
X13150777Y-14417388D02*
X13141253Y-14436436D01*
X13141253Y-14436436D02*
X13131730Y-14445960D01*
X13131730Y-14445960D02*
X13112682Y-14455484D01*
X13112682Y-14455484D02*
X13084110Y-14455484D01*
X13265063Y-14455484D02*
X13246015Y-14445960D01*
X13246015Y-14445960D02*
X13236491Y-14426912D01*
X13236491Y-14426912D02*
X13236491Y-14255484D01*
X13417444Y-14445960D02*
X13398396Y-14455484D01*
X13398396Y-14455484D02*
X13360301Y-14455484D01*
X13360301Y-14455484D02*
X13341253Y-14445960D01*
X13341253Y-14445960D02*
X13331730Y-14426912D01*
X13331730Y-14426912D02*
X13331730Y-14350722D01*
X13331730Y-14350722D02*
X13341253Y-14331674D01*
X13341253Y-14331674D02*
X13360301Y-14322150D01*
X13360301Y-14322150D02*
X13398396Y-14322150D01*
X13398396Y-14322150D02*
X13417444Y-14331674D01*
X13417444Y-14331674D02*
X13426968Y-14350722D01*
X13426968Y-14350722D02*
X13426968Y-14369769D01*
X13426968Y-14369769D02*
X13331730Y-14388817D01*
X13503158Y-14445960D02*
X13522206Y-14455484D01*
X13522206Y-14455484D02*
X13560301Y-14455484D01*
X13560301Y-14455484D02*
X13579349Y-14445960D01*
X13579349Y-14445960D02*
X13588872Y-14426912D01*
X13588872Y-14426912D02*
X13588872Y-14417388D01*
X13588872Y-14417388D02*
X13579349Y-14398341D01*
X13579349Y-14398341D02*
X13560301Y-14388817D01*
X13560301Y-14388817D02*
X13531730Y-14388817D01*
X13531730Y-14388817D02*
X13512682Y-14379293D01*
X13512682Y-14379293D02*
X13503158Y-14360246D01*
X13503158Y-14360246D02*
X13503158Y-14350722D01*
X13503158Y-14350722D02*
X13512682Y-14331674D01*
X13512682Y-14331674D02*
X13531730Y-14322150D01*
X13531730Y-14322150D02*
X13560301Y-14322150D01*
X13560301Y-14322150D02*
X13579349Y-14331674D01*
X13655539Y-14531674D02*
X13665063Y-14522150D01*
X13665063Y-14522150D02*
X13684111Y-14493579D01*
X13684111Y-14493579D02*
X13693634Y-14474531D01*
X13693634Y-14474531D02*
X13703158Y-14445960D01*
X13703158Y-14445960D02*
X13712682Y-14398341D01*
X13712682Y-14398341D02*
X13712682Y-14360246D01*
X13712682Y-14360246D02*
X13703158Y-14312627D01*
X13703158Y-14312627D02*
X13693634Y-14284055D01*
X13693634Y-14284055D02*
X13684111Y-14265008D01*
X13684111Y-14265008D02*
X13665063Y-14236436D01*
X13665063Y-14236436D02*
X13655539Y-14226912D01*
D11*
X8640000Y-14578000D02*
X8640000Y-14678000D01*
X8590000Y-14628000D02*
X8690000Y-14628000D01*
D10*
X9055539Y-14719484D02*
X8941253Y-14719484D01*
X8998396Y-14719484D02*
X8998396Y-14519484D01*
X8998396Y-14519484D02*
X8979348Y-14548055D01*
X8979348Y-14548055D02*
X8960301Y-14567103D01*
X8960301Y-14567103D02*
X8941253Y-14576627D01*
X9141253Y-14700436D02*
X9150777Y-14709960D01*
X9150777Y-14709960D02*
X9141253Y-14719484D01*
X9141253Y-14719484D02*
X9131729Y-14709960D01*
X9131729Y-14709960D02*
X9141253Y-14700436D01*
X9141253Y-14700436D02*
X9141253Y-14719484D01*
X9274586Y-14519484D02*
X9293634Y-14519484D01*
X9293634Y-14519484D02*
X9312682Y-14529008D01*
X9312682Y-14529008D02*
X9322205Y-14538531D01*
X9322205Y-14538531D02*
X9331729Y-14557579D01*
X9331729Y-14557579D02*
X9341253Y-14595674D01*
X9341253Y-14595674D02*
X9341253Y-14643293D01*
X9341253Y-14643293D02*
X9331729Y-14681388D01*
X9331729Y-14681388D02*
X9322205Y-14700436D01*
X9322205Y-14700436D02*
X9312682Y-14709960D01*
X9312682Y-14709960D02*
X9293634Y-14719484D01*
X9293634Y-14719484D02*
X9274586Y-14719484D01*
X9274586Y-14719484D02*
X9255539Y-14709960D01*
X9255539Y-14709960D02*
X9246015Y-14700436D01*
X9246015Y-14700436D02*
X9236491Y-14681388D01*
X9236491Y-14681388D02*
X9226967Y-14643293D01*
X9226967Y-14643293D02*
X9226967Y-14595674D01*
X9226967Y-14595674D02*
X9236491Y-14557579D01*
X9236491Y-14557579D02*
X9246015Y-14538531D01*
X9246015Y-14538531D02*
X9255539Y-14529008D01*
X9255539Y-14529008D02*
X9274586Y-14519484D01*
X9465063Y-14519484D02*
X9484110Y-14519484D01*
X9484110Y-14519484D02*
X9503158Y-14529008D01*
X9503158Y-14529008D02*
X9512682Y-14538531D01*
X9512682Y-14538531D02*
X9522205Y-14557579D01*
X9522205Y-14557579D02*
X9531729Y-14595674D01*
X9531729Y-14595674D02*
X9531729Y-14643293D01*
X9531729Y-14643293D02*
X9522205Y-14681388D01*
X9522205Y-14681388D02*
X9512682Y-14700436D01*
X9512682Y-14700436D02*
X9503158Y-14709960D01*
X9503158Y-14709960D02*
X9484110Y-14719484D01*
X9484110Y-14719484D02*
X9465063Y-14719484D01*
X9465063Y-14719484D02*
X9446015Y-14709960D01*
X9446015Y-14709960D02*
X9436491Y-14700436D01*
X9436491Y-14700436D02*
X9426967Y-14681388D01*
X9426967Y-14681388D02*
X9417444Y-14643293D01*
X9417444Y-14643293D02*
X9417444Y-14595674D01*
X9417444Y-14595674D02*
X9426967Y-14557579D01*
X9426967Y-14557579D02*
X9436491Y-14538531D01*
X9436491Y-14538531D02*
X9446015Y-14529008D01*
X9446015Y-14529008D02*
X9465063Y-14519484D01*
X9655539Y-14519484D02*
X9674586Y-14519484D01*
X9674586Y-14519484D02*
X9693634Y-14529008D01*
X9693634Y-14529008D02*
X9703158Y-14538531D01*
X9703158Y-14538531D02*
X9712682Y-14557579D01*
X9712682Y-14557579D02*
X9722205Y-14595674D01*
X9722205Y-14595674D02*
X9722205Y-14643293D01*
X9722205Y-14643293D02*
X9712682Y-14681388D01*
X9712682Y-14681388D02*
X9703158Y-14700436D01*
X9703158Y-14700436D02*
X9693634Y-14709960D01*
X9693634Y-14709960D02*
X9674586Y-14719484D01*
X9674586Y-14719484D02*
X9655539Y-14719484D01*
X9655539Y-14719484D02*
X9636491Y-14709960D01*
X9636491Y-14709960D02*
X9626967Y-14700436D01*
X9626967Y-14700436D02*
X9617444Y-14681388D01*
X9617444Y-14681388D02*
X9607920Y-14643293D01*
X9607920Y-14643293D02*
X9607920Y-14595674D01*
X9607920Y-14595674D02*
X9617444Y-14557579D01*
X9617444Y-14557579D02*
X9626967Y-14538531D01*
X9626967Y-14538531D02*
X9636491Y-14529008D01*
X9636491Y-14529008D02*
X9655539Y-14519484D01*
X9807920Y-14719484D02*
X9807920Y-14586150D01*
X9807920Y-14605198D02*
X9817444Y-14595674D01*
X9817444Y-14595674D02*
X9836491Y-14586150D01*
X9836491Y-14586150D02*
X9865063Y-14586150D01*
X9865063Y-14586150D02*
X9884110Y-14595674D01*
X9884110Y-14595674D02*
X9893634Y-14614722D01*
X9893634Y-14614722D02*
X9893634Y-14719484D01*
X9893634Y-14614722D02*
X9903158Y-14595674D01*
X9903158Y-14595674D02*
X9922205Y-14586150D01*
X9922205Y-14586150D02*
X9950777Y-14586150D01*
X9950777Y-14586150D02*
X9969825Y-14595674D01*
X9969825Y-14595674D02*
X9979348Y-14614722D01*
X9979348Y-14614722D02*
X9979348Y-14719484D01*
X10074586Y-14719484D02*
X10074586Y-14586150D01*
X10074586Y-14605198D02*
X10084110Y-14595674D01*
X10084110Y-14595674D02*
X10103158Y-14586150D01*
X10103158Y-14586150D02*
X10131729Y-14586150D01*
X10131729Y-14586150D02*
X10150777Y-14595674D01*
X10150777Y-14595674D02*
X10160301Y-14614722D01*
X10160301Y-14614722D02*
X10160301Y-14719484D01*
X10160301Y-14614722D02*
X10169825Y-14595674D01*
X10169825Y-14595674D02*
X10188872Y-14586150D01*
X10188872Y-14586150D02*
X10217444Y-14586150D01*
X10217444Y-14586150D02*
X10236491Y-14595674D01*
X10236491Y-14595674D02*
X10246015Y-14614722D01*
X10246015Y-14614722D02*
X10246015Y-14719484D01*
X10636491Y-14509960D02*
X10465063Y-14767103D01*
X10893634Y-14519484D02*
X10912682Y-14519484D01*
X10912682Y-14519484D02*
X10931729Y-14529008D01*
X10931729Y-14529008D02*
X10941253Y-14538531D01*
X10941253Y-14538531D02*
X10950777Y-14557579D01*
X10950777Y-14557579D02*
X10960301Y-14595674D01*
X10960301Y-14595674D02*
X10960301Y-14643293D01*
X10960301Y-14643293D02*
X10950777Y-14681388D01*
X10950777Y-14681388D02*
X10941253Y-14700436D01*
X10941253Y-14700436D02*
X10931729Y-14709960D01*
X10931729Y-14709960D02*
X10912682Y-14719484D01*
X10912682Y-14719484D02*
X10893634Y-14719484D01*
X10893634Y-14719484D02*
X10874587Y-14709960D01*
X10874587Y-14709960D02*
X10865063Y-14700436D01*
X10865063Y-14700436D02*
X10855539Y-14681388D01*
X10855539Y-14681388D02*
X10846015Y-14643293D01*
X10846015Y-14643293D02*
X10846015Y-14595674D01*
X10846015Y-14595674D02*
X10855539Y-14557579D01*
X10855539Y-14557579D02*
X10865063Y-14538531D01*
X10865063Y-14538531D02*
X10874587Y-14529008D01*
X10874587Y-14529008D02*
X10893634Y-14519484D01*
X11046015Y-14700436D02*
X11055539Y-14709960D01*
X11055539Y-14709960D02*
X11046015Y-14719484D01*
X11046015Y-14719484D02*
X11036491Y-14709960D01*
X11036491Y-14709960D02*
X11046015Y-14700436D01*
X11046015Y-14700436D02*
X11046015Y-14719484D01*
X11179348Y-14519484D02*
X11198396Y-14519484D01*
X11198396Y-14519484D02*
X11217444Y-14529008D01*
X11217444Y-14529008D02*
X11226967Y-14538531D01*
X11226967Y-14538531D02*
X11236491Y-14557579D01*
X11236491Y-14557579D02*
X11246015Y-14595674D01*
X11246015Y-14595674D02*
X11246015Y-14643293D01*
X11246015Y-14643293D02*
X11236491Y-14681388D01*
X11236491Y-14681388D02*
X11226967Y-14700436D01*
X11226967Y-14700436D02*
X11217444Y-14709960D01*
X11217444Y-14709960D02*
X11198396Y-14719484D01*
X11198396Y-14719484D02*
X11179348Y-14719484D01*
X11179348Y-14719484D02*
X11160301Y-14709960D01*
X11160301Y-14709960D02*
X11150777Y-14700436D01*
X11150777Y-14700436D02*
X11141253Y-14681388D01*
X11141253Y-14681388D02*
X11131729Y-14643293D01*
X11131729Y-14643293D02*
X11131729Y-14595674D01*
X11131729Y-14595674D02*
X11141253Y-14557579D01*
X11141253Y-14557579D02*
X11150777Y-14538531D01*
X11150777Y-14538531D02*
X11160301Y-14529008D01*
X11160301Y-14529008D02*
X11179348Y-14519484D01*
X11312682Y-14519484D02*
X11436491Y-14519484D01*
X11436491Y-14519484D02*
X11369825Y-14595674D01*
X11369825Y-14595674D02*
X11398396Y-14595674D01*
X11398396Y-14595674D02*
X11417444Y-14605198D01*
X11417444Y-14605198D02*
X11426967Y-14614722D01*
X11426967Y-14614722D02*
X11436491Y-14633769D01*
X11436491Y-14633769D02*
X11436491Y-14681388D01*
X11436491Y-14681388D02*
X11426967Y-14700436D01*
X11426967Y-14700436D02*
X11417444Y-14709960D01*
X11417444Y-14709960D02*
X11398396Y-14719484D01*
X11398396Y-14719484D02*
X11341253Y-14719484D01*
X11341253Y-14719484D02*
X11322206Y-14709960D01*
X11322206Y-14709960D02*
X11312682Y-14700436D01*
X11531729Y-14719484D02*
X11569825Y-14719484D01*
X11569825Y-14719484D02*
X11588872Y-14709960D01*
X11588872Y-14709960D02*
X11598396Y-14700436D01*
X11598396Y-14700436D02*
X11617444Y-14671865D01*
X11617444Y-14671865D02*
X11626967Y-14633769D01*
X11626967Y-14633769D02*
X11626967Y-14557579D01*
X11626967Y-14557579D02*
X11617444Y-14538531D01*
X11617444Y-14538531D02*
X11607920Y-14529008D01*
X11607920Y-14529008D02*
X11588872Y-14519484D01*
X11588872Y-14519484D02*
X11550777Y-14519484D01*
X11550777Y-14519484D02*
X11531729Y-14529008D01*
X11531729Y-14529008D02*
X11522206Y-14538531D01*
X11522206Y-14538531D02*
X11512682Y-14557579D01*
X11512682Y-14557579D02*
X11512682Y-14605198D01*
X11512682Y-14605198D02*
X11522206Y-14624246D01*
X11522206Y-14624246D02*
X11531729Y-14633769D01*
X11531729Y-14633769D02*
X11550777Y-14643293D01*
X11550777Y-14643293D02*
X11588872Y-14643293D01*
X11588872Y-14643293D02*
X11607920Y-14633769D01*
X11607920Y-14633769D02*
X11617444Y-14624246D01*
X11617444Y-14624246D02*
X11626967Y-14605198D01*
X11798396Y-14586150D02*
X11798396Y-14719484D01*
X11750777Y-14509960D02*
X11703158Y-14652817D01*
X11703158Y-14652817D02*
X11826967Y-14652817D01*
X11893634Y-14519484D02*
X11893634Y-14557579D01*
X11969825Y-14519484D02*
X11969825Y-14557579D01*
X12265063Y-14795674D02*
X12255539Y-14786150D01*
X12255539Y-14786150D02*
X12236491Y-14757579D01*
X12236491Y-14757579D02*
X12226968Y-14738531D01*
X12226968Y-14738531D02*
X12217444Y-14709960D01*
X12217444Y-14709960D02*
X12207920Y-14662341D01*
X12207920Y-14662341D02*
X12207920Y-14624246D01*
X12207920Y-14624246D02*
X12217444Y-14576627D01*
X12217444Y-14576627D02*
X12226968Y-14548055D01*
X12226968Y-14548055D02*
X12236491Y-14529008D01*
X12236491Y-14529008D02*
X12255539Y-14500436D01*
X12255539Y-14500436D02*
X12265063Y-14490912D01*
X12426968Y-14586150D02*
X12426968Y-14719484D01*
X12379348Y-14509960D02*
X12331729Y-14652817D01*
X12331729Y-14652817D02*
X12455539Y-14652817D01*
X12569825Y-14519484D02*
X12588872Y-14519484D01*
X12588872Y-14519484D02*
X12607920Y-14529008D01*
X12607920Y-14529008D02*
X12617444Y-14538531D01*
X12617444Y-14538531D02*
X12626968Y-14557579D01*
X12626968Y-14557579D02*
X12636491Y-14595674D01*
X12636491Y-14595674D02*
X12636491Y-14643293D01*
X12636491Y-14643293D02*
X12626968Y-14681388D01*
X12626968Y-14681388D02*
X12617444Y-14700436D01*
X12617444Y-14700436D02*
X12607920Y-14709960D01*
X12607920Y-14709960D02*
X12588872Y-14719484D01*
X12588872Y-14719484D02*
X12569825Y-14719484D01*
X12569825Y-14719484D02*
X12550777Y-14709960D01*
X12550777Y-14709960D02*
X12541253Y-14700436D01*
X12541253Y-14700436D02*
X12531729Y-14681388D01*
X12531729Y-14681388D02*
X12522206Y-14643293D01*
X12522206Y-14643293D02*
X12522206Y-14595674D01*
X12522206Y-14595674D02*
X12531729Y-14557579D01*
X12531729Y-14557579D02*
X12541253Y-14538531D01*
X12541253Y-14538531D02*
X12550777Y-14529008D01*
X12550777Y-14529008D02*
X12569825Y-14519484D01*
X12874587Y-14719484D02*
X12874587Y-14519484D01*
X12960301Y-14719484D02*
X12960301Y-14614722D01*
X12960301Y-14614722D02*
X12950777Y-14595674D01*
X12950777Y-14595674D02*
X12931730Y-14586150D01*
X12931730Y-14586150D02*
X12903158Y-14586150D01*
X12903158Y-14586150D02*
X12884110Y-14595674D01*
X12884110Y-14595674D02*
X12874587Y-14605198D01*
X13084110Y-14719484D02*
X13065063Y-14709960D01*
X13065063Y-14709960D02*
X13055539Y-14700436D01*
X13055539Y-14700436D02*
X13046015Y-14681388D01*
X13046015Y-14681388D02*
X13046015Y-14624246D01*
X13046015Y-14624246D02*
X13055539Y-14605198D01*
X13055539Y-14605198D02*
X13065063Y-14595674D01*
X13065063Y-14595674D02*
X13084110Y-14586150D01*
X13084110Y-14586150D02*
X13112682Y-14586150D01*
X13112682Y-14586150D02*
X13131730Y-14595674D01*
X13131730Y-14595674D02*
X13141253Y-14605198D01*
X13141253Y-14605198D02*
X13150777Y-14624246D01*
X13150777Y-14624246D02*
X13150777Y-14681388D01*
X13150777Y-14681388D02*
X13141253Y-14700436D01*
X13141253Y-14700436D02*
X13131730Y-14709960D01*
X13131730Y-14709960D02*
X13112682Y-14719484D01*
X13112682Y-14719484D02*
X13084110Y-14719484D01*
X13265063Y-14719484D02*
X13246015Y-14709960D01*
X13246015Y-14709960D02*
X13236491Y-14690912D01*
X13236491Y-14690912D02*
X13236491Y-14519484D01*
X13417444Y-14709960D02*
X13398396Y-14719484D01*
X13398396Y-14719484D02*
X13360301Y-14719484D01*
X13360301Y-14719484D02*
X13341253Y-14709960D01*
X13341253Y-14709960D02*
X13331730Y-14690912D01*
X13331730Y-14690912D02*
X13331730Y-14614722D01*
X13331730Y-14614722D02*
X13341253Y-14595674D01*
X13341253Y-14595674D02*
X13360301Y-14586150D01*
X13360301Y-14586150D02*
X13398396Y-14586150D01*
X13398396Y-14586150D02*
X13417444Y-14595674D01*
X13417444Y-14595674D02*
X13426968Y-14614722D01*
X13426968Y-14614722D02*
X13426968Y-14633769D01*
X13426968Y-14633769D02*
X13331730Y-14652817D01*
X13503158Y-14709960D02*
X13522206Y-14719484D01*
X13522206Y-14719484D02*
X13560301Y-14719484D01*
X13560301Y-14719484D02*
X13579349Y-14709960D01*
X13579349Y-14709960D02*
X13588872Y-14690912D01*
X13588872Y-14690912D02*
X13588872Y-14681388D01*
X13588872Y-14681388D02*
X13579349Y-14662341D01*
X13579349Y-14662341D02*
X13560301Y-14652817D01*
X13560301Y-14652817D02*
X13531730Y-14652817D01*
X13531730Y-14652817D02*
X13512682Y-14643293D01*
X13512682Y-14643293D02*
X13503158Y-14624246D01*
X13503158Y-14624246D02*
X13503158Y-14614722D01*
X13503158Y-14614722D02*
X13512682Y-14595674D01*
X13512682Y-14595674D02*
X13531730Y-14586150D01*
X13531730Y-14586150D02*
X13560301Y-14586150D01*
X13560301Y-14586150D02*
X13579349Y-14595674D01*
X13655539Y-14795674D02*
X13665063Y-14786150D01*
X13665063Y-14786150D02*
X13684111Y-14757579D01*
X13684111Y-14757579D02*
X13693634Y-14738531D01*
X13693634Y-14738531D02*
X13703158Y-14709960D01*
X13703158Y-14709960D02*
X13712682Y-14662341D01*
X13712682Y-14662341D02*
X13712682Y-14624246D01*
X13712682Y-14624246D02*
X13703158Y-14576627D01*
X13703158Y-14576627D02*
X13693634Y-14548055D01*
X13693634Y-14548055D02*
X13684111Y-14529008D01*
X13684111Y-14529008D02*
X13665063Y-14500436D01*
X13665063Y-14500436D02*
X13655539Y-14490912D01*
D12*
X8673745Y-14931245D02*
X8673745Y-14852755D01*
X8595255Y-14852755D01*
X8595255Y-14931245D01*
X8673745Y-14931245D01*
D10*
X9055539Y-14983484D02*
X8941253Y-14983484D01*
X8998396Y-14983484D02*
X8998396Y-14783484D01*
X8998396Y-14783484D02*
X8979348Y-14812055D01*
X8979348Y-14812055D02*
X8960301Y-14831103D01*
X8960301Y-14831103D02*
X8941253Y-14840627D01*
X9141253Y-14964436D02*
X9150777Y-14973960D01*
X9150777Y-14973960D02*
X9141253Y-14983484D01*
X9141253Y-14983484D02*
X9131729Y-14973960D01*
X9131729Y-14973960D02*
X9141253Y-14964436D01*
X9141253Y-14964436D02*
X9141253Y-14983484D01*
X9341253Y-14983484D02*
X9226967Y-14983484D01*
X9284110Y-14983484D02*
X9284110Y-14783484D01*
X9284110Y-14783484D02*
X9265063Y-14812055D01*
X9265063Y-14812055D02*
X9246015Y-14831103D01*
X9246015Y-14831103D02*
X9226967Y-14840627D01*
X9531729Y-14983484D02*
X9417444Y-14983484D01*
X9474586Y-14983484D02*
X9474586Y-14783484D01*
X9474586Y-14783484D02*
X9455539Y-14812055D01*
X9455539Y-14812055D02*
X9436491Y-14831103D01*
X9436491Y-14831103D02*
X9417444Y-14840627D01*
X9655539Y-14783484D02*
X9674586Y-14783484D01*
X9674586Y-14783484D02*
X9693634Y-14793008D01*
X9693634Y-14793008D02*
X9703158Y-14802531D01*
X9703158Y-14802531D02*
X9712682Y-14821579D01*
X9712682Y-14821579D02*
X9722205Y-14859674D01*
X9722205Y-14859674D02*
X9722205Y-14907293D01*
X9722205Y-14907293D02*
X9712682Y-14945388D01*
X9712682Y-14945388D02*
X9703158Y-14964436D01*
X9703158Y-14964436D02*
X9693634Y-14973960D01*
X9693634Y-14973960D02*
X9674586Y-14983484D01*
X9674586Y-14983484D02*
X9655539Y-14983484D01*
X9655539Y-14983484D02*
X9636491Y-14973960D01*
X9636491Y-14973960D02*
X9626967Y-14964436D01*
X9626967Y-14964436D02*
X9617444Y-14945388D01*
X9617444Y-14945388D02*
X9607920Y-14907293D01*
X9607920Y-14907293D02*
X9607920Y-14859674D01*
X9607920Y-14859674D02*
X9617444Y-14821579D01*
X9617444Y-14821579D02*
X9626967Y-14802531D01*
X9626967Y-14802531D02*
X9636491Y-14793008D01*
X9636491Y-14793008D02*
X9655539Y-14783484D01*
X9807920Y-14983484D02*
X9807920Y-14850150D01*
X9807920Y-14869198D02*
X9817444Y-14859674D01*
X9817444Y-14859674D02*
X9836491Y-14850150D01*
X9836491Y-14850150D02*
X9865063Y-14850150D01*
X9865063Y-14850150D02*
X9884110Y-14859674D01*
X9884110Y-14859674D02*
X9893634Y-14878722D01*
X9893634Y-14878722D02*
X9893634Y-14983484D01*
X9893634Y-14878722D02*
X9903158Y-14859674D01*
X9903158Y-14859674D02*
X9922205Y-14850150D01*
X9922205Y-14850150D02*
X9950777Y-14850150D01*
X9950777Y-14850150D02*
X9969825Y-14859674D01*
X9969825Y-14859674D02*
X9979348Y-14878722D01*
X9979348Y-14878722D02*
X9979348Y-14983484D01*
X10074586Y-14983484D02*
X10074586Y-14850150D01*
X10074586Y-14869198D02*
X10084110Y-14859674D01*
X10084110Y-14859674D02*
X10103158Y-14850150D01*
X10103158Y-14850150D02*
X10131729Y-14850150D01*
X10131729Y-14850150D02*
X10150777Y-14859674D01*
X10150777Y-14859674D02*
X10160301Y-14878722D01*
X10160301Y-14878722D02*
X10160301Y-14983484D01*
X10160301Y-14878722D02*
X10169825Y-14859674D01*
X10169825Y-14859674D02*
X10188872Y-14850150D01*
X10188872Y-14850150D02*
X10217444Y-14850150D01*
X10217444Y-14850150D02*
X10236491Y-14859674D01*
X10236491Y-14859674D02*
X10246015Y-14878722D01*
X10246015Y-14878722D02*
X10246015Y-14983484D01*
X10636491Y-14773960D02*
X10465063Y-15031103D01*
X10893634Y-14783484D02*
X10912682Y-14783484D01*
X10912682Y-14783484D02*
X10931729Y-14793008D01*
X10931729Y-14793008D02*
X10941253Y-14802531D01*
X10941253Y-14802531D02*
X10950777Y-14821579D01*
X10950777Y-14821579D02*
X10960301Y-14859674D01*
X10960301Y-14859674D02*
X10960301Y-14907293D01*
X10960301Y-14907293D02*
X10950777Y-14945388D01*
X10950777Y-14945388D02*
X10941253Y-14964436D01*
X10941253Y-14964436D02*
X10931729Y-14973960D01*
X10931729Y-14973960D02*
X10912682Y-14983484D01*
X10912682Y-14983484D02*
X10893634Y-14983484D01*
X10893634Y-14983484D02*
X10874587Y-14973960D01*
X10874587Y-14973960D02*
X10865063Y-14964436D01*
X10865063Y-14964436D02*
X10855539Y-14945388D01*
X10855539Y-14945388D02*
X10846015Y-14907293D01*
X10846015Y-14907293D02*
X10846015Y-14859674D01*
X10846015Y-14859674D02*
X10855539Y-14821579D01*
X10855539Y-14821579D02*
X10865063Y-14802531D01*
X10865063Y-14802531D02*
X10874587Y-14793008D01*
X10874587Y-14793008D02*
X10893634Y-14783484D01*
X11046015Y-14964436D02*
X11055539Y-14973960D01*
X11055539Y-14973960D02*
X11046015Y-14983484D01*
X11046015Y-14983484D02*
X11036491Y-14973960D01*
X11036491Y-14973960D02*
X11046015Y-14964436D01*
X11046015Y-14964436D02*
X11046015Y-14983484D01*
X11179348Y-14783484D02*
X11198396Y-14783484D01*
X11198396Y-14783484D02*
X11217444Y-14793008D01*
X11217444Y-14793008D02*
X11226967Y-14802531D01*
X11226967Y-14802531D02*
X11236491Y-14821579D01*
X11236491Y-14821579D02*
X11246015Y-14859674D01*
X11246015Y-14859674D02*
X11246015Y-14907293D01*
X11246015Y-14907293D02*
X11236491Y-14945388D01*
X11236491Y-14945388D02*
X11226967Y-14964436D01*
X11226967Y-14964436D02*
X11217444Y-14973960D01*
X11217444Y-14973960D02*
X11198396Y-14983484D01*
X11198396Y-14983484D02*
X11179348Y-14983484D01*
X11179348Y-14983484D02*
X11160301Y-14973960D01*
X11160301Y-14973960D02*
X11150777Y-14964436D01*
X11150777Y-14964436D02*
X11141253Y-14945388D01*
X11141253Y-14945388D02*
X11131729Y-14907293D01*
X11131729Y-14907293D02*
X11131729Y-14859674D01*
X11131729Y-14859674D02*
X11141253Y-14821579D01*
X11141253Y-14821579D02*
X11150777Y-14802531D01*
X11150777Y-14802531D02*
X11160301Y-14793008D01*
X11160301Y-14793008D02*
X11179348Y-14783484D01*
X11417444Y-14850150D02*
X11417444Y-14983484D01*
X11369825Y-14773960D02*
X11322206Y-14916817D01*
X11322206Y-14916817D02*
X11446015Y-14916817D01*
X11503158Y-14783484D02*
X11626967Y-14783484D01*
X11626967Y-14783484D02*
X11560301Y-14859674D01*
X11560301Y-14859674D02*
X11588872Y-14859674D01*
X11588872Y-14859674D02*
X11607920Y-14869198D01*
X11607920Y-14869198D02*
X11617444Y-14878722D01*
X11617444Y-14878722D02*
X11626967Y-14897769D01*
X11626967Y-14897769D02*
X11626967Y-14945388D01*
X11626967Y-14945388D02*
X11617444Y-14964436D01*
X11617444Y-14964436D02*
X11607920Y-14973960D01*
X11607920Y-14973960D02*
X11588872Y-14983484D01*
X11588872Y-14983484D02*
X11531729Y-14983484D01*
X11531729Y-14983484D02*
X11512682Y-14973960D01*
X11512682Y-14973960D02*
X11503158Y-14964436D01*
X11693634Y-14783484D02*
X11826967Y-14783484D01*
X11826967Y-14783484D02*
X11741253Y-14983484D01*
X11893634Y-14783484D02*
X11893634Y-14821579D01*
X11969825Y-14783484D02*
X11969825Y-14821579D01*
X12265063Y-15059674D02*
X12255539Y-15050150D01*
X12255539Y-15050150D02*
X12236491Y-15021579D01*
X12236491Y-15021579D02*
X12226968Y-15002531D01*
X12226968Y-15002531D02*
X12217444Y-14973960D01*
X12217444Y-14973960D02*
X12207920Y-14926341D01*
X12207920Y-14926341D02*
X12207920Y-14888246D01*
X12207920Y-14888246D02*
X12217444Y-14840627D01*
X12217444Y-14840627D02*
X12226968Y-14812055D01*
X12226968Y-14812055D02*
X12236491Y-14793008D01*
X12236491Y-14793008D02*
X12255539Y-14764436D01*
X12255539Y-14764436D02*
X12265063Y-14754912D01*
X12436491Y-14783484D02*
X12341253Y-14783484D01*
X12341253Y-14783484D02*
X12331729Y-14878722D01*
X12331729Y-14878722D02*
X12341253Y-14869198D01*
X12341253Y-14869198D02*
X12360301Y-14859674D01*
X12360301Y-14859674D02*
X12407920Y-14859674D01*
X12407920Y-14859674D02*
X12426968Y-14869198D01*
X12426968Y-14869198D02*
X12436491Y-14878722D01*
X12436491Y-14878722D02*
X12446015Y-14897769D01*
X12446015Y-14897769D02*
X12446015Y-14945388D01*
X12446015Y-14945388D02*
X12436491Y-14964436D01*
X12436491Y-14964436D02*
X12426968Y-14973960D01*
X12426968Y-14973960D02*
X12407920Y-14983484D01*
X12407920Y-14983484D02*
X12360301Y-14983484D01*
X12360301Y-14983484D02*
X12341253Y-14973960D01*
X12341253Y-14973960D02*
X12331729Y-14964436D01*
X12541253Y-14983484D02*
X12579348Y-14983484D01*
X12579348Y-14983484D02*
X12598396Y-14973960D01*
X12598396Y-14973960D02*
X12607920Y-14964436D01*
X12607920Y-14964436D02*
X12626968Y-14935865D01*
X12626968Y-14935865D02*
X12636491Y-14897769D01*
X12636491Y-14897769D02*
X12636491Y-14821579D01*
X12636491Y-14821579D02*
X12626968Y-14802531D01*
X12626968Y-14802531D02*
X12617444Y-14793008D01*
X12617444Y-14793008D02*
X12598396Y-14783484D01*
X12598396Y-14783484D02*
X12560301Y-14783484D01*
X12560301Y-14783484D02*
X12541253Y-14793008D01*
X12541253Y-14793008D02*
X12531729Y-14802531D01*
X12531729Y-14802531D02*
X12522206Y-14821579D01*
X12522206Y-14821579D02*
X12522206Y-14869198D01*
X12522206Y-14869198D02*
X12531729Y-14888246D01*
X12531729Y-14888246D02*
X12541253Y-14897769D01*
X12541253Y-14897769D02*
X12560301Y-14907293D01*
X12560301Y-14907293D02*
X12598396Y-14907293D01*
X12598396Y-14907293D02*
X12617444Y-14897769D01*
X12617444Y-14897769D02*
X12626968Y-14888246D01*
X12626968Y-14888246D02*
X12636491Y-14869198D01*
X12874587Y-14983484D02*
X12874587Y-14783484D01*
X12960301Y-14983484D02*
X12960301Y-14878722D01*
X12960301Y-14878722D02*
X12950777Y-14859674D01*
X12950777Y-14859674D02*
X12931730Y-14850150D01*
X12931730Y-14850150D02*
X12903158Y-14850150D01*
X12903158Y-14850150D02*
X12884110Y-14859674D01*
X12884110Y-14859674D02*
X12874587Y-14869198D01*
X13084110Y-14983484D02*
X13065063Y-14973960D01*
X13065063Y-14973960D02*
X13055539Y-14964436D01*
X13055539Y-14964436D02*
X13046015Y-14945388D01*
X13046015Y-14945388D02*
X13046015Y-14888246D01*
X13046015Y-14888246D02*
X13055539Y-14869198D01*
X13055539Y-14869198D02*
X13065063Y-14859674D01*
X13065063Y-14859674D02*
X13084110Y-14850150D01*
X13084110Y-14850150D02*
X13112682Y-14850150D01*
X13112682Y-14850150D02*
X13131730Y-14859674D01*
X13131730Y-14859674D02*
X13141253Y-14869198D01*
X13141253Y-14869198D02*
X13150777Y-14888246D01*
X13150777Y-14888246D02*
X13150777Y-14945388D01*
X13150777Y-14945388D02*
X13141253Y-14964436D01*
X13141253Y-14964436D02*
X13131730Y-14973960D01*
X13131730Y-14973960D02*
X13112682Y-14983484D01*
X13112682Y-14983484D02*
X13084110Y-14983484D01*
X13265063Y-14983484D02*
X13246015Y-14973960D01*
X13246015Y-14973960D02*
X13236491Y-14954912D01*
X13236491Y-14954912D02*
X13236491Y-14783484D01*
X13417444Y-14973960D02*
X13398396Y-14983484D01*
X13398396Y-14983484D02*
X13360301Y-14983484D01*
X13360301Y-14983484D02*
X13341253Y-14973960D01*
X13341253Y-14973960D02*
X13331730Y-14954912D01*
X13331730Y-14954912D02*
X13331730Y-14878722D01*
X13331730Y-14878722D02*
X13341253Y-14859674D01*
X13341253Y-14859674D02*
X13360301Y-14850150D01*
X13360301Y-14850150D02*
X13398396Y-14850150D01*
X13398396Y-14850150D02*
X13417444Y-14859674D01*
X13417444Y-14859674D02*
X13426968Y-14878722D01*
X13426968Y-14878722D02*
X13426968Y-14897769D01*
X13426968Y-14897769D02*
X13331730Y-14916817D01*
X13503158Y-14973960D02*
X13522206Y-14983484D01*
X13522206Y-14983484D02*
X13560301Y-14983484D01*
X13560301Y-14983484D02*
X13579349Y-14973960D01*
X13579349Y-14973960D02*
X13588872Y-14954912D01*
X13588872Y-14954912D02*
X13588872Y-14945388D01*
X13588872Y-14945388D02*
X13579349Y-14926341D01*
X13579349Y-14926341D02*
X13560301Y-14916817D01*
X13560301Y-14916817D02*
X13531730Y-14916817D01*
X13531730Y-14916817D02*
X13512682Y-14907293D01*
X13512682Y-14907293D02*
X13503158Y-14888246D01*
X13503158Y-14888246D02*
X13503158Y-14878722D01*
X13503158Y-14878722D02*
X13512682Y-14859674D01*
X13512682Y-14859674D02*
X13531730Y-14850150D01*
X13531730Y-14850150D02*
X13560301Y-14850150D01*
X13560301Y-14850150D02*
X13579349Y-14859674D01*
X13655539Y-15059674D02*
X13665063Y-15050150D01*
X13665063Y-15050150D02*
X13684111Y-15021579D01*
X13684111Y-15021579D02*
X13693634Y-15002531D01*
X13693634Y-15002531D02*
X13703158Y-14973960D01*
X13703158Y-14973960D02*
X13712682Y-14926341D01*
X13712682Y-14926341D02*
X13712682Y-14888246D01*
X13712682Y-14888246D02*
X13703158Y-14840627D01*
X13703158Y-14840627D02*
X13693634Y-14812055D01*
X13693634Y-14812055D02*
X13684111Y-14793008D01*
X13684111Y-14793008D02*
X13665063Y-14764436D01*
X13665063Y-14764436D02*
X13655539Y-14754912D01*
D13*
X8625000Y-15221000D02*
X8690000Y-15156000D01*
X8625000Y-15091000D01*
X8560000Y-15156000D01*
X8625000Y-15221000D01*
D10*
X9055539Y-15247484D02*
X8941253Y-15247484D01*
X8998396Y-15247484D02*
X8998396Y-15047484D01*
X8998396Y-15047484D02*
X8979348Y-15076055D01*
X8979348Y-15076055D02*
X8960301Y-15095103D01*
X8960301Y-15095103D02*
X8941253Y-15104627D01*
X9141253Y-15228436D02*
X9150777Y-15237960D01*
X9150777Y-15237960D02*
X9141253Y-15247484D01*
X9141253Y-15247484D02*
X9131729Y-15237960D01*
X9131729Y-15237960D02*
X9141253Y-15228436D01*
X9141253Y-15228436D02*
X9141253Y-15247484D01*
X9217444Y-15047484D02*
X9341253Y-15047484D01*
X9341253Y-15047484D02*
X9274586Y-15123674D01*
X9274586Y-15123674D02*
X9303158Y-15123674D01*
X9303158Y-15123674D02*
X9322205Y-15133198D01*
X9322205Y-15133198D02*
X9331729Y-15142722D01*
X9331729Y-15142722D02*
X9341253Y-15161769D01*
X9341253Y-15161769D02*
X9341253Y-15209388D01*
X9341253Y-15209388D02*
X9331729Y-15228436D01*
X9331729Y-15228436D02*
X9322205Y-15237960D01*
X9322205Y-15237960D02*
X9303158Y-15247484D01*
X9303158Y-15247484D02*
X9246015Y-15247484D01*
X9246015Y-15247484D02*
X9226967Y-15237960D01*
X9226967Y-15237960D02*
X9217444Y-15228436D01*
X9465063Y-15047484D02*
X9484110Y-15047484D01*
X9484110Y-15047484D02*
X9503158Y-15057008D01*
X9503158Y-15057008D02*
X9512682Y-15066531D01*
X9512682Y-15066531D02*
X9522205Y-15085579D01*
X9522205Y-15085579D02*
X9531729Y-15123674D01*
X9531729Y-15123674D02*
X9531729Y-15171293D01*
X9531729Y-15171293D02*
X9522205Y-15209388D01*
X9522205Y-15209388D02*
X9512682Y-15228436D01*
X9512682Y-15228436D02*
X9503158Y-15237960D01*
X9503158Y-15237960D02*
X9484110Y-15247484D01*
X9484110Y-15247484D02*
X9465063Y-15247484D01*
X9465063Y-15247484D02*
X9446015Y-15237960D01*
X9446015Y-15237960D02*
X9436491Y-15228436D01*
X9436491Y-15228436D02*
X9426967Y-15209388D01*
X9426967Y-15209388D02*
X9417444Y-15171293D01*
X9417444Y-15171293D02*
X9417444Y-15123674D01*
X9417444Y-15123674D02*
X9426967Y-15085579D01*
X9426967Y-15085579D02*
X9436491Y-15066531D01*
X9436491Y-15066531D02*
X9446015Y-15057008D01*
X9446015Y-15057008D02*
X9465063Y-15047484D01*
X9655539Y-15047484D02*
X9674586Y-15047484D01*
X9674586Y-15047484D02*
X9693634Y-15057008D01*
X9693634Y-15057008D02*
X9703158Y-15066531D01*
X9703158Y-15066531D02*
X9712682Y-15085579D01*
X9712682Y-15085579D02*
X9722205Y-15123674D01*
X9722205Y-15123674D02*
X9722205Y-15171293D01*
X9722205Y-15171293D02*
X9712682Y-15209388D01*
X9712682Y-15209388D02*
X9703158Y-15228436D01*
X9703158Y-15228436D02*
X9693634Y-15237960D01*
X9693634Y-15237960D02*
X9674586Y-15247484D01*
X9674586Y-15247484D02*
X9655539Y-15247484D01*
X9655539Y-15247484D02*
X9636491Y-15237960D01*
X9636491Y-15237960D02*
X9626967Y-15228436D01*
X9626967Y-15228436D02*
X9617444Y-15209388D01*
X9617444Y-15209388D02*
X9607920Y-15171293D01*
X9607920Y-15171293D02*
X9607920Y-15123674D01*
X9607920Y-15123674D02*
X9617444Y-15085579D01*
X9617444Y-15085579D02*
X9626967Y-15066531D01*
X9626967Y-15066531D02*
X9636491Y-15057008D01*
X9636491Y-15057008D02*
X9655539Y-15047484D01*
X9807920Y-15247484D02*
X9807920Y-15114150D01*
X9807920Y-15133198D02*
X9817444Y-15123674D01*
X9817444Y-15123674D02*
X9836491Y-15114150D01*
X9836491Y-15114150D02*
X9865063Y-15114150D01*
X9865063Y-15114150D02*
X9884110Y-15123674D01*
X9884110Y-15123674D02*
X9893634Y-15142722D01*
X9893634Y-15142722D02*
X9893634Y-15247484D01*
X9893634Y-15142722D02*
X9903158Y-15123674D01*
X9903158Y-15123674D02*
X9922205Y-15114150D01*
X9922205Y-15114150D02*
X9950777Y-15114150D01*
X9950777Y-15114150D02*
X9969825Y-15123674D01*
X9969825Y-15123674D02*
X9979348Y-15142722D01*
X9979348Y-15142722D02*
X9979348Y-15247484D01*
X10074586Y-15247484D02*
X10074586Y-15114150D01*
X10074586Y-15133198D02*
X10084110Y-15123674D01*
X10084110Y-15123674D02*
X10103158Y-15114150D01*
X10103158Y-15114150D02*
X10131729Y-15114150D01*
X10131729Y-15114150D02*
X10150777Y-15123674D01*
X10150777Y-15123674D02*
X10160301Y-15142722D01*
X10160301Y-15142722D02*
X10160301Y-15247484D01*
X10160301Y-15142722D02*
X10169825Y-15123674D01*
X10169825Y-15123674D02*
X10188872Y-15114150D01*
X10188872Y-15114150D02*
X10217444Y-15114150D01*
X10217444Y-15114150D02*
X10236491Y-15123674D01*
X10236491Y-15123674D02*
X10246015Y-15142722D01*
X10246015Y-15142722D02*
X10246015Y-15247484D01*
X10636491Y-15037960D02*
X10465063Y-15295103D01*
X10893634Y-15047484D02*
X10912682Y-15047484D01*
X10912682Y-15047484D02*
X10931729Y-15057008D01*
X10931729Y-15057008D02*
X10941253Y-15066531D01*
X10941253Y-15066531D02*
X10950777Y-15085579D01*
X10950777Y-15085579D02*
X10960301Y-15123674D01*
X10960301Y-15123674D02*
X10960301Y-15171293D01*
X10960301Y-15171293D02*
X10950777Y-15209388D01*
X10950777Y-15209388D02*
X10941253Y-15228436D01*
X10941253Y-15228436D02*
X10931729Y-15237960D01*
X10931729Y-15237960D02*
X10912682Y-15247484D01*
X10912682Y-15247484D02*
X10893634Y-15247484D01*
X10893634Y-15247484D02*
X10874587Y-15237960D01*
X10874587Y-15237960D02*
X10865063Y-15228436D01*
X10865063Y-15228436D02*
X10855539Y-15209388D01*
X10855539Y-15209388D02*
X10846015Y-15171293D01*
X10846015Y-15171293D02*
X10846015Y-15123674D01*
X10846015Y-15123674D02*
X10855539Y-15085579D01*
X10855539Y-15085579D02*
X10865063Y-15066531D01*
X10865063Y-15066531D02*
X10874587Y-15057008D01*
X10874587Y-15057008D02*
X10893634Y-15047484D01*
X11046015Y-15228436D02*
X11055539Y-15237960D01*
X11055539Y-15237960D02*
X11046015Y-15247484D01*
X11046015Y-15247484D02*
X11036491Y-15237960D01*
X11036491Y-15237960D02*
X11046015Y-15228436D01*
X11046015Y-15228436D02*
X11046015Y-15247484D01*
X11179348Y-15047484D02*
X11198396Y-15047484D01*
X11198396Y-15047484D02*
X11217444Y-15057008D01*
X11217444Y-15057008D02*
X11226967Y-15066531D01*
X11226967Y-15066531D02*
X11236491Y-15085579D01*
X11236491Y-15085579D02*
X11246015Y-15123674D01*
X11246015Y-15123674D02*
X11246015Y-15171293D01*
X11246015Y-15171293D02*
X11236491Y-15209388D01*
X11236491Y-15209388D02*
X11226967Y-15228436D01*
X11226967Y-15228436D02*
X11217444Y-15237960D01*
X11217444Y-15237960D02*
X11198396Y-15247484D01*
X11198396Y-15247484D02*
X11179348Y-15247484D01*
X11179348Y-15247484D02*
X11160301Y-15237960D01*
X11160301Y-15237960D02*
X11150777Y-15228436D01*
X11150777Y-15228436D02*
X11141253Y-15209388D01*
X11141253Y-15209388D02*
X11131729Y-15171293D01*
X11131729Y-15171293D02*
X11131729Y-15123674D01*
X11131729Y-15123674D02*
X11141253Y-15085579D01*
X11141253Y-15085579D02*
X11150777Y-15066531D01*
X11150777Y-15066531D02*
X11160301Y-15057008D01*
X11160301Y-15057008D02*
X11179348Y-15047484D01*
X11426967Y-15047484D02*
X11331729Y-15047484D01*
X11331729Y-15047484D02*
X11322206Y-15142722D01*
X11322206Y-15142722D02*
X11331729Y-15133198D01*
X11331729Y-15133198D02*
X11350777Y-15123674D01*
X11350777Y-15123674D02*
X11398396Y-15123674D01*
X11398396Y-15123674D02*
X11417444Y-15133198D01*
X11417444Y-15133198D02*
X11426967Y-15142722D01*
X11426967Y-15142722D02*
X11436491Y-15161769D01*
X11436491Y-15161769D02*
X11436491Y-15209388D01*
X11436491Y-15209388D02*
X11426967Y-15228436D01*
X11426967Y-15228436D02*
X11417444Y-15237960D01*
X11417444Y-15237960D02*
X11398396Y-15247484D01*
X11398396Y-15247484D02*
X11350777Y-15247484D01*
X11350777Y-15247484D02*
X11331729Y-15237960D01*
X11331729Y-15237960D02*
X11322206Y-15228436D01*
X11626967Y-15247484D02*
X11512682Y-15247484D01*
X11569825Y-15247484D02*
X11569825Y-15047484D01*
X11569825Y-15047484D02*
X11550777Y-15076055D01*
X11550777Y-15076055D02*
X11531729Y-15095103D01*
X11531729Y-15095103D02*
X11512682Y-15104627D01*
X11703158Y-15066531D02*
X11712682Y-15057008D01*
X11712682Y-15057008D02*
X11731729Y-15047484D01*
X11731729Y-15047484D02*
X11779348Y-15047484D01*
X11779348Y-15047484D02*
X11798396Y-15057008D01*
X11798396Y-15057008D02*
X11807920Y-15066531D01*
X11807920Y-15066531D02*
X11817444Y-15085579D01*
X11817444Y-15085579D02*
X11817444Y-15104627D01*
X11817444Y-15104627D02*
X11807920Y-15133198D01*
X11807920Y-15133198D02*
X11693634Y-15247484D01*
X11693634Y-15247484D02*
X11817444Y-15247484D01*
X11893634Y-15047484D02*
X11893634Y-15085579D01*
X11969825Y-15047484D02*
X11969825Y-15085579D01*
X12265063Y-15323674D02*
X12255539Y-15314150D01*
X12255539Y-15314150D02*
X12236491Y-15285579D01*
X12236491Y-15285579D02*
X12226968Y-15266531D01*
X12226968Y-15266531D02*
X12217444Y-15237960D01*
X12217444Y-15237960D02*
X12207920Y-15190341D01*
X12207920Y-15190341D02*
X12207920Y-15152246D01*
X12207920Y-15152246D02*
X12217444Y-15104627D01*
X12217444Y-15104627D02*
X12226968Y-15076055D01*
X12226968Y-15076055D02*
X12236491Y-15057008D01*
X12236491Y-15057008D02*
X12255539Y-15028436D01*
X12255539Y-15028436D02*
X12265063Y-15018912D01*
X12446015Y-15247484D02*
X12331729Y-15247484D01*
X12388872Y-15247484D02*
X12388872Y-15047484D01*
X12388872Y-15047484D02*
X12369825Y-15076055D01*
X12369825Y-15076055D02*
X12350777Y-15095103D01*
X12350777Y-15095103D02*
X12331729Y-15104627D01*
X12617444Y-15114150D02*
X12617444Y-15247484D01*
X12569825Y-15037960D02*
X12522206Y-15180817D01*
X12522206Y-15180817D02*
X12646015Y-15180817D01*
X12874587Y-15247484D02*
X12874587Y-15047484D01*
X12960301Y-15247484D02*
X12960301Y-15142722D01*
X12960301Y-15142722D02*
X12950777Y-15123674D01*
X12950777Y-15123674D02*
X12931730Y-15114150D01*
X12931730Y-15114150D02*
X12903158Y-15114150D01*
X12903158Y-15114150D02*
X12884110Y-15123674D01*
X12884110Y-15123674D02*
X12874587Y-15133198D01*
X13084110Y-15247484D02*
X13065063Y-15237960D01*
X13065063Y-15237960D02*
X13055539Y-15228436D01*
X13055539Y-15228436D02*
X13046015Y-15209388D01*
X13046015Y-15209388D02*
X13046015Y-15152246D01*
X13046015Y-15152246D02*
X13055539Y-15133198D01*
X13055539Y-15133198D02*
X13065063Y-15123674D01*
X13065063Y-15123674D02*
X13084110Y-15114150D01*
X13084110Y-15114150D02*
X13112682Y-15114150D01*
X13112682Y-15114150D02*
X13131730Y-15123674D01*
X13131730Y-15123674D02*
X13141253Y-15133198D01*
X13141253Y-15133198D02*
X13150777Y-15152246D01*
X13150777Y-15152246D02*
X13150777Y-15209388D01*
X13150777Y-15209388D02*
X13141253Y-15228436D01*
X13141253Y-15228436D02*
X13131730Y-15237960D01*
X13131730Y-15237960D02*
X13112682Y-15247484D01*
X13112682Y-15247484D02*
X13084110Y-15247484D01*
X13265063Y-15247484D02*
X13246015Y-15237960D01*
X13246015Y-15237960D02*
X13236491Y-15218912D01*
X13236491Y-15218912D02*
X13236491Y-15047484D01*
X13417444Y-15237960D02*
X13398396Y-15247484D01*
X13398396Y-15247484D02*
X13360301Y-15247484D01*
X13360301Y-15247484D02*
X13341253Y-15237960D01*
X13341253Y-15237960D02*
X13331730Y-15218912D01*
X13331730Y-15218912D02*
X13331730Y-15142722D01*
X13331730Y-15142722D02*
X13341253Y-15123674D01*
X13341253Y-15123674D02*
X13360301Y-15114150D01*
X13360301Y-15114150D02*
X13398396Y-15114150D01*
X13398396Y-15114150D02*
X13417444Y-15123674D01*
X13417444Y-15123674D02*
X13426968Y-15142722D01*
X13426968Y-15142722D02*
X13426968Y-15161769D01*
X13426968Y-15161769D02*
X13331730Y-15180817D01*
X13503158Y-15237960D02*
X13522206Y-15247484D01*
X13522206Y-15247484D02*
X13560301Y-15247484D01*
X13560301Y-15247484D02*
X13579349Y-15237960D01*
X13579349Y-15237960D02*
X13588872Y-15218912D01*
X13588872Y-15218912D02*
X13588872Y-15209388D01*
X13588872Y-15209388D02*
X13579349Y-15190341D01*
X13579349Y-15190341D02*
X13560301Y-15180817D01*
X13560301Y-15180817D02*
X13531730Y-15180817D01*
X13531730Y-15180817D02*
X13512682Y-15171293D01*
X13512682Y-15171293D02*
X13503158Y-15152246D01*
X13503158Y-15152246D02*
X13503158Y-15142722D01*
X13503158Y-15142722D02*
X13512682Y-15123674D01*
X13512682Y-15123674D02*
X13531730Y-15114150D01*
X13531730Y-15114150D02*
X13560301Y-15114150D01*
X13560301Y-15114150D02*
X13579349Y-15123674D01*
X13655539Y-15323674D02*
X13665063Y-15314150D01*
X13665063Y-15314150D02*
X13684111Y-15285579D01*
X13684111Y-15285579D02*
X13693634Y-15266531D01*
X13693634Y-15266531D02*
X13703158Y-15237960D01*
X13703158Y-15237960D02*
X13712682Y-15190341D01*
X13712682Y-15190341D02*
X13712682Y-15152246D01*
X13712682Y-15152246D02*
X13703158Y-15104627D01*
X13703158Y-15104627D02*
X13693634Y-15076055D01*
X13693634Y-15076055D02*
X13684111Y-15057008D01*
X13684111Y-15057008D02*
X13665063Y-15028436D01*
X13665063Y-15028436D02*
X13655539Y-15018912D01*
M02*
