%TF.GenerationSoftware,KiCad,Pcbnew,10.0.4*%
%TF.CreationDate,2026-06-26T13:37:29+02:00*%
%TF.ProjectId,puppet_pcb,70757070-6574-45f7-9063-622e6b696361,rev?*%
%TF.SameCoordinates,Original*%
%TF.FileFunction,Paste,Top*%
%TF.FilePolarity,Positive*%
%FSLAX46Y46*%
G04 Gerber Fmt 4.6, Leading zero omitted, Abs format (unit mm)*
G04 Created by KiCad (PCBNEW 10.0.4) date 2026-06-26 13:37:29*
%MOMM*%
%LPD*%
G01*
G04 APERTURE LIST*
%ADD10C,0.128000*%
%ADD11R,1.500000X0.600000*%
G04 APERTURE END LIST*
D10*
X98656000Y-47000000D02*
G75*
G02*
X98528000Y-47000000I-64000J0D01*
G01*
X98528000Y-47000000D02*
G75*
G02*
X98656000Y-47000000I64000J0D01*
G01*
X99072000Y-47000000D02*
G75*
G02*
X98944000Y-47000000I-64000J0D01*
G01*
X98944000Y-47000000D02*
G75*
G02*
X99072000Y-47000000I64000J0D01*
G01*
X99656000Y-45000000D02*
G75*
G02*
X99528000Y-45000000I-64000J0D01*
G01*
X99528000Y-45000000D02*
G75*
G02*
X99656000Y-45000000I64000J0D01*
G01*
X100072000Y-45000000D02*
G75*
G02*
X99944000Y-45000000I-64000J0D01*
G01*
X99944000Y-45000000D02*
G75*
G02*
X100072000Y-45000000I64000J0D01*
G01*
G36*
G01*
X185100000Y-70975000D02*
X185100000Y-70025000D01*
G75*
G02*
X185350000Y-69775000I250000J0D01*
G01*
X185850000Y-69775000D01*
G75*
G02*
X186100000Y-70025000I0J-250000D01*
G01*
X186100000Y-70975000D01*
G75*
G02*
X185850000Y-71225000I-250000J0D01*
G01*
X185350000Y-71225000D01*
G75*
G02*
X185100000Y-70975000I0J250000D01*
G01*
G37*
G36*
G01*
X187000000Y-70975000D02*
X187000000Y-70025000D01*
G75*
G02*
X187250000Y-69775000I250000J0D01*
G01*
X187750000Y-69775000D01*
G75*
G02*
X188000000Y-70025000I0J-250000D01*
G01*
X188000000Y-70975000D01*
G75*
G02*
X187750000Y-71225000I-250000J0D01*
G01*
X187250000Y-71225000D01*
G75*
G02*
X187000000Y-70975000I0J250000D01*
G01*
G37*
G36*
G01*
X161500000Y-45025000D02*
X161500000Y-45975000D01*
G75*
G02*
X161250000Y-46225000I-250000J0D01*
G01*
X160750000Y-46225000D01*
G75*
G02*
X160500000Y-45975000I0J250000D01*
G01*
X160500000Y-45025000D01*
G75*
G02*
X160750000Y-44775000I250000J0D01*
G01*
X161250000Y-44775000D01*
G75*
G02*
X161500000Y-45025000I0J-250000D01*
G01*
G37*
G36*
G01*
X159600000Y-45025000D02*
X159600000Y-45975000D01*
G75*
G02*
X159350000Y-46225000I-250000J0D01*
G01*
X158850000Y-46225000D01*
G75*
G02*
X158600000Y-45975000I0J250000D01*
G01*
X158600000Y-45025000D01*
G75*
G02*
X158850000Y-44775000I250000J0D01*
G01*
X159350000Y-44775000D01*
G75*
G02*
X159600000Y-45025000I0J-250000D01*
G01*
G37*
G36*
G01*
X195162500Y-67450000D02*
X195162500Y-66550000D01*
G75*
G02*
X195412500Y-66300000I250000J0D01*
G01*
X195937500Y-66300000D01*
G75*
G02*
X196187500Y-66550000I0J-250000D01*
G01*
X196187500Y-67450000D01*
G75*
G02*
X195937500Y-67700000I-250000J0D01*
G01*
X195412500Y-67700000D01*
G75*
G02*
X195162500Y-67450000I0J250000D01*
G01*
G37*
G36*
G01*
X196987500Y-67450000D02*
X196987500Y-66550000D01*
G75*
G02*
X197237500Y-66300000I250000J0D01*
G01*
X197762500Y-66300000D01*
G75*
G02*
X198012500Y-66550000I0J-250000D01*
G01*
X198012500Y-67450000D01*
G75*
G02*
X197762500Y-67700000I-250000J0D01*
G01*
X197237500Y-67700000D01*
G75*
G02*
X196987500Y-67450000I0J250000D01*
G01*
G37*
G36*
G01*
X157162500Y-69950000D02*
X157162500Y-69050000D01*
G75*
G02*
X157412500Y-68800000I250000J0D01*
G01*
X157937500Y-68800000D01*
G75*
G02*
X158187500Y-69050000I0J-250000D01*
G01*
X158187500Y-69950000D01*
G75*
G02*
X157937500Y-70200000I-250000J0D01*
G01*
X157412500Y-70200000D01*
G75*
G02*
X157162500Y-69950000I0J250000D01*
G01*
G37*
G36*
G01*
X158987500Y-69950000D02*
X158987500Y-69050000D01*
G75*
G02*
X159237500Y-68800000I250000J0D01*
G01*
X159762500Y-68800000D01*
G75*
G02*
X160012500Y-69050000I0J-250000D01*
G01*
X160012500Y-69950000D01*
G75*
G02*
X159762500Y-70200000I-250000J0D01*
G01*
X159237500Y-70200000D01*
G75*
G02*
X158987500Y-69950000I0J250000D01*
G01*
G37*
G36*
G01*
X157162500Y-64450000D02*
X157162500Y-63550000D01*
G75*
G02*
X157412500Y-63300000I250000J0D01*
G01*
X157937500Y-63300000D01*
G75*
G02*
X158187500Y-63550000I0J-250000D01*
G01*
X158187500Y-64450000D01*
G75*
G02*
X157937500Y-64700000I-250000J0D01*
G01*
X157412500Y-64700000D01*
G75*
G02*
X157162500Y-64450000I0J250000D01*
G01*
G37*
G36*
G01*
X158987500Y-64450000D02*
X158987500Y-63550000D01*
G75*
G02*
X159237500Y-63300000I250000J0D01*
G01*
X159762500Y-63300000D01*
G75*
G02*
X160012500Y-63550000I0J-250000D01*
G01*
X160012500Y-64450000D01*
G75*
G02*
X159762500Y-64700000I-250000J0D01*
G01*
X159237500Y-64700000D01*
G75*
G02*
X158987500Y-64450000I0J250000D01*
G01*
G37*
G36*
G01*
X185050000Y-94475000D02*
X185050000Y-93525000D01*
G75*
G02*
X185300000Y-93275000I250000J0D01*
G01*
X185800000Y-93275000D01*
G75*
G02*
X186050000Y-93525000I0J-250000D01*
G01*
X186050000Y-94475000D01*
G75*
G02*
X185800000Y-94725000I-250000J0D01*
G01*
X185300000Y-94725000D01*
G75*
G02*
X185050000Y-94475000I0J250000D01*
G01*
G37*
G36*
G01*
X186950000Y-94475000D02*
X186950000Y-93525000D01*
G75*
G02*
X187200000Y-93275000I250000J0D01*
G01*
X187700000Y-93275000D01*
G75*
G02*
X187950000Y-93525000I0J-250000D01*
G01*
X187950000Y-94475000D01*
G75*
G02*
X187700000Y-94725000I-250000J0D01*
G01*
X187200000Y-94725000D01*
G75*
G02*
X186950000Y-94475000I0J250000D01*
G01*
G37*
G36*
G01*
X108525000Y-71600000D02*
X109475000Y-71600000D01*
G75*
G02*
X109725000Y-71850000I0J-250000D01*
G01*
X109725000Y-72350000D01*
G75*
G02*
X109475000Y-72600000I-250000J0D01*
G01*
X108525000Y-72600000D01*
G75*
G02*
X108275000Y-72350000I0J250000D01*
G01*
X108275000Y-71850000D01*
G75*
G02*
X108525000Y-71600000I250000J0D01*
G01*
G37*
G36*
G01*
X108525000Y-73500000D02*
X109475000Y-73500000D01*
G75*
G02*
X109725000Y-73750000I0J-250000D01*
G01*
X109725000Y-74250000D01*
G75*
G02*
X109475000Y-74500000I-250000J0D01*
G01*
X108525000Y-74500000D01*
G75*
G02*
X108275000Y-74250000I0J250000D01*
G01*
X108275000Y-73750000D01*
G75*
G02*
X108525000Y-73500000I250000J0D01*
G01*
G37*
D11*
X126700000Y-65595000D03*
X126700000Y-66865000D03*
X126700000Y-68135000D03*
X126700000Y-69405000D03*
X132000000Y-69405000D03*
X132000000Y-68135000D03*
X132000000Y-66865000D03*
X132000000Y-65595000D03*
G36*
G01*
X185050000Y-86475000D02*
X185050000Y-85525000D01*
G75*
G02*
X185300000Y-85275000I250000J0D01*
G01*
X185800000Y-85275000D01*
G75*
G02*
X186050000Y-85525000I0J-250000D01*
G01*
X186050000Y-86475000D01*
G75*
G02*
X185800000Y-86725000I-250000J0D01*
G01*
X185300000Y-86725000D01*
G75*
G02*
X185050000Y-86475000I0J250000D01*
G01*
G37*
G36*
G01*
X186950000Y-86475000D02*
X186950000Y-85525000D01*
G75*
G02*
X187200000Y-85275000I250000J0D01*
G01*
X187700000Y-85275000D01*
G75*
G02*
X187950000Y-85525000I0J-250000D01*
G01*
X187950000Y-86475000D01*
G75*
G02*
X187700000Y-86725000I-250000J0D01*
G01*
X187200000Y-86725000D01*
G75*
G02*
X186950000Y-86475000I0J250000D01*
G01*
G37*
X126700000Y-52690000D03*
X126700000Y-53960000D03*
X126700000Y-55230000D03*
X126700000Y-56500000D03*
X132000000Y-56500000D03*
X132000000Y-55230000D03*
X132000000Y-53960000D03*
X132000000Y-52690000D03*
G36*
G01*
X152012500Y-43550000D02*
X152012500Y-44450000D01*
G75*
G02*
X151762500Y-44700000I-250000J0D01*
G01*
X151237500Y-44700000D01*
G75*
G02*
X150987500Y-44450000I0J250000D01*
G01*
X150987500Y-43550000D01*
G75*
G02*
X151237500Y-43300000I250000J0D01*
G01*
X151762500Y-43300000D01*
G75*
G02*
X152012500Y-43550000I0J-250000D01*
G01*
G37*
G36*
G01*
X150187500Y-43550000D02*
X150187500Y-44450000D01*
G75*
G02*
X149937500Y-44700000I-250000J0D01*
G01*
X149412500Y-44700000D01*
G75*
G02*
X149162500Y-44450000I0J250000D01*
G01*
X149162500Y-43550000D01*
G75*
G02*
X149412500Y-43300000I250000J0D01*
G01*
X149937500Y-43300000D01*
G75*
G02*
X150187500Y-43550000I0J-250000D01*
G01*
G37*
G36*
G01*
X185050000Y-90475000D02*
X185050000Y-89525000D01*
G75*
G02*
X185300000Y-89275000I250000J0D01*
G01*
X185800000Y-89275000D01*
G75*
G02*
X186050000Y-89525000I0J-250000D01*
G01*
X186050000Y-90475000D01*
G75*
G02*
X185800000Y-90725000I-250000J0D01*
G01*
X185300000Y-90725000D01*
G75*
G02*
X185050000Y-90475000I0J250000D01*
G01*
G37*
G36*
G01*
X186950000Y-90475000D02*
X186950000Y-89525000D01*
G75*
G02*
X187200000Y-89275000I250000J0D01*
G01*
X187700000Y-89275000D01*
G75*
G02*
X187950000Y-89525000I0J-250000D01*
G01*
X187950000Y-90475000D01*
G75*
G02*
X187700000Y-90725000I-250000J0D01*
G01*
X187200000Y-90725000D01*
G75*
G02*
X186950000Y-90475000I0J250000D01*
G01*
G37*
G36*
G01*
X185100000Y-78475000D02*
X185100000Y-77525000D01*
G75*
G02*
X185350000Y-77275000I250000J0D01*
G01*
X185850000Y-77275000D01*
G75*
G02*
X186100000Y-77525000I0J-250000D01*
G01*
X186100000Y-78475000D01*
G75*
G02*
X185850000Y-78725000I-250000J0D01*
G01*
X185350000Y-78725000D01*
G75*
G02*
X185100000Y-78475000I0J250000D01*
G01*
G37*
G36*
G01*
X187000000Y-78475000D02*
X187000000Y-77525000D01*
G75*
G02*
X187250000Y-77275000I250000J0D01*
G01*
X187750000Y-77275000D01*
G75*
G02*
X188000000Y-77525000I0J-250000D01*
G01*
X188000000Y-78475000D01*
G75*
G02*
X187750000Y-78725000I-250000J0D01*
G01*
X187250000Y-78725000D01*
G75*
G02*
X187000000Y-78475000I0J250000D01*
G01*
G37*
G36*
G01*
X144050000Y-67475000D02*
X144050000Y-66525000D01*
G75*
G02*
X144300000Y-66275000I250000J0D01*
G01*
X144800000Y-66275000D01*
G75*
G02*
X145050000Y-66525000I0J-250000D01*
G01*
X145050000Y-67475000D01*
G75*
G02*
X144800000Y-67725000I-250000J0D01*
G01*
X144300000Y-67725000D01*
G75*
G02*
X144050000Y-67475000I0J250000D01*
G01*
G37*
G36*
G01*
X145950000Y-67475000D02*
X145950000Y-66525000D01*
G75*
G02*
X146200000Y-66275000I250000J0D01*
G01*
X146700000Y-66275000D01*
G75*
G02*
X146950000Y-66525000I0J-250000D01*
G01*
X146950000Y-67475000D01*
G75*
G02*
X146700000Y-67725000I-250000J0D01*
G01*
X146200000Y-67725000D01*
G75*
G02*
X145950000Y-67475000I0J250000D01*
G01*
G37*
G36*
G01*
X143100000Y-94475000D02*
X143100000Y-93525000D01*
G75*
G02*
X143350000Y-93275000I250000J0D01*
G01*
X143850000Y-93275000D01*
G75*
G02*
X144100000Y-93525000I0J-250000D01*
G01*
X144100000Y-94475000D01*
G75*
G02*
X143850000Y-94725000I-250000J0D01*
G01*
X143350000Y-94725000D01*
G75*
G02*
X143100000Y-94475000I0J250000D01*
G01*
G37*
G36*
G01*
X145000000Y-94475000D02*
X145000000Y-93525000D01*
G75*
G02*
X145250000Y-93275000I250000J0D01*
G01*
X145750000Y-93275000D01*
G75*
G02*
X146000000Y-93525000I0J-250000D01*
G01*
X146000000Y-94475000D01*
G75*
G02*
X145750000Y-94725000I-250000J0D01*
G01*
X145250000Y-94725000D01*
G75*
G02*
X145000000Y-94475000I0J250000D01*
G01*
G37*
G36*
G01*
X189162500Y-102950000D02*
X189162500Y-102050000D01*
G75*
G02*
X189412500Y-101800000I250000J0D01*
G01*
X189937500Y-101800000D01*
G75*
G02*
X190187500Y-102050000I0J-250000D01*
G01*
X190187500Y-102950000D01*
G75*
G02*
X189937500Y-103200000I-250000J0D01*
G01*
X189412500Y-103200000D01*
G75*
G02*
X189162500Y-102950000I0J250000D01*
G01*
G37*
G36*
G01*
X190987500Y-102950000D02*
X190987500Y-102050000D01*
G75*
G02*
X191237500Y-101800000I250000J0D01*
G01*
X191762500Y-101800000D01*
G75*
G02*
X192012500Y-102050000I0J-250000D01*
G01*
X192012500Y-102950000D01*
G75*
G02*
X191762500Y-103200000I-250000J0D01*
G01*
X191237500Y-103200000D01*
G75*
G02*
X190987500Y-102950000I0J250000D01*
G01*
G37*
G36*
G01*
X116600000Y-56965000D02*
X116600000Y-56015000D01*
G75*
G02*
X116850000Y-55765000I250000J0D01*
G01*
X117350000Y-55765000D01*
G75*
G02*
X117600000Y-56015000I0J-250000D01*
G01*
X117600000Y-56965000D01*
G75*
G02*
X117350000Y-57215000I-250000J0D01*
G01*
X116850000Y-57215000D01*
G75*
G02*
X116600000Y-56965000I0J250000D01*
G01*
G37*
G36*
G01*
X118500000Y-56965000D02*
X118500000Y-56015000D01*
G75*
G02*
X118750000Y-55765000I250000J0D01*
G01*
X119250000Y-55765000D01*
G75*
G02*
X119500000Y-56015000I0J-250000D01*
G01*
X119500000Y-56965000D01*
G75*
G02*
X119250000Y-57215000I-250000J0D01*
G01*
X118750000Y-57215000D01*
G75*
G02*
X118500000Y-56965000I0J250000D01*
G01*
G37*
G36*
G01*
X150950000Y-66525000D02*
X150950000Y-67475000D01*
G75*
G02*
X150700000Y-67725000I-250000J0D01*
G01*
X150200000Y-67725000D01*
G75*
G02*
X149950000Y-67475000I0J250000D01*
G01*
X149950000Y-66525000D01*
G75*
G02*
X150200000Y-66275000I250000J0D01*
G01*
X150700000Y-66275000D01*
G75*
G02*
X150950000Y-66525000I0J-250000D01*
G01*
G37*
G36*
G01*
X149050000Y-66525000D02*
X149050000Y-67475000D01*
G75*
G02*
X148800000Y-67725000I-250000J0D01*
G01*
X148300000Y-67725000D01*
G75*
G02*
X148050000Y-67475000I0J250000D01*
G01*
X148050000Y-66525000D01*
G75*
G02*
X148300000Y-66275000I250000J0D01*
G01*
X148800000Y-66275000D01*
G75*
G02*
X149050000Y-66525000I0J-250000D01*
G01*
G37*
G36*
G01*
X175500000Y-104525000D02*
X175500000Y-105475000D01*
G75*
G02*
X175250000Y-105725000I-250000J0D01*
G01*
X174750000Y-105725000D01*
G75*
G02*
X174500000Y-105475000I0J250000D01*
G01*
X174500000Y-104525000D01*
G75*
G02*
X174750000Y-104275000I250000J0D01*
G01*
X175250000Y-104275000D01*
G75*
G02*
X175500000Y-104525000I0J-250000D01*
G01*
G37*
G36*
G01*
X173600000Y-104525000D02*
X173600000Y-105475000D01*
G75*
G02*
X173350000Y-105725000I-250000J0D01*
G01*
X172850000Y-105725000D01*
G75*
G02*
X172600000Y-105475000I0J250000D01*
G01*
X172600000Y-104525000D01*
G75*
G02*
X172850000Y-104275000I250000J0D01*
G01*
X173350000Y-104275000D01*
G75*
G02*
X173600000Y-104525000I0J-250000D01*
G01*
G37*
G36*
G01*
X168100000Y-105475000D02*
X168100000Y-104525000D01*
G75*
G02*
X168350000Y-104275000I250000J0D01*
G01*
X168850000Y-104275000D01*
G75*
G02*
X169100000Y-104525000I0J-250000D01*
G01*
X169100000Y-105475000D01*
G75*
G02*
X168850000Y-105725000I-250000J0D01*
G01*
X168350000Y-105725000D01*
G75*
G02*
X168100000Y-105475000I0J250000D01*
G01*
G37*
G36*
G01*
X170000000Y-105475000D02*
X170000000Y-104525000D01*
G75*
G02*
X170250000Y-104275000I250000J0D01*
G01*
X170750000Y-104275000D01*
G75*
G02*
X171000000Y-104525000I0J-250000D01*
G01*
X171000000Y-105475000D01*
G75*
G02*
X170750000Y-105725000I-250000J0D01*
G01*
X170250000Y-105725000D01*
G75*
G02*
X170000000Y-105475000I0J250000D01*
G01*
G37*
G36*
G01*
X162500000Y-76525000D02*
X162500000Y-77475000D01*
G75*
G02*
X162250000Y-77725000I-250000J0D01*
G01*
X161750000Y-77725000D01*
G75*
G02*
X161500000Y-77475000I0J250000D01*
G01*
X161500000Y-76525000D01*
G75*
G02*
X161750000Y-76275000I250000J0D01*
G01*
X162250000Y-76275000D01*
G75*
G02*
X162500000Y-76525000I0J-250000D01*
G01*
G37*
G36*
G01*
X160600000Y-76525000D02*
X160600000Y-77475000D01*
G75*
G02*
X160350000Y-77725000I-250000J0D01*
G01*
X159850000Y-77725000D01*
G75*
G02*
X159600000Y-77475000I0J250000D01*
G01*
X159600000Y-76525000D01*
G75*
G02*
X159850000Y-76275000I250000J0D01*
G01*
X160350000Y-76275000D01*
G75*
G02*
X160600000Y-76525000I0J-250000D01*
G01*
G37*
G36*
G01*
X185100000Y-74465000D02*
X185100000Y-73515000D01*
G75*
G02*
X185350000Y-73265000I250000J0D01*
G01*
X185850000Y-73265000D01*
G75*
G02*
X186100000Y-73515000I0J-250000D01*
G01*
X186100000Y-74465000D01*
G75*
G02*
X185850000Y-74715000I-250000J0D01*
G01*
X185350000Y-74715000D01*
G75*
G02*
X185100000Y-74465000I0J250000D01*
G01*
G37*
G36*
G01*
X187000000Y-74465000D02*
X187000000Y-73515000D01*
G75*
G02*
X187250000Y-73265000I250000J0D01*
G01*
X187750000Y-73265000D01*
G75*
G02*
X188000000Y-73515000I0J-250000D01*
G01*
X188000000Y-74465000D01*
G75*
G02*
X187750000Y-74715000I-250000J0D01*
G01*
X187250000Y-74715000D01*
G75*
G02*
X187000000Y-74465000I0J250000D01*
G01*
G37*
G36*
G01*
X175000000Y-72025000D02*
X175000000Y-72975000D01*
G75*
G02*
X174750000Y-73225000I-250000J0D01*
G01*
X174250000Y-73225000D01*
G75*
G02*
X174000000Y-72975000I0J250000D01*
G01*
X174000000Y-72025000D01*
G75*
G02*
X174250000Y-71775000I250000J0D01*
G01*
X174750000Y-71775000D01*
G75*
G02*
X175000000Y-72025000I0J-250000D01*
G01*
G37*
G36*
G01*
X173100000Y-72025000D02*
X173100000Y-72975000D01*
G75*
G02*
X172850000Y-73225000I-250000J0D01*
G01*
X172350000Y-73225000D01*
G75*
G02*
X172100000Y-72975000I0J250000D01*
G01*
X172100000Y-72025000D01*
G75*
G02*
X172350000Y-71775000I250000J0D01*
G01*
X172850000Y-71775000D01*
G75*
G02*
X173100000Y-72025000I0J-250000D01*
G01*
G37*
G36*
G01*
X168100000Y-72975000D02*
X168100000Y-72025000D01*
G75*
G02*
X168350000Y-71775000I250000J0D01*
G01*
X168850000Y-71775000D01*
G75*
G02*
X169100000Y-72025000I0J-250000D01*
G01*
X169100000Y-72975000D01*
G75*
G02*
X168850000Y-73225000I-250000J0D01*
G01*
X168350000Y-73225000D01*
G75*
G02*
X168100000Y-72975000I0J250000D01*
G01*
G37*
G36*
G01*
X170000000Y-72975000D02*
X170000000Y-72025000D01*
G75*
G02*
X170250000Y-71775000I250000J0D01*
G01*
X170750000Y-71775000D01*
G75*
G02*
X171000000Y-72025000I0J-250000D01*
G01*
X171000000Y-72975000D01*
G75*
G02*
X170750000Y-73225000I-250000J0D01*
G01*
X170250000Y-73225000D01*
G75*
G02*
X170000000Y-72975000I0J250000D01*
G01*
G37*
G36*
G01*
X112025000Y-71600000D02*
X112975000Y-71600000D01*
G75*
G02*
X113225000Y-71850000I0J-250000D01*
G01*
X113225000Y-72350000D01*
G75*
G02*
X112975000Y-72600000I-250000J0D01*
G01*
X112025000Y-72600000D01*
G75*
G02*
X111775000Y-72350000I0J250000D01*
G01*
X111775000Y-71850000D01*
G75*
G02*
X112025000Y-71600000I250000J0D01*
G01*
G37*
G36*
G01*
X112025000Y-73500000D02*
X112975000Y-73500000D01*
G75*
G02*
X113225000Y-73750000I0J-250000D01*
G01*
X113225000Y-74250000D01*
G75*
G02*
X112975000Y-74500000I-250000J0D01*
G01*
X112025000Y-74500000D01*
G75*
G02*
X111775000Y-74250000I0J250000D01*
G01*
X111775000Y-73750000D01*
G75*
G02*
X112025000Y-73500000I250000J0D01*
G01*
G37*
G36*
G01*
X142435000Y-75105000D02*
X142435000Y-74655000D01*
G75*
G02*
X142510000Y-74580000I75000J0D01*
G01*
X144270000Y-74580000D01*
G75*
G02*
X144345000Y-74655000I0J-75000D01*
G01*
X144345000Y-75105000D01*
G75*
G02*
X144270000Y-75180000I-75000J0D01*
G01*
X142510000Y-75180000D01*
G75*
G02*
X142435000Y-75105000I0J75000D01*
G01*
G37*
G36*
G01*
X142435000Y-76375000D02*
X142435000Y-75925000D01*
G75*
G02*
X142510000Y-75850000I75000J0D01*
G01*
X144270000Y-75850000D01*
G75*
G02*
X144345000Y-75925000I0J-75000D01*
G01*
X144345000Y-76375000D01*
G75*
G02*
X144270000Y-76450000I-75000J0D01*
G01*
X142510000Y-76450000D01*
G75*
G02*
X142435000Y-76375000I0J75000D01*
G01*
G37*
G36*
G01*
X142435000Y-77645000D02*
X142435000Y-77195000D01*
G75*
G02*
X142510000Y-77120000I75000J0D01*
G01*
X144270000Y-77120000D01*
G75*
G02*
X144345000Y-77195000I0J-75000D01*
G01*
X144345000Y-77645000D01*
G75*
G02*
X144270000Y-77720000I-75000J0D01*
G01*
X142510000Y-77720000D01*
G75*
G02*
X142435000Y-77645000I0J75000D01*
G01*
G37*
G36*
G01*
X142435000Y-78915000D02*
X142435000Y-78465000D01*
G75*
G02*
X142510000Y-78390000I75000J0D01*
G01*
X144270000Y-78390000D01*
G75*
G02*
X144345000Y-78465000I0J-75000D01*
G01*
X144345000Y-78915000D01*
G75*
G02*
X144270000Y-78990000I-75000J0D01*
G01*
X142510000Y-78990000D01*
G75*
G02*
X142435000Y-78915000I0J75000D01*
G01*
G37*
G36*
G01*
X142435000Y-80185000D02*
X142435000Y-79735000D01*
G75*
G02*
X142510000Y-79660000I75000J0D01*
G01*
X144270000Y-79660000D01*
G75*
G02*
X144345000Y-79735000I0J-75000D01*
G01*
X144345000Y-80185000D01*
G75*
G02*
X144270000Y-80260000I-75000J0D01*
G01*
X142510000Y-80260000D01*
G75*
G02*
X142435000Y-80185000I0J75000D01*
G01*
G37*
G36*
G01*
X142435000Y-81455000D02*
X142435000Y-81005000D01*
G75*
G02*
X142510000Y-80930000I75000J0D01*
G01*
X144270000Y-80930000D01*
G75*
G02*
X144345000Y-81005000I0J-75000D01*
G01*
X144345000Y-81455000D01*
G75*
G02*
X144270000Y-81530000I-75000J0D01*
G01*
X142510000Y-81530000D01*
G75*
G02*
X142435000Y-81455000I0J75000D01*
G01*
G37*
G36*
G01*
X142435000Y-82725000D02*
X142435000Y-82275000D01*
G75*
G02*
X142510000Y-82200000I75000J0D01*
G01*
X144270000Y-82200000D01*
G75*
G02*
X144345000Y-82275000I0J-75000D01*
G01*
X144345000Y-82725000D01*
G75*
G02*
X144270000Y-82800000I-75000J0D01*
G01*
X142510000Y-82800000D01*
G75*
G02*
X142435000Y-82725000I0J75000D01*
G01*
G37*
G36*
G01*
X142435000Y-83995000D02*
X142435000Y-83545000D01*
G75*
G02*
X142510000Y-83470000I75000J0D01*
G01*
X144270000Y-83470000D01*
G75*
G02*
X144345000Y-83545000I0J-75000D01*
G01*
X144345000Y-83995000D01*
G75*
G02*
X144270000Y-84070000I-75000J0D01*
G01*
X142510000Y-84070000D01*
G75*
G02*
X142435000Y-83995000I0J75000D01*
G01*
G37*
G36*
G01*
X142435000Y-85265000D02*
X142435000Y-84815000D01*
G75*
G02*
X142510000Y-84740000I75000J0D01*
G01*
X144270000Y-84740000D01*
G75*
G02*
X144345000Y-84815000I0J-75000D01*
G01*
X144345000Y-85265000D01*
G75*
G02*
X144270000Y-85340000I-75000J0D01*
G01*
X142510000Y-85340000D01*
G75*
G02*
X142435000Y-85265000I0J75000D01*
G01*
G37*
G36*
G01*
X151655000Y-85265000D02*
X151655000Y-84815000D01*
G75*
G02*
X151730000Y-84740000I75000J0D01*
G01*
X153490000Y-84740000D01*
G75*
G02*
X153565000Y-84815000I0J-75000D01*
G01*
X153565000Y-85265000D01*
G75*
G02*
X153490000Y-85340000I-75000J0D01*
G01*
X151730000Y-85340000D01*
G75*
G02*
X151655000Y-85265000I0J75000D01*
G01*
G37*
G36*
G01*
X151655000Y-83995000D02*
X151655000Y-83545000D01*
G75*
G02*
X151730000Y-83470000I75000J0D01*
G01*
X153490000Y-83470000D01*
G75*
G02*
X153565000Y-83545000I0J-75000D01*
G01*
X153565000Y-83995000D01*
G75*
G02*
X153490000Y-84070000I-75000J0D01*
G01*
X151730000Y-84070000D01*
G75*
G02*
X151655000Y-83995000I0J75000D01*
G01*
G37*
G36*
G01*
X151655000Y-82725000D02*
X151655000Y-82275000D01*
G75*
G02*
X151730000Y-82200000I75000J0D01*
G01*
X153490000Y-82200000D01*
G75*
G02*
X153565000Y-82275000I0J-75000D01*
G01*
X153565000Y-82725000D01*
G75*
G02*
X153490000Y-82800000I-75000J0D01*
G01*
X151730000Y-82800000D01*
G75*
G02*
X151655000Y-82725000I0J75000D01*
G01*
G37*
G36*
G01*
X151655000Y-81455000D02*
X151655000Y-81005000D01*
G75*
G02*
X151730000Y-80930000I75000J0D01*
G01*
X153490000Y-80930000D01*
G75*
G02*
X153565000Y-81005000I0J-75000D01*
G01*
X153565000Y-81455000D01*
G75*
G02*
X153490000Y-81530000I-75000J0D01*
G01*
X151730000Y-81530000D01*
G75*
G02*
X151655000Y-81455000I0J75000D01*
G01*
G37*
G36*
G01*
X151655000Y-80185000D02*
X151655000Y-79735000D01*
G75*
G02*
X151730000Y-79660000I75000J0D01*
G01*
X153490000Y-79660000D01*
G75*
G02*
X153565000Y-79735000I0J-75000D01*
G01*
X153565000Y-80185000D01*
G75*
G02*
X153490000Y-80260000I-75000J0D01*
G01*
X151730000Y-80260000D01*
G75*
G02*
X151655000Y-80185000I0J75000D01*
G01*
G37*
G36*
G01*
X151655000Y-78915000D02*
X151655000Y-78465000D01*
G75*
G02*
X151730000Y-78390000I75000J0D01*
G01*
X153490000Y-78390000D01*
G75*
G02*
X153565000Y-78465000I0J-75000D01*
G01*
X153565000Y-78915000D01*
G75*
G02*
X153490000Y-78990000I-75000J0D01*
G01*
X151730000Y-78990000D01*
G75*
G02*
X151655000Y-78915000I0J75000D01*
G01*
G37*
G36*
G01*
X151655000Y-77645000D02*
X151655000Y-77195000D01*
G75*
G02*
X151730000Y-77120000I75000J0D01*
G01*
X153490000Y-77120000D01*
G75*
G02*
X153565000Y-77195000I0J-75000D01*
G01*
X153565000Y-77645000D01*
G75*
G02*
X153490000Y-77720000I-75000J0D01*
G01*
X151730000Y-77720000D01*
G75*
G02*
X151655000Y-77645000I0J75000D01*
G01*
G37*
G36*
G01*
X151655000Y-76375000D02*
X151655000Y-75925000D01*
G75*
G02*
X151730000Y-75850000I75000J0D01*
G01*
X153490000Y-75850000D01*
G75*
G02*
X153565000Y-75925000I0J-75000D01*
G01*
X153565000Y-76375000D01*
G75*
G02*
X153490000Y-76450000I-75000J0D01*
G01*
X151730000Y-76450000D01*
G75*
G02*
X151655000Y-76375000I0J75000D01*
G01*
G37*
G36*
G01*
X151655000Y-75105000D02*
X151655000Y-74655000D01*
G75*
G02*
X151730000Y-74580000I75000J0D01*
G01*
X153490000Y-74580000D01*
G75*
G02*
X153565000Y-74655000I0J-75000D01*
G01*
X153565000Y-75105000D01*
G75*
G02*
X153490000Y-75180000I-75000J0D01*
G01*
X151730000Y-75180000D01*
G75*
G02*
X151655000Y-75105000I0J75000D01*
G01*
G37*
G36*
G01*
X162937500Y-83075000D02*
X162937500Y-82925000D01*
G75*
G02*
X163012500Y-82850000I75000J0D01*
G01*
X164337500Y-82850000D01*
G75*
G02*
X164412500Y-82925000I0J-75000D01*
G01*
X164412500Y-83075000D01*
G75*
G02*
X164337500Y-83150000I-75000J0D01*
G01*
X163012500Y-83150000D01*
G75*
G02*
X162937500Y-83075000I0J75000D01*
G01*
G37*
G36*
G01*
X162937500Y-83575000D02*
X162937500Y-83425000D01*
G75*
G02*
X163012500Y-83350000I75000J0D01*
G01*
X164337500Y-83350000D01*
G75*
G02*
X164412500Y-83425000I0J-75000D01*
G01*
X164412500Y-83575000D01*
G75*
G02*
X164337500Y-83650000I-75000J0D01*
G01*
X163012500Y-83650000D01*
G75*
G02*
X162937500Y-83575000I0J75000D01*
G01*
G37*
G36*
G01*
X162937500Y-84075000D02*
X162937500Y-83925000D01*
G75*
G02*
X163012500Y-83850000I75000J0D01*
G01*
X164337500Y-83850000D01*
G75*
G02*
X164412500Y-83925000I0J-75000D01*
G01*
X164412500Y-84075000D01*
G75*
G02*
X164337500Y-84150000I-75000J0D01*
G01*
X163012500Y-84150000D01*
G75*
G02*
X162937500Y-84075000I0J75000D01*
G01*
G37*
G36*
G01*
X162937500Y-84575000D02*
X162937500Y-84425000D01*
G75*
G02*
X163012500Y-84350000I75000J0D01*
G01*
X164337500Y-84350000D01*
G75*
G02*
X164412500Y-84425000I0J-75000D01*
G01*
X164412500Y-84575000D01*
G75*
G02*
X164337500Y-84650000I-75000J0D01*
G01*
X163012500Y-84650000D01*
G75*
G02*
X162937500Y-84575000I0J75000D01*
G01*
G37*
G36*
G01*
X162937500Y-85075000D02*
X162937500Y-84925000D01*
G75*
G02*
X163012500Y-84850000I75000J0D01*
G01*
X164337500Y-84850000D01*
G75*
G02*
X164412500Y-84925000I0J-75000D01*
G01*
X164412500Y-85075000D01*
G75*
G02*
X164337500Y-85150000I-75000J0D01*
G01*
X163012500Y-85150000D01*
G75*
G02*
X162937500Y-85075000I0J75000D01*
G01*
G37*
G36*
G01*
X162937500Y-85575000D02*
X162937500Y-85425000D01*
G75*
G02*
X163012500Y-85350000I75000J0D01*
G01*
X164337500Y-85350000D01*
G75*
G02*
X164412500Y-85425000I0J-75000D01*
G01*
X164412500Y-85575000D01*
G75*
G02*
X164337500Y-85650000I-75000J0D01*
G01*
X163012500Y-85650000D01*
G75*
G02*
X162937500Y-85575000I0J75000D01*
G01*
G37*
G36*
G01*
X162937500Y-86075000D02*
X162937500Y-85925000D01*
G75*
G02*
X163012500Y-85850000I75000J0D01*
G01*
X164337500Y-85850000D01*
G75*
G02*
X164412500Y-85925000I0J-75000D01*
G01*
X164412500Y-86075000D01*
G75*
G02*
X164337500Y-86150000I-75000J0D01*
G01*
X163012500Y-86150000D01*
G75*
G02*
X162937500Y-86075000I0J75000D01*
G01*
G37*
G36*
G01*
X162937500Y-86575000D02*
X162937500Y-86425000D01*
G75*
G02*
X163012500Y-86350000I75000J0D01*
G01*
X164337500Y-86350000D01*
G75*
G02*
X164412500Y-86425000I0J-75000D01*
G01*
X164412500Y-86575000D01*
G75*
G02*
X164337500Y-86650000I-75000J0D01*
G01*
X163012500Y-86650000D01*
G75*
G02*
X162937500Y-86575000I0J75000D01*
G01*
G37*
G36*
G01*
X162937500Y-87075000D02*
X162937500Y-86925000D01*
G75*
G02*
X163012500Y-86850000I75000J0D01*
G01*
X164337500Y-86850000D01*
G75*
G02*
X164412500Y-86925000I0J-75000D01*
G01*
X164412500Y-87075000D01*
G75*
G02*
X164337500Y-87150000I-75000J0D01*
G01*
X163012500Y-87150000D01*
G75*
G02*
X162937500Y-87075000I0J75000D01*
G01*
G37*
G36*
G01*
X162937500Y-87575000D02*
X162937500Y-87425000D01*
G75*
G02*
X163012500Y-87350000I75000J0D01*
G01*
X164337500Y-87350000D01*
G75*
G02*
X164412500Y-87425000I0J-75000D01*
G01*
X164412500Y-87575000D01*
G75*
G02*
X164337500Y-87650000I-75000J0D01*
G01*
X163012500Y-87650000D01*
G75*
G02*
X162937500Y-87575000I0J75000D01*
G01*
G37*
G36*
G01*
X162937500Y-88075000D02*
X162937500Y-87925000D01*
G75*
G02*
X163012500Y-87850000I75000J0D01*
G01*
X164337500Y-87850000D01*
G75*
G02*
X164412500Y-87925000I0J-75000D01*
G01*
X164412500Y-88075000D01*
G75*
G02*
X164337500Y-88150000I-75000J0D01*
G01*
X163012500Y-88150000D01*
G75*
G02*
X162937500Y-88075000I0J75000D01*
G01*
G37*
G36*
G01*
X162937500Y-88575000D02*
X162937500Y-88425000D01*
G75*
G02*
X163012500Y-88350000I75000J0D01*
G01*
X164337500Y-88350000D01*
G75*
G02*
X164412500Y-88425000I0J-75000D01*
G01*
X164412500Y-88575000D01*
G75*
G02*
X164337500Y-88650000I-75000J0D01*
G01*
X163012500Y-88650000D01*
G75*
G02*
X162937500Y-88575000I0J75000D01*
G01*
G37*
G36*
G01*
X162937500Y-89075000D02*
X162937500Y-88925000D01*
G75*
G02*
X163012500Y-88850000I75000J0D01*
G01*
X164337500Y-88850000D01*
G75*
G02*
X164412500Y-88925000I0J-75000D01*
G01*
X164412500Y-89075000D01*
G75*
G02*
X164337500Y-89150000I-75000J0D01*
G01*
X163012500Y-89150000D01*
G75*
G02*
X162937500Y-89075000I0J75000D01*
G01*
G37*
G36*
G01*
X162937500Y-89575000D02*
X162937500Y-89425000D01*
G75*
G02*
X163012500Y-89350000I75000J0D01*
G01*
X164337500Y-89350000D01*
G75*
G02*
X164412500Y-89425000I0J-75000D01*
G01*
X164412500Y-89575000D01*
G75*
G02*
X164337500Y-89650000I-75000J0D01*
G01*
X163012500Y-89650000D01*
G75*
G02*
X162937500Y-89575000I0J75000D01*
G01*
G37*
G36*
G01*
X162937500Y-90075000D02*
X162937500Y-89925000D01*
G75*
G02*
X163012500Y-89850000I75000J0D01*
G01*
X164337500Y-89850000D01*
G75*
G02*
X164412500Y-89925000I0J-75000D01*
G01*
X164412500Y-90075000D01*
G75*
G02*
X164337500Y-90150000I-75000J0D01*
G01*
X163012500Y-90150000D01*
G75*
G02*
X162937500Y-90075000I0J75000D01*
G01*
G37*
G36*
G01*
X162937500Y-90575000D02*
X162937500Y-90425000D01*
G75*
G02*
X163012500Y-90350000I75000J0D01*
G01*
X164337500Y-90350000D01*
G75*
G02*
X164412500Y-90425000I0J-75000D01*
G01*
X164412500Y-90575000D01*
G75*
G02*
X164337500Y-90650000I-75000J0D01*
G01*
X163012500Y-90650000D01*
G75*
G02*
X162937500Y-90575000I0J75000D01*
G01*
G37*
G36*
G01*
X162937500Y-91075000D02*
X162937500Y-90925000D01*
G75*
G02*
X163012500Y-90850000I75000J0D01*
G01*
X164337500Y-90850000D01*
G75*
G02*
X164412500Y-90925000I0J-75000D01*
G01*
X164412500Y-91075000D01*
G75*
G02*
X164337500Y-91150000I-75000J0D01*
G01*
X163012500Y-91150000D01*
G75*
G02*
X162937500Y-91075000I0J75000D01*
G01*
G37*
G36*
G01*
X162937500Y-91575000D02*
X162937500Y-91425000D01*
G75*
G02*
X163012500Y-91350000I75000J0D01*
G01*
X164337500Y-91350000D01*
G75*
G02*
X164412500Y-91425000I0J-75000D01*
G01*
X164412500Y-91575000D01*
G75*
G02*
X164337500Y-91650000I-75000J0D01*
G01*
X163012500Y-91650000D01*
G75*
G02*
X162937500Y-91575000I0J75000D01*
G01*
G37*
G36*
G01*
X162937500Y-92075000D02*
X162937500Y-91925000D01*
G75*
G02*
X163012500Y-91850000I75000J0D01*
G01*
X164337500Y-91850000D01*
G75*
G02*
X164412500Y-91925000I0J-75000D01*
G01*
X164412500Y-92075000D01*
G75*
G02*
X164337500Y-92150000I-75000J0D01*
G01*
X163012500Y-92150000D01*
G75*
G02*
X162937500Y-92075000I0J75000D01*
G01*
G37*
G36*
G01*
X162937500Y-92575000D02*
X162937500Y-92425000D01*
G75*
G02*
X163012500Y-92350000I75000J0D01*
G01*
X164337500Y-92350000D01*
G75*
G02*
X164412500Y-92425000I0J-75000D01*
G01*
X164412500Y-92575000D01*
G75*
G02*
X164337500Y-92650000I-75000J0D01*
G01*
X163012500Y-92650000D01*
G75*
G02*
X162937500Y-92575000I0J75000D01*
G01*
G37*
G36*
G01*
X162937500Y-93075000D02*
X162937500Y-92925000D01*
G75*
G02*
X163012500Y-92850000I75000J0D01*
G01*
X164337500Y-92850000D01*
G75*
G02*
X164412500Y-92925000I0J-75000D01*
G01*
X164412500Y-93075000D01*
G75*
G02*
X164337500Y-93150000I-75000J0D01*
G01*
X163012500Y-93150000D01*
G75*
G02*
X162937500Y-93075000I0J75000D01*
G01*
G37*
G36*
G01*
X162937500Y-93575000D02*
X162937500Y-93425000D01*
G75*
G02*
X163012500Y-93350000I75000J0D01*
G01*
X164337500Y-93350000D01*
G75*
G02*
X164412500Y-93425000I0J-75000D01*
G01*
X164412500Y-93575000D01*
G75*
G02*
X164337500Y-93650000I-75000J0D01*
G01*
X163012500Y-93650000D01*
G75*
G02*
X162937500Y-93575000I0J75000D01*
G01*
G37*
G36*
G01*
X162937500Y-94075000D02*
X162937500Y-93925000D01*
G75*
G02*
X163012500Y-93850000I75000J0D01*
G01*
X164337500Y-93850000D01*
G75*
G02*
X164412500Y-93925000I0J-75000D01*
G01*
X164412500Y-94075000D01*
G75*
G02*
X164337500Y-94150000I-75000J0D01*
G01*
X163012500Y-94150000D01*
G75*
G02*
X162937500Y-94075000I0J75000D01*
G01*
G37*
G36*
G01*
X162937500Y-94575000D02*
X162937500Y-94425000D01*
G75*
G02*
X163012500Y-94350000I75000J0D01*
G01*
X164337500Y-94350000D01*
G75*
G02*
X164412500Y-94425000I0J-75000D01*
G01*
X164412500Y-94575000D01*
G75*
G02*
X164337500Y-94650000I-75000J0D01*
G01*
X163012500Y-94650000D01*
G75*
G02*
X162937500Y-94575000I0J75000D01*
G01*
G37*
G36*
G01*
X162937500Y-95075000D02*
X162937500Y-94925000D01*
G75*
G02*
X163012500Y-94850000I75000J0D01*
G01*
X164337500Y-94850000D01*
G75*
G02*
X164412500Y-94925000I0J-75000D01*
G01*
X164412500Y-95075000D01*
G75*
G02*
X164337500Y-95150000I-75000J0D01*
G01*
X163012500Y-95150000D01*
G75*
G02*
X162937500Y-95075000I0J75000D01*
G01*
G37*
G36*
G01*
X165187500Y-97325000D02*
X165187500Y-96000000D01*
G75*
G02*
X165262500Y-95925000I75000J0D01*
G01*
X165412500Y-95925000D01*
G75*
G02*
X165487500Y-96000000I0J-75000D01*
G01*
X165487500Y-97325000D01*
G75*
G02*
X165412500Y-97400000I-75000J0D01*
G01*
X165262500Y-97400000D01*
G75*
G02*
X165187500Y-97325000I0J75000D01*
G01*
G37*
G36*
G01*
X165687500Y-97325000D02*
X165687500Y-96000000D01*
G75*
G02*
X165762500Y-95925000I75000J0D01*
G01*
X165912500Y-95925000D01*
G75*
G02*
X165987500Y-96000000I0J-75000D01*
G01*
X165987500Y-97325000D01*
G75*
G02*
X165912500Y-97400000I-75000J0D01*
G01*
X165762500Y-97400000D01*
G75*
G02*
X165687500Y-97325000I0J75000D01*
G01*
G37*
G36*
G01*
X166187500Y-97325000D02*
X166187500Y-96000000D01*
G75*
G02*
X166262500Y-95925000I75000J0D01*
G01*
X166412500Y-95925000D01*
G75*
G02*
X166487500Y-96000000I0J-75000D01*
G01*
X166487500Y-97325000D01*
G75*
G02*
X166412500Y-97400000I-75000J0D01*
G01*
X166262500Y-97400000D01*
G75*
G02*
X166187500Y-97325000I0J75000D01*
G01*
G37*
G36*
G01*
X166687500Y-97325000D02*
X166687500Y-96000000D01*
G75*
G02*
X166762500Y-95925000I75000J0D01*
G01*
X166912500Y-95925000D01*
G75*
G02*
X166987500Y-96000000I0J-75000D01*
G01*
X166987500Y-97325000D01*
G75*
G02*
X166912500Y-97400000I-75000J0D01*
G01*
X166762500Y-97400000D01*
G75*
G02*
X166687500Y-97325000I0J75000D01*
G01*
G37*
G36*
G01*
X167187500Y-97325000D02*
X167187500Y-96000000D01*
G75*
G02*
X167262500Y-95925000I75000J0D01*
G01*
X167412500Y-95925000D01*
G75*
G02*
X167487500Y-96000000I0J-75000D01*
G01*
X167487500Y-97325000D01*
G75*
G02*
X167412500Y-97400000I-75000J0D01*
G01*
X167262500Y-97400000D01*
G75*
G02*
X167187500Y-97325000I0J75000D01*
G01*
G37*
G36*
G01*
X167687500Y-97325000D02*
X167687500Y-96000000D01*
G75*
G02*
X167762500Y-95925000I75000J0D01*
G01*
X167912500Y-95925000D01*
G75*
G02*
X167987500Y-96000000I0J-75000D01*
G01*
X167987500Y-97325000D01*
G75*
G02*
X167912500Y-97400000I-75000J0D01*
G01*
X167762500Y-97400000D01*
G75*
G02*
X167687500Y-97325000I0J75000D01*
G01*
G37*
G36*
G01*
X168187500Y-97325000D02*
X168187500Y-96000000D01*
G75*
G02*
X168262500Y-95925000I75000J0D01*
G01*
X168412500Y-95925000D01*
G75*
G02*
X168487500Y-96000000I0J-75000D01*
G01*
X168487500Y-97325000D01*
G75*
G02*
X168412500Y-97400000I-75000J0D01*
G01*
X168262500Y-97400000D01*
G75*
G02*
X168187500Y-97325000I0J75000D01*
G01*
G37*
G36*
G01*
X168687500Y-97325000D02*
X168687500Y-96000000D01*
G75*
G02*
X168762500Y-95925000I75000J0D01*
G01*
X168912500Y-95925000D01*
G75*
G02*
X168987500Y-96000000I0J-75000D01*
G01*
X168987500Y-97325000D01*
G75*
G02*
X168912500Y-97400000I-75000J0D01*
G01*
X168762500Y-97400000D01*
G75*
G02*
X168687500Y-97325000I0J75000D01*
G01*
G37*
G36*
G01*
X169187500Y-97325000D02*
X169187500Y-96000000D01*
G75*
G02*
X169262500Y-95925000I75000J0D01*
G01*
X169412500Y-95925000D01*
G75*
G02*
X169487500Y-96000000I0J-75000D01*
G01*
X169487500Y-97325000D01*
G75*
G02*
X169412500Y-97400000I-75000J0D01*
G01*
X169262500Y-97400000D01*
G75*
G02*
X169187500Y-97325000I0J75000D01*
G01*
G37*
G36*
G01*
X169687500Y-97325000D02*
X169687500Y-96000000D01*
G75*
G02*
X169762500Y-95925000I75000J0D01*
G01*
X169912500Y-95925000D01*
G75*
G02*
X169987500Y-96000000I0J-75000D01*
G01*
X169987500Y-97325000D01*
G75*
G02*
X169912500Y-97400000I-75000J0D01*
G01*
X169762500Y-97400000D01*
G75*
G02*
X169687500Y-97325000I0J75000D01*
G01*
G37*
G36*
G01*
X170187500Y-97325000D02*
X170187500Y-96000000D01*
G75*
G02*
X170262500Y-95925000I75000J0D01*
G01*
X170412500Y-95925000D01*
G75*
G02*
X170487500Y-96000000I0J-75000D01*
G01*
X170487500Y-97325000D01*
G75*
G02*
X170412500Y-97400000I-75000J0D01*
G01*
X170262500Y-97400000D01*
G75*
G02*
X170187500Y-97325000I0J75000D01*
G01*
G37*
G36*
G01*
X170687500Y-97325000D02*
X170687500Y-96000000D01*
G75*
G02*
X170762500Y-95925000I75000J0D01*
G01*
X170912500Y-95925000D01*
G75*
G02*
X170987500Y-96000000I0J-75000D01*
G01*
X170987500Y-97325000D01*
G75*
G02*
X170912500Y-97400000I-75000J0D01*
G01*
X170762500Y-97400000D01*
G75*
G02*
X170687500Y-97325000I0J75000D01*
G01*
G37*
G36*
G01*
X171187500Y-97325000D02*
X171187500Y-96000000D01*
G75*
G02*
X171262500Y-95925000I75000J0D01*
G01*
X171412500Y-95925000D01*
G75*
G02*
X171487500Y-96000000I0J-75000D01*
G01*
X171487500Y-97325000D01*
G75*
G02*
X171412500Y-97400000I-75000J0D01*
G01*
X171262500Y-97400000D01*
G75*
G02*
X171187500Y-97325000I0J75000D01*
G01*
G37*
G36*
G01*
X171687500Y-97325000D02*
X171687500Y-96000000D01*
G75*
G02*
X171762500Y-95925000I75000J0D01*
G01*
X171912500Y-95925000D01*
G75*
G02*
X171987500Y-96000000I0J-75000D01*
G01*
X171987500Y-97325000D01*
G75*
G02*
X171912500Y-97400000I-75000J0D01*
G01*
X171762500Y-97400000D01*
G75*
G02*
X171687500Y-97325000I0J75000D01*
G01*
G37*
G36*
G01*
X172187500Y-97325000D02*
X172187500Y-96000000D01*
G75*
G02*
X172262500Y-95925000I75000J0D01*
G01*
X172412500Y-95925000D01*
G75*
G02*
X172487500Y-96000000I0J-75000D01*
G01*
X172487500Y-97325000D01*
G75*
G02*
X172412500Y-97400000I-75000J0D01*
G01*
X172262500Y-97400000D01*
G75*
G02*
X172187500Y-97325000I0J75000D01*
G01*
G37*
G36*
G01*
X172687500Y-97325000D02*
X172687500Y-96000000D01*
G75*
G02*
X172762500Y-95925000I75000J0D01*
G01*
X172912500Y-95925000D01*
G75*
G02*
X172987500Y-96000000I0J-75000D01*
G01*
X172987500Y-97325000D01*
G75*
G02*
X172912500Y-97400000I-75000J0D01*
G01*
X172762500Y-97400000D01*
G75*
G02*
X172687500Y-97325000I0J75000D01*
G01*
G37*
G36*
G01*
X173187500Y-97325000D02*
X173187500Y-96000000D01*
G75*
G02*
X173262500Y-95925000I75000J0D01*
G01*
X173412500Y-95925000D01*
G75*
G02*
X173487500Y-96000000I0J-75000D01*
G01*
X173487500Y-97325000D01*
G75*
G02*
X173412500Y-97400000I-75000J0D01*
G01*
X173262500Y-97400000D01*
G75*
G02*
X173187500Y-97325000I0J75000D01*
G01*
G37*
G36*
G01*
X173687500Y-97325000D02*
X173687500Y-96000000D01*
G75*
G02*
X173762500Y-95925000I75000J0D01*
G01*
X173912500Y-95925000D01*
G75*
G02*
X173987500Y-96000000I0J-75000D01*
G01*
X173987500Y-97325000D01*
G75*
G02*
X173912500Y-97400000I-75000J0D01*
G01*
X173762500Y-97400000D01*
G75*
G02*
X173687500Y-97325000I0J75000D01*
G01*
G37*
G36*
G01*
X174187500Y-97325000D02*
X174187500Y-96000000D01*
G75*
G02*
X174262500Y-95925000I75000J0D01*
G01*
X174412500Y-95925000D01*
G75*
G02*
X174487500Y-96000000I0J-75000D01*
G01*
X174487500Y-97325000D01*
G75*
G02*
X174412500Y-97400000I-75000J0D01*
G01*
X174262500Y-97400000D01*
G75*
G02*
X174187500Y-97325000I0J75000D01*
G01*
G37*
G36*
G01*
X174687500Y-97325000D02*
X174687500Y-96000000D01*
G75*
G02*
X174762500Y-95925000I75000J0D01*
G01*
X174912500Y-95925000D01*
G75*
G02*
X174987500Y-96000000I0J-75000D01*
G01*
X174987500Y-97325000D01*
G75*
G02*
X174912500Y-97400000I-75000J0D01*
G01*
X174762500Y-97400000D01*
G75*
G02*
X174687500Y-97325000I0J75000D01*
G01*
G37*
G36*
G01*
X175187500Y-97325000D02*
X175187500Y-96000000D01*
G75*
G02*
X175262500Y-95925000I75000J0D01*
G01*
X175412500Y-95925000D01*
G75*
G02*
X175487500Y-96000000I0J-75000D01*
G01*
X175487500Y-97325000D01*
G75*
G02*
X175412500Y-97400000I-75000J0D01*
G01*
X175262500Y-97400000D01*
G75*
G02*
X175187500Y-97325000I0J75000D01*
G01*
G37*
G36*
G01*
X175687500Y-97325000D02*
X175687500Y-96000000D01*
G75*
G02*
X175762500Y-95925000I75000J0D01*
G01*
X175912500Y-95925000D01*
G75*
G02*
X175987500Y-96000000I0J-75000D01*
G01*
X175987500Y-97325000D01*
G75*
G02*
X175912500Y-97400000I-75000J0D01*
G01*
X175762500Y-97400000D01*
G75*
G02*
X175687500Y-97325000I0J75000D01*
G01*
G37*
G36*
G01*
X176187500Y-97325000D02*
X176187500Y-96000000D01*
G75*
G02*
X176262500Y-95925000I75000J0D01*
G01*
X176412500Y-95925000D01*
G75*
G02*
X176487500Y-96000000I0J-75000D01*
G01*
X176487500Y-97325000D01*
G75*
G02*
X176412500Y-97400000I-75000J0D01*
G01*
X176262500Y-97400000D01*
G75*
G02*
X176187500Y-97325000I0J75000D01*
G01*
G37*
G36*
G01*
X176687500Y-97325000D02*
X176687500Y-96000000D01*
G75*
G02*
X176762500Y-95925000I75000J0D01*
G01*
X176912500Y-95925000D01*
G75*
G02*
X176987500Y-96000000I0J-75000D01*
G01*
X176987500Y-97325000D01*
G75*
G02*
X176912500Y-97400000I-75000J0D01*
G01*
X176762500Y-97400000D01*
G75*
G02*
X176687500Y-97325000I0J75000D01*
G01*
G37*
G36*
G01*
X177187500Y-97325000D02*
X177187500Y-96000000D01*
G75*
G02*
X177262500Y-95925000I75000J0D01*
G01*
X177412500Y-95925000D01*
G75*
G02*
X177487500Y-96000000I0J-75000D01*
G01*
X177487500Y-97325000D01*
G75*
G02*
X177412500Y-97400000I-75000J0D01*
G01*
X177262500Y-97400000D01*
G75*
G02*
X177187500Y-97325000I0J75000D01*
G01*
G37*
G36*
G01*
X178262500Y-95075000D02*
X178262500Y-94925000D01*
G75*
G02*
X178337500Y-94850000I75000J0D01*
G01*
X179662500Y-94850000D01*
G75*
G02*
X179737500Y-94925000I0J-75000D01*
G01*
X179737500Y-95075000D01*
G75*
G02*
X179662500Y-95150000I-75000J0D01*
G01*
X178337500Y-95150000D01*
G75*
G02*
X178262500Y-95075000I0J75000D01*
G01*
G37*
G36*
G01*
X178262500Y-94575000D02*
X178262500Y-94425000D01*
G75*
G02*
X178337500Y-94350000I75000J0D01*
G01*
X179662500Y-94350000D01*
G75*
G02*
X179737500Y-94425000I0J-75000D01*
G01*
X179737500Y-94575000D01*
G75*
G02*
X179662500Y-94650000I-75000J0D01*
G01*
X178337500Y-94650000D01*
G75*
G02*
X178262500Y-94575000I0J75000D01*
G01*
G37*
G36*
G01*
X178262500Y-94075000D02*
X178262500Y-93925000D01*
G75*
G02*
X178337500Y-93850000I75000J0D01*
G01*
X179662500Y-93850000D01*
G75*
G02*
X179737500Y-93925000I0J-75000D01*
G01*
X179737500Y-94075000D01*
G75*
G02*
X179662500Y-94150000I-75000J0D01*
G01*
X178337500Y-94150000D01*
G75*
G02*
X178262500Y-94075000I0J75000D01*
G01*
G37*
G36*
G01*
X178262500Y-93575000D02*
X178262500Y-93425000D01*
G75*
G02*
X178337500Y-93350000I75000J0D01*
G01*
X179662500Y-93350000D01*
G75*
G02*
X179737500Y-93425000I0J-75000D01*
G01*
X179737500Y-93575000D01*
G75*
G02*
X179662500Y-93650000I-75000J0D01*
G01*
X178337500Y-93650000D01*
G75*
G02*
X178262500Y-93575000I0J75000D01*
G01*
G37*
G36*
G01*
X178262500Y-93075000D02*
X178262500Y-92925000D01*
G75*
G02*
X178337500Y-92850000I75000J0D01*
G01*
X179662500Y-92850000D01*
G75*
G02*
X179737500Y-92925000I0J-75000D01*
G01*
X179737500Y-93075000D01*
G75*
G02*
X179662500Y-93150000I-75000J0D01*
G01*
X178337500Y-93150000D01*
G75*
G02*
X178262500Y-93075000I0J75000D01*
G01*
G37*
G36*
G01*
X178262500Y-92575000D02*
X178262500Y-92425000D01*
G75*
G02*
X178337500Y-92350000I75000J0D01*
G01*
X179662500Y-92350000D01*
G75*
G02*
X179737500Y-92425000I0J-75000D01*
G01*
X179737500Y-92575000D01*
G75*
G02*
X179662500Y-92650000I-75000J0D01*
G01*
X178337500Y-92650000D01*
G75*
G02*
X178262500Y-92575000I0J75000D01*
G01*
G37*
G36*
G01*
X178262500Y-92075000D02*
X178262500Y-91925000D01*
G75*
G02*
X178337500Y-91850000I75000J0D01*
G01*
X179662500Y-91850000D01*
G75*
G02*
X179737500Y-91925000I0J-75000D01*
G01*
X179737500Y-92075000D01*
G75*
G02*
X179662500Y-92150000I-75000J0D01*
G01*
X178337500Y-92150000D01*
G75*
G02*
X178262500Y-92075000I0J75000D01*
G01*
G37*
G36*
G01*
X178262500Y-91575000D02*
X178262500Y-91425000D01*
G75*
G02*
X178337500Y-91350000I75000J0D01*
G01*
X179662500Y-91350000D01*
G75*
G02*
X179737500Y-91425000I0J-75000D01*
G01*
X179737500Y-91575000D01*
G75*
G02*
X179662500Y-91650000I-75000J0D01*
G01*
X178337500Y-91650000D01*
G75*
G02*
X178262500Y-91575000I0J75000D01*
G01*
G37*
G36*
G01*
X178262500Y-91075000D02*
X178262500Y-90925000D01*
G75*
G02*
X178337500Y-90850000I75000J0D01*
G01*
X179662500Y-90850000D01*
G75*
G02*
X179737500Y-90925000I0J-75000D01*
G01*
X179737500Y-91075000D01*
G75*
G02*
X179662500Y-91150000I-75000J0D01*
G01*
X178337500Y-91150000D01*
G75*
G02*
X178262500Y-91075000I0J75000D01*
G01*
G37*
G36*
G01*
X178262500Y-90575000D02*
X178262500Y-90425000D01*
G75*
G02*
X178337500Y-90350000I75000J0D01*
G01*
X179662500Y-90350000D01*
G75*
G02*
X179737500Y-90425000I0J-75000D01*
G01*
X179737500Y-90575000D01*
G75*
G02*
X179662500Y-90650000I-75000J0D01*
G01*
X178337500Y-90650000D01*
G75*
G02*
X178262500Y-90575000I0J75000D01*
G01*
G37*
G36*
G01*
X178262500Y-90075000D02*
X178262500Y-89925000D01*
G75*
G02*
X178337500Y-89850000I75000J0D01*
G01*
X179662500Y-89850000D01*
G75*
G02*
X179737500Y-89925000I0J-75000D01*
G01*
X179737500Y-90075000D01*
G75*
G02*
X179662500Y-90150000I-75000J0D01*
G01*
X178337500Y-90150000D01*
G75*
G02*
X178262500Y-90075000I0J75000D01*
G01*
G37*
G36*
G01*
X178262500Y-89575000D02*
X178262500Y-89425000D01*
G75*
G02*
X178337500Y-89350000I75000J0D01*
G01*
X179662500Y-89350000D01*
G75*
G02*
X179737500Y-89425000I0J-75000D01*
G01*
X179737500Y-89575000D01*
G75*
G02*
X179662500Y-89650000I-75000J0D01*
G01*
X178337500Y-89650000D01*
G75*
G02*
X178262500Y-89575000I0J75000D01*
G01*
G37*
G36*
G01*
X178262500Y-89075000D02*
X178262500Y-88925000D01*
G75*
G02*
X178337500Y-88850000I75000J0D01*
G01*
X179662500Y-88850000D01*
G75*
G02*
X179737500Y-88925000I0J-75000D01*
G01*
X179737500Y-89075000D01*
G75*
G02*
X179662500Y-89150000I-75000J0D01*
G01*
X178337500Y-89150000D01*
G75*
G02*
X178262500Y-89075000I0J75000D01*
G01*
G37*
G36*
G01*
X178262500Y-88575000D02*
X178262500Y-88425000D01*
G75*
G02*
X178337500Y-88350000I75000J0D01*
G01*
X179662500Y-88350000D01*
G75*
G02*
X179737500Y-88425000I0J-75000D01*
G01*
X179737500Y-88575000D01*
G75*
G02*
X179662500Y-88650000I-75000J0D01*
G01*
X178337500Y-88650000D01*
G75*
G02*
X178262500Y-88575000I0J75000D01*
G01*
G37*
G36*
G01*
X178262500Y-88075000D02*
X178262500Y-87925000D01*
G75*
G02*
X178337500Y-87850000I75000J0D01*
G01*
X179662500Y-87850000D01*
G75*
G02*
X179737500Y-87925000I0J-75000D01*
G01*
X179737500Y-88075000D01*
G75*
G02*
X179662500Y-88150000I-75000J0D01*
G01*
X178337500Y-88150000D01*
G75*
G02*
X178262500Y-88075000I0J75000D01*
G01*
G37*
G36*
G01*
X178262500Y-87575000D02*
X178262500Y-87425000D01*
G75*
G02*
X178337500Y-87350000I75000J0D01*
G01*
X179662500Y-87350000D01*
G75*
G02*
X179737500Y-87425000I0J-75000D01*
G01*
X179737500Y-87575000D01*
G75*
G02*
X179662500Y-87650000I-75000J0D01*
G01*
X178337500Y-87650000D01*
G75*
G02*
X178262500Y-87575000I0J75000D01*
G01*
G37*
G36*
G01*
X178262500Y-87075000D02*
X178262500Y-86925000D01*
G75*
G02*
X178337500Y-86850000I75000J0D01*
G01*
X179662500Y-86850000D01*
G75*
G02*
X179737500Y-86925000I0J-75000D01*
G01*
X179737500Y-87075000D01*
G75*
G02*
X179662500Y-87150000I-75000J0D01*
G01*
X178337500Y-87150000D01*
G75*
G02*
X178262500Y-87075000I0J75000D01*
G01*
G37*
G36*
G01*
X178262500Y-86575000D02*
X178262500Y-86425000D01*
G75*
G02*
X178337500Y-86350000I75000J0D01*
G01*
X179662500Y-86350000D01*
G75*
G02*
X179737500Y-86425000I0J-75000D01*
G01*
X179737500Y-86575000D01*
G75*
G02*
X179662500Y-86650000I-75000J0D01*
G01*
X178337500Y-86650000D01*
G75*
G02*
X178262500Y-86575000I0J75000D01*
G01*
G37*
G36*
G01*
X178262500Y-86075000D02*
X178262500Y-85925000D01*
G75*
G02*
X178337500Y-85850000I75000J0D01*
G01*
X179662500Y-85850000D01*
G75*
G02*
X179737500Y-85925000I0J-75000D01*
G01*
X179737500Y-86075000D01*
G75*
G02*
X179662500Y-86150000I-75000J0D01*
G01*
X178337500Y-86150000D01*
G75*
G02*
X178262500Y-86075000I0J75000D01*
G01*
G37*
G36*
G01*
X178262500Y-85575000D02*
X178262500Y-85425000D01*
G75*
G02*
X178337500Y-85350000I75000J0D01*
G01*
X179662500Y-85350000D01*
G75*
G02*
X179737500Y-85425000I0J-75000D01*
G01*
X179737500Y-85575000D01*
G75*
G02*
X179662500Y-85650000I-75000J0D01*
G01*
X178337500Y-85650000D01*
G75*
G02*
X178262500Y-85575000I0J75000D01*
G01*
G37*
G36*
G01*
X178262500Y-85075000D02*
X178262500Y-84925000D01*
G75*
G02*
X178337500Y-84850000I75000J0D01*
G01*
X179662500Y-84850000D01*
G75*
G02*
X179737500Y-84925000I0J-75000D01*
G01*
X179737500Y-85075000D01*
G75*
G02*
X179662500Y-85150000I-75000J0D01*
G01*
X178337500Y-85150000D01*
G75*
G02*
X178262500Y-85075000I0J75000D01*
G01*
G37*
G36*
G01*
X178262500Y-84575000D02*
X178262500Y-84425000D01*
G75*
G02*
X178337500Y-84350000I75000J0D01*
G01*
X179662500Y-84350000D01*
G75*
G02*
X179737500Y-84425000I0J-75000D01*
G01*
X179737500Y-84575000D01*
G75*
G02*
X179662500Y-84650000I-75000J0D01*
G01*
X178337500Y-84650000D01*
G75*
G02*
X178262500Y-84575000I0J75000D01*
G01*
G37*
G36*
G01*
X178262500Y-84075000D02*
X178262500Y-83925000D01*
G75*
G02*
X178337500Y-83850000I75000J0D01*
G01*
X179662500Y-83850000D01*
G75*
G02*
X179737500Y-83925000I0J-75000D01*
G01*
X179737500Y-84075000D01*
G75*
G02*
X179662500Y-84150000I-75000J0D01*
G01*
X178337500Y-84150000D01*
G75*
G02*
X178262500Y-84075000I0J75000D01*
G01*
G37*
G36*
G01*
X178262500Y-83575000D02*
X178262500Y-83425000D01*
G75*
G02*
X178337500Y-83350000I75000J0D01*
G01*
X179662500Y-83350000D01*
G75*
G02*
X179737500Y-83425000I0J-75000D01*
G01*
X179737500Y-83575000D01*
G75*
G02*
X179662500Y-83650000I-75000J0D01*
G01*
X178337500Y-83650000D01*
G75*
G02*
X178262500Y-83575000I0J75000D01*
G01*
G37*
G36*
G01*
X178262500Y-83075000D02*
X178262500Y-82925000D01*
G75*
G02*
X178337500Y-82850000I75000J0D01*
G01*
X179662500Y-82850000D01*
G75*
G02*
X179737500Y-82925000I0J-75000D01*
G01*
X179737500Y-83075000D01*
G75*
G02*
X179662500Y-83150000I-75000J0D01*
G01*
X178337500Y-83150000D01*
G75*
G02*
X178262500Y-83075000I0J75000D01*
G01*
G37*
G36*
G01*
X177187500Y-82000000D02*
X177187500Y-80675000D01*
G75*
G02*
X177262500Y-80600000I75000J0D01*
G01*
X177412500Y-80600000D01*
G75*
G02*
X177487500Y-80675000I0J-75000D01*
G01*
X177487500Y-82000000D01*
G75*
G02*
X177412500Y-82075000I-75000J0D01*
G01*
X177262500Y-82075000D01*
G75*
G02*
X177187500Y-82000000I0J75000D01*
G01*
G37*
G36*
G01*
X176687500Y-82000000D02*
X176687500Y-80675000D01*
G75*
G02*
X176762500Y-80600000I75000J0D01*
G01*
X176912500Y-80600000D01*
G75*
G02*
X176987500Y-80675000I0J-75000D01*
G01*
X176987500Y-82000000D01*
G75*
G02*
X176912500Y-82075000I-75000J0D01*
G01*
X176762500Y-82075000D01*
G75*
G02*
X176687500Y-82000000I0J75000D01*
G01*
G37*
G36*
G01*
X176187500Y-82000000D02*
X176187500Y-80675000D01*
G75*
G02*
X176262500Y-80600000I75000J0D01*
G01*
X176412500Y-80600000D01*
G75*
G02*
X176487500Y-80675000I0J-75000D01*
G01*
X176487500Y-82000000D01*
G75*
G02*
X176412500Y-82075000I-75000J0D01*
G01*
X176262500Y-82075000D01*
G75*
G02*
X176187500Y-82000000I0J75000D01*
G01*
G37*
G36*
G01*
X175687500Y-82000000D02*
X175687500Y-80675000D01*
G75*
G02*
X175762500Y-80600000I75000J0D01*
G01*
X175912500Y-80600000D01*
G75*
G02*
X175987500Y-80675000I0J-75000D01*
G01*
X175987500Y-82000000D01*
G75*
G02*
X175912500Y-82075000I-75000J0D01*
G01*
X175762500Y-82075000D01*
G75*
G02*
X175687500Y-82000000I0J75000D01*
G01*
G37*
G36*
G01*
X175187500Y-82000000D02*
X175187500Y-80675000D01*
G75*
G02*
X175262500Y-80600000I75000J0D01*
G01*
X175412500Y-80600000D01*
G75*
G02*
X175487500Y-80675000I0J-75000D01*
G01*
X175487500Y-82000000D01*
G75*
G02*
X175412500Y-82075000I-75000J0D01*
G01*
X175262500Y-82075000D01*
G75*
G02*
X175187500Y-82000000I0J75000D01*
G01*
G37*
G36*
G01*
X174687500Y-82000000D02*
X174687500Y-80675000D01*
G75*
G02*
X174762500Y-80600000I75000J0D01*
G01*
X174912500Y-80600000D01*
G75*
G02*
X174987500Y-80675000I0J-75000D01*
G01*
X174987500Y-82000000D01*
G75*
G02*
X174912500Y-82075000I-75000J0D01*
G01*
X174762500Y-82075000D01*
G75*
G02*
X174687500Y-82000000I0J75000D01*
G01*
G37*
G36*
G01*
X174187500Y-82000000D02*
X174187500Y-80675000D01*
G75*
G02*
X174262500Y-80600000I75000J0D01*
G01*
X174412500Y-80600000D01*
G75*
G02*
X174487500Y-80675000I0J-75000D01*
G01*
X174487500Y-82000000D01*
G75*
G02*
X174412500Y-82075000I-75000J0D01*
G01*
X174262500Y-82075000D01*
G75*
G02*
X174187500Y-82000000I0J75000D01*
G01*
G37*
G36*
G01*
X173687500Y-82000000D02*
X173687500Y-80675000D01*
G75*
G02*
X173762500Y-80600000I75000J0D01*
G01*
X173912500Y-80600000D01*
G75*
G02*
X173987500Y-80675000I0J-75000D01*
G01*
X173987500Y-82000000D01*
G75*
G02*
X173912500Y-82075000I-75000J0D01*
G01*
X173762500Y-82075000D01*
G75*
G02*
X173687500Y-82000000I0J75000D01*
G01*
G37*
G36*
G01*
X173187500Y-82000000D02*
X173187500Y-80675000D01*
G75*
G02*
X173262500Y-80600000I75000J0D01*
G01*
X173412500Y-80600000D01*
G75*
G02*
X173487500Y-80675000I0J-75000D01*
G01*
X173487500Y-82000000D01*
G75*
G02*
X173412500Y-82075000I-75000J0D01*
G01*
X173262500Y-82075000D01*
G75*
G02*
X173187500Y-82000000I0J75000D01*
G01*
G37*
G36*
G01*
X172687500Y-82000000D02*
X172687500Y-80675000D01*
G75*
G02*
X172762500Y-80600000I75000J0D01*
G01*
X172912500Y-80600000D01*
G75*
G02*
X172987500Y-80675000I0J-75000D01*
G01*
X172987500Y-82000000D01*
G75*
G02*
X172912500Y-82075000I-75000J0D01*
G01*
X172762500Y-82075000D01*
G75*
G02*
X172687500Y-82000000I0J75000D01*
G01*
G37*
G36*
G01*
X172187500Y-82000000D02*
X172187500Y-80675000D01*
G75*
G02*
X172262500Y-80600000I75000J0D01*
G01*
X172412500Y-80600000D01*
G75*
G02*
X172487500Y-80675000I0J-75000D01*
G01*
X172487500Y-82000000D01*
G75*
G02*
X172412500Y-82075000I-75000J0D01*
G01*
X172262500Y-82075000D01*
G75*
G02*
X172187500Y-82000000I0J75000D01*
G01*
G37*
G36*
G01*
X171687500Y-82000000D02*
X171687500Y-80675000D01*
G75*
G02*
X171762500Y-80600000I75000J0D01*
G01*
X171912500Y-80600000D01*
G75*
G02*
X171987500Y-80675000I0J-75000D01*
G01*
X171987500Y-82000000D01*
G75*
G02*
X171912500Y-82075000I-75000J0D01*
G01*
X171762500Y-82075000D01*
G75*
G02*
X171687500Y-82000000I0J75000D01*
G01*
G37*
G36*
G01*
X171187500Y-82000000D02*
X171187500Y-80675000D01*
G75*
G02*
X171262500Y-80600000I75000J0D01*
G01*
X171412500Y-80600000D01*
G75*
G02*
X171487500Y-80675000I0J-75000D01*
G01*
X171487500Y-82000000D01*
G75*
G02*
X171412500Y-82075000I-75000J0D01*
G01*
X171262500Y-82075000D01*
G75*
G02*
X171187500Y-82000000I0J75000D01*
G01*
G37*
G36*
G01*
X170687500Y-82000000D02*
X170687500Y-80675000D01*
G75*
G02*
X170762500Y-80600000I75000J0D01*
G01*
X170912500Y-80600000D01*
G75*
G02*
X170987500Y-80675000I0J-75000D01*
G01*
X170987500Y-82000000D01*
G75*
G02*
X170912500Y-82075000I-75000J0D01*
G01*
X170762500Y-82075000D01*
G75*
G02*
X170687500Y-82000000I0J75000D01*
G01*
G37*
G36*
G01*
X170187500Y-82000000D02*
X170187500Y-80675000D01*
G75*
G02*
X170262500Y-80600000I75000J0D01*
G01*
X170412500Y-80600000D01*
G75*
G02*
X170487500Y-80675000I0J-75000D01*
G01*
X170487500Y-82000000D01*
G75*
G02*
X170412500Y-82075000I-75000J0D01*
G01*
X170262500Y-82075000D01*
G75*
G02*
X170187500Y-82000000I0J75000D01*
G01*
G37*
G36*
G01*
X169687500Y-82000000D02*
X169687500Y-80675000D01*
G75*
G02*
X169762500Y-80600000I75000J0D01*
G01*
X169912500Y-80600000D01*
G75*
G02*
X169987500Y-80675000I0J-75000D01*
G01*
X169987500Y-82000000D01*
G75*
G02*
X169912500Y-82075000I-75000J0D01*
G01*
X169762500Y-82075000D01*
G75*
G02*
X169687500Y-82000000I0J75000D01*
G01*
G37*
G36*
G01*
X169187500Y-82000000D02*
X169187500Y-80675000D01*
G75*
G02*
X169262500Y-80600000I75000J0D01*
G01*
X169412500Y-80600000D01*
G75*
G02*
X169487500Y-80675000I0J-75000D01*
G01*
X169487500Y-82000000D01*
G75*
G02*
X169412500Y-82075000I-75000J0D01*
G01*
X169262500Y-82075000D01*
G75*
G02*
X169187500Y-82000000I0J75000D01*
G01*
G37*
G36*
G01*
X168687500Y-82000000D02*
X168687500Y-80675000D01*
G75*
G02*
X168762500Y-80600000I75000J0D01*
G01*
X168912500Y-80600000D01*
G75*
G02*
X168987500Y-80675000I0J-75000D01*
G01*
X168987500Y-82000000D01*
G75*
G02*
X168912500Y-82075000I-75000J0D01*
G01*
X168762500Y-82075000D01*
G75*
G02*
X168687500Y-82000000I0J75000D01*
G01*
G37*
G36*
G01*
X168187500Y-82000000D02*
X168187500Y-80675000D01*
G75*
G02*
X168262500Y-80600000I75000J0D01*
G01*
X168412500Y-80600000D01*
G75*
G02*
X168487500Y-80675000I0J-75000D01*
G01*
X168487500Y-82000000D01*
G75*
G02*
X168412500Y-82075000I-75000J0D01*
G01*
X168262500Y-82075000D01*
G75*
G02*
X168187500Y-82000000I0J75000D01*
G01*
G37*
G36*
G01*
X167687500Y-82000000D02*
X167687500Y-80675000D01*
G75*
G02*
X167762500Y-80600000I75000J0D01*
G01*
X167912500Y-80600000D01*
G75*
G02*
X167987500Y-80675000I0J-75000D01*
G01*
X167987500Y-82000000D01*
G75*
G02*
X167912500Y-82075000I-75000J0D01*
G01*
X167762500Y-82075000D01*
G75*
G02*
X167687500Y-82000000I0J75000D01*
G01*
G37*
G36*
G01*
X167187500Y-82000000D02*
X167187500Y-80675000D01*
G75*
G02*
X167262500Y-80600000I75000J0D01*
G01*
X167412500Y-80600000D01*
G75*
G02*
X167487500Y-80675000I0J-75000D01*
G01*
X167487500Y-82000000D01*
G75*
G02*
X167412500Y-82075000I-75000J0D01*
G01*
X167262500Y-82075000D01*
G75*
G02*
X167187500Y-82000000I0J75000D01*
G01*
G37*
G36*
G01*
X166687500Y-82000000D02*
X166687500Y-80675000D01*
G75*
G02*
X166762500Y-80600000I75000J0D01*
G01*
X166912500Y-80600000D01*
G75*
G02*
X166987500Y-80675000I0J-75000D01*
G01*
X166987500Y-82000000D01*
G75*
G02*
X166912500Y-82075000I-75000J0D01*
G01*
X166762500Y-82075000D01*
G75*
G02*
X166687500Y-82000000I0J75000D01*
G01*
G37*
G36*
G01*
X166187500Y-82000000D02*
X166187500Y-80675000D01*
G75*
G02*
X166262500Y-80600000I75000J0D01*
G01*
X166412500Y-80600000D01*
G75*
G02*
X166487500Y-80675000I0J-75000D01*
G01*
X166487500Y-82000000D01*
G75*
G02*
X166412500Y-82075000I-75000J0D01*
G01*
X166262500Y-82075000D01*
G75*
G02*
X166187500Y-82000000I0J75000D01*
G01*
G37*
G36*
G01*
X165687500Y-82000000D02*
X165687500Y-80675000D01*
G75*
G02*
X165762500Y-80600000I75000J0D01*
G01*
X165912500Y-80600000D01*
G75*
G02*
X165987500Y-80675000I0J-75000D01*
G01*
X165987500Y-82000000D01*
G75*
G02*
X165912500Y-82075000I-75000J0D01*
G01*
X165762500Y-82075000D01*
G75*
G02*
X165687500Y-82000000I0J75000D01*
G01*
G37*
G36*
G01*
X165187500Y-82000000D02*
X165187500Y-80675000D01*
G75*
G02*
X165262500Y-80600000I75000J0D01*
G01*
X165412500Y-80600000D01*
G75*
G02*
X165487500Y-80675000I0J-75000D01*
G01*
X165487500Y-82000000D01*
G75*
G02*
X165412500Y-82075000I-75000J0D01*
G01*
X165262500Y-82075000D01*
G75*
G02*
X165187500Y-82000000I0J75000D01*
G01*
G37*
G36*
G01*
X112012500Y-55050000D02*
X112012500Y-55950000D01*
G75*
G02*
X111762500Y-56200000I-250000J0D01*
G01*
X111237500Y-56200000D01*
G75*
G02*
X110987500Y-55950000I0J250000D01*
G01*
X110987500Y-55050000D01*
G75*
G02*
X111237500Y-54800000I250000J0D01*
G01*
X111762500Y-54800000D01*
G75*
G02*
X112012500Y-55050000I0J-250000D01*
G01*
G37*
G36*
G01*
X110187500Y-55050000D02*
X110187500Y-55950000D01*
G75*
G02*
X109937500Y-56200000I-250000J0D01*
G01*
X109412500Y-56200000D01*
G75*
G02*
X109162500Y-55950000I0J250000D01*
G01*
X109162500Y-55050000D01*
G75*
G02*
X109412500Y-54800000I250000J0D01*
G01*
X109937500Y-54800000D01*
G75*
G02*
X110187500Y-55050000I0J-250000D01*
G01*
G37*
G36*
G01*
X116600000Y-60475000D02*
X116600000Y-59525000D01*
G75*
G02*
X116850000Y-59275000I250000J0D01*
G01*
X117350000Y-59275000D01*
G75*
G02*
X117600000Y-59525000I0J-250000D01*
G01*
X117600000Y-60475000D01*
G75*
G02*
X117350000Y-60725000I-250000J0D01*
G01*
X116850000Y-60725000D01*
G75*
G02*
X116600000Y-60475000I0J250000D01*
G01*
G37*
G36*
G01*
X118500000Y-60475000D02*
X118500000Y-59525000D01*
G75*
G02*
X118750000Y-59275000I250000J0D01*
G01*
X119250000Y-59275000D01*
G75*
G02*
X119500000Y-59525000I0J-250000D01*
G01*
X119500000Y-60475000D01*
G75*
G02*
X119250000Y-60725000I-250000J0D01*
G01*
X118750000Y-60725000D01*
G75*
G02*
X118500000Y-60475000I0J250000D01*
G01*
G37*
G36*
G01*
X142435000Y-48145000D02*
X142435000Y-47695000D01*
G75*
G02*
X142510000Y-47620000I75000J0D01*
G01*
X144270000Y-47620000D01*
G75*
G02*
X144345000Y-47695000I0J-75000D01*
G01*
X144345000Y-48145000D01*
G75*
G02*
X144270000Y-48220000I-75000J0D01*
G01*
X142510000Y-48220000D01*
G75*
G02*
X142435000Y-48145000I0J75000D01*
G01*
G37*
G36*
G01*
X142435000Y-49415000D02*
X142435000Y-48965000D01*
G75*
G02*
X142510000Y-48890000I75000J0D01*
G01*
X144270000Y-48890000D01*
G75*
G02*
X144345000Y-48965000I0J-75000D01*
G01*
X144345000Y-49415000D01*
G75*
G02*
X144270000Y-49490000I-75000J0D01*
G01*
X142510000Y-49490000D01*
G75*
G02*
X142435000Y-49415000I0J75000D01*
G01*
G37*
G36*
G01*
X142435000Y-50685000D02*
X142435000Y-50235000D01*
G75*
G02*
X142510000Y-50160000I75000J0D01*
G01*
X144270000Y-50160000D01*
G75*
G02*
X144345000Y-50235000I0J-75000D01*
G01*
X144345000Y-50685000D01*
G75*
G02*
X144270000Y-50760000I-75000J0D01*
G01*
X142510000Y-50760000D01*
G75*
G02*
X142435000Y-50685000I0J75000D01*
G01*
G37*
G36*
G01*
X142435000Y-51955000D02*
X142435000Y-51505000D01*
G75*
G02*
X142510000Y-51430000I75000J0D01*
G01*
X144270000Y-51430000D01*
G75*
G02*
X144345000Y-51505000I0J-75000D01*
G01*
X144345000Y-51955000D01*
G75*
G02*
X144270000Y-52030000I-75000J0D01*
G01*
X142510000Y-52030000D01*
G75*
G02*
X142435000Y-51955000I0J75000D01*
G01*
G37*
G36*
G01*
X142435000Y-53225000D02*
X142435000Y-52775000D01*
G75*
G02*
X142510000Y-52700000I75000J0D01*
G01*
X144270000Y-52700000D01*
G75*
G02*
X144345000Y-52775000I0J-75000D01*
G01*
X144345000Y-53225000D01*
G75*
G02*
X144270000Y-53300000I-75000J0D01*
G01*
X142510000Y-53300000D01*
G75*
G02*
X142435000Y-53225000I0J75000D01*
G01*
G37*
G36*
G01*
X142435000Y-54495000D02*
X142435000Y-54045000D01*
G75*
G02*
X142510000Y-53970000I75000J0D01*
G01*
X144270000Y-53970000D01*
G75*
G02*
X144345000Y-54045000I0J-75000D01*
G01*
X144345000Y-54495000D01*
G75*
G02*
X144270000Y-54570000I-75000J0D01*
G01*
X142510000Y-54570000D01*
G75*
G02*
X142435000Y-54495000I0J75000D01*
G01*
G37*
G36*
G01*
X142435000Y-55765000D02*
X142435000Y-55315000D01*
G75*
G02*
X142510000Y-55240000I75000J0D01*
G01*
X144270000Y-55240000D01*
G75*
G02*
X144345000Y-55315000I0J-75000D01*
G01*
X144345000Y-55765000D01*
G75*
G02*
X144270000Y-55840000I-75000J0D01*
G01*
X142510000Y-55840000D01*
G75*
G02*
X142435000Y-55765000I0J75000D01*
G01*
G37*
G36*
G01*
X142435000Y-57035000D02*
X142435000Y-56585000D01*
G75*
G02*
X142510000Y-56510000I75000J0D01*
G01*
X144270000Y-56510000D01*
G75*
G02*
X144345000Y-56585000I0J-75000D01*
G01*
X144345000Y-57035000D01*
G75*
G02*
X144270000Y-57110000I-75000J0D01*
G01*
X142510000Y-57110000D01*
G75*
G02*
X142435000Y-57035000I0J75000D01*
G01*
G37*
G36*
G01*
X142435000Y-58305000D02*
X142435000Y-57855000D01*
G75*
G02*
X142510000Y-57780000I75000J0D01*
G01*
X144270000Y-57780000D01*
G75*
G02*
X144345000Y-57855000I0J-75000D01*
G01*
X144345000Y-58305000D01*
G75*
G02*
X144270000Y-58380000I-75000J0D01*
G01*
X142510000Y-58380000D01*
G75*
G02*
X142435000Y-58305000I0J75000D01*
G01*
G37*
G36*
G01*
X151655000Y-58305000D02*
X151655000Y-57855000D01*
G75*
G02*
X151730000Y-57780000I75000J0D01*
G01*
X153490000Y-57780000D01*
G75*
G02*
X153565000Y-57855000I0J-75000D01*
G01*
X153565000Y-58305000D01*
G75*
G02*
X153490000Y-58380000I-75000J0D01*
G01*
X151730000Y-58380000D01*
G75*
G02*
X151655000Y-58305000I0J75000D01*
G01*
G37*
G36*
G01*
X151655000Y-57035000D02*
X151655000Y-56585000D01*
G75*
G02*
X151730000Y-56510000I75000J0D01*
G01*
X153490000Y-56510000D01*
G75*
G02*
X153565000Y-56585000I0J-75000D01*
G01*
X153565000Y-57035000D01*
G75*
G02*
X153490000Y-57110000I-75000J0D01*
G01*
X151730000Y-57110000D01*
G75*
G02*
X151655000Y-57035000I0J75000D01*
G01*
G37*
G36*
G01*
X151655000Y-55765000D02*
X151655000Y-55315000D01*
G75*
G02*
X151730000Y-55240000I75000J0D01*
G01*
X153490000Y-55240000D01*
G75*
G02*
X153565000Y-55315000I0J-75000D01*
G01*
X153565000Y-55765000D01*
G75*
G02*
X153490000Y-55840000I-75000J0D01*
G01*
X151730000Y-55840000D01*
G75*
G02*
X151655000Y-55765000I0J75000D01*
G01*
G37*
G36*
G01*
X151655000Y-54495000D02*
X151655000Y-54045000D01*
G75*
G02*
X151730000Y-53970000I75000J0D01*
G01*
X153490000Y-53970000D01*
G75*
G02*
X153565000Y-54045000I0J-75000D01*
G01*
X153565000Y-54495000D01*
G75*
G02*
X153490000Y-54570000I-75000J0D01*
G01*
X151730000Y-54570000D01*
G75*
G02*
X151655000Y-54495000I0J75000D01*
G01*
G37*
G36*
G01*
X151655000Y-53225000D02*
X151655000Y-52775000D01*
G75*
G02*
X151730000Y-52700000I75000J0D01*
G01*
X153490000Y-52700000D01*
G75*
G02*
X153565000Y-52775000I0J-75000D01*
G01*
X153565000Y-53225000D01*
G75*
G02*
X153490000Y-53300000I-75000J0D01*
G01*
X151730000Y-53300000D01*
G75*
G02*
X151655000Y-53225000I0J75000D01*
G01*
G37*
G36*
G01*
X151655000Y-51955000D02*
X151655000Y-51505000D01*
G75*
G02*
X151730000Y-51430000I75000J0D01*
G01*
X153490000Y-51430000D01*
G75*
G02*
X153565000Y-51505000I0J-75000D01*
G01*
X153565000Y-51955000D01*
G75*
G02*
X153490000Y-52030000I-75000J0D01*
G01*
X151730000Y-52030000D01*
G75*
G02*
X151655000Y-51955000I0J75000D01*
G01*
G37*
G36*
G01*
X151655000Y-50685000D02*
X151655000Y-50235000D01*
G75*
G02*
X151730000Y-50160000I75000J0D01*
G01*
X153490000Y-50160000D01*
G75*
G02*
X153565000Y-50235000I0J-75000D01*
G01*
X153565000Y-50685000D01*
G75*
G02*
X153490000Y-50760000I-75000J0D01*
G01*
X151730000Y-50760000D01*
G75*
G02*
X151655000Y-50685000I0J75000D01*
G01*
G37*
G36*
G01*
X151655000Y-49415000D02*
X151655000Y-48965000D01*
G75*
G02*
X151730000Y-48890000I75000J0D01*
G01*
X153490000Y-48890000D01*
G75*
G02*
X153565000Y-48965000I0J-75000D01*
G01*
X153565000Y-49415000D01*
G75*
G02*
X153490000Y-49490000I-75000J0D01*
G01*
X151730000Y-49490000D01*
G75*
G02*
X151655000Y-49415000I0J75000D01*
G01*
G37*
G36*
G01*
X151655000Y-48145000D02*
X151655000Y-47695000D01*
G75*
G02*
X151730000Y-47620000I75000J0D01*
G01*
X153490000Y-47620000D01*
G75*
G02*
X153565000Y-47695000I0J-75000D01*
G01*
X153565000Y-48145000D01*
G75*
G02*
X153490000Y-48220000I-75000J0D01*
G01*
X151730000Y-48220000D01*
G75*
G02*
X151655000Y-48145000I0J75000D01*
G01*
G37*
G36*
G01*
X162937500Y-50575000D02*
X162937500Y-50425000D01*
G75*
G02*
X163012500Y-50350000I75000J0D01*
G01*
X164337500Y-50350000D01*
G75*
G02*
X164412500Y-50425000I0J-75000D01*
G01*
X164412500Y-50575000D01*
G75*
G02*
X164337500Y-50650000I-75000J0D01*
G01*
X163012500Y-50650000D01*
G75*
G02*
X162937500Y-50575000I0J75000D01*
G01*
G37*
G36*
G01*
X162937500Y-51075000D02*
X162937500Y-50925000D01*
G75*
G02*
X163012500Y-50850000I75000J0D01*
G01*
X164337500Y-50850000D01*
G75*
G02*
X164412500Y-50925000I0J-75000D01*
G01*
X164412500Y-51075000D01*
G75*
G02*
X164337500Y-51150000I-75000J0D01*
G01*
X163012500Y-51150000D01*
G75*
G02*
X162937500Y-51075000I0J75000D01*
G01*
G37*
G36*
G01*
X162937500Y-51575000D02*
X162937500Y-51425000D01*
G75*
G02*
X163012500Y-51350000I75000J0D01*
G01*
X164337500Y-51350000D01*
G75*
G02*
X164412500Y-51425000I0J-75000D01*
G01*
X164412500Y-51575000D01*
G75*
G02*
X164337500Y-51650000I-75000J0D01*
G01*
X163012500Y-51650000D01*
G75*
G02*
X162937500Y-51575000I0J75000D01*
G01*
G37*
G36*
G01*
X162937500Y-52075000D02*
X162937500Y-51925000D01*
G75*
G02*
X163012500Y-51850000I75000J0D01*
G01*
X164337500Y-51850000D01*
G75*
G02*
X164412500Y-51925000I0J-75000D01*
G01*
X164412500Y-52075000D01*
G75*
G02*
X164337500Y-52150000I-75000J0D01*
G01*
X163012500Y-52150000D01*
G75*
G02*
X162937500Y-52075000I0J75000D01*
G01*
G37*
G36*
G01*
X162937500Y-52575000D02*
X162937500Y-52425000D01*
G75*
G02*
X163012500Y-52350000I75000J0D01*
G01*
X164337500Y-52350000D01*
G75*
G02*
X164412500Y-52425000I0J-75000D01*
G01*
X164412500Y-52575000D01*
G75*
G02*
X164337500Y-52650000I-75000J0D01*
G01*
X163012500Y-52650000D01*
G75*
G02*
X162937500Y-52575000I0J75000D01*
G01*
G37*
G36*
G01*
X162937500Y-53075000D02*
X162937500Y-52925000D01*
G75*
G02*
X163012500Y-52850000I75000J0D01*
G01*
X164337500Y-52850000D01*
G75*
G02*
X164412500Y-52925000I0J-75000D01*
G01*
X164412500Y-53075000D01*
G75*
G02*
X164337500Y-53150000I-75000J0D01*
G01*
X163012500Y-53150000D01*
G75*
G02*
X162937500Y-53075000I0J75000D01*
G01*
G37*
G36*
G01*
X162937500Y-53575000D02*
X162937500Y-53425000D01*
G75*
G02*
X163012500Y-53350000I75000J0D01*
G01*
X164337500Y-53350000D01*
G75*
G02*
X164412500Y-53425000I0J-75000D01*
G01*
X164412500Y-53575000D01*
G75*
G02*
X164337500Y-53650000I-75000J0D01*
G01*
X163012500Y-53650000D01*
G75*
G02*
X162937500Y-53575000I0J75000D01*
G01*
G37*
G36*
G01*
X162937500Y-54075000D02*
X162937500Y-53925000D01*
G75*
G02*
X163012500Y-53850000I75000J0D01*
G01*
X164337500Y-53850000D01*
G75*
G02*
X164412500Y-53925000I0J-75000D01*
G01*
X164412500Y-54075000D01*
G75*
G02*
X164337500Y-54150000I-75000J0D01*
G01*
X163012500Y-54150000D01*
G75*
G02*
X162937500Y-54075000I0J75000D01*
G01*
G37*
G36*
G01*
X162937500Y-54575000D02*
X162937500Y-54425000D01*
G75*
G02*
X163012500Y-54350000I75000J0D01*
G01*
X164337500Y-54350000D01*
G75*
G02*
X164412500Y-54425000I0J-75000D01*
G01*
X164412500Y-54575000D01*
G75*
G02*
X164337500Y-54650000I-75000J0D01*
G01*
X163012500Y-54650000D01*
G75*
G02*
X162937500Y-54575000I0J75000D01*
G01*
G37*
G36*
G01*
X162937500Y-55075000D02*
X162937500Y-54925000D01*
G75*
G02*
X163012500Y-54850000I75000J0D01*
G01*
X164337500Y-54850000D01*
G75*
G02*
X164412500Y-54925000I0J-75000D01*
G01*
X164412500Y-55075000D01*
G75*
G02*
X164337500Y-55150000I-75000J0D01*
G01*
X163012500Y-55150000D01*
G75*
G02*
X162937500Y-55075000I0J75000D01*
G01*
G37*
G36*
G01*
X162937500Y-55575000D02*
X162937500Y-55425000D01*
G75*
G02*
X163012500Y-55350000I75000J0D01*
G01*
X164337500Y-55350000D01*
G75*
G02*
X164412500Y-55425000I0J-75000D01*
G01*
X164412500Y-55575000D01*
G75*
G02*
X164337500Y-55650000I-75000J0D01*
G01*
X163012500Y-55650000D01*
G75*
G02*
X162937500Y-55575000I0J75000D01*
G01*
G37*
G36*
G01*
X162937500Y-56075000D02*
X162937500Y-55925000D01*
G75*
G02*
X163012500Y-55850000I75000J0D01*
G01*
X164337500Y-55850000D01*
G75*
G02*
X164412500Y-55925000I0J-75000D01*
G01*
X164412500Y-56075000D01*
G75*
G02*
X164337500Y-56150000I-75000J0D01*
G01*
X163012500Y-56150000D01*
G75*
G02*
X162937500Y-56075000I0J75000D01*
G01*
G37*
G36*
G01*
X162937500Y-56575000D02*
X162937500Y-56425000D01*
G75*
G02*
X163012500Y-56350000I75000J0D01*
G01*
X164337500Y-56350000D01*
G75*
G02*
X164412500Y-56425000I0J-75000D01*
G01*
X164412500Y-56575000D01*
G75*
G02*
X164337500Y-56650000I-75000J0D01*
G01*
X163012500Y-56650000D01*
G75*
G02*
X162937500Y-56575000I0J75000D01*
G01*
G37*
G36*
G01*
X162937500Y-57075000D02*
X162937500Y-56925000D01*
G75*
G02*
X163012500Y-56850000I75000J0D01*
G01*
X164337500Y-56850000D01*
G75*
G02*
X164412500Y-56925000I0J-75000D01*
G01*
X164412500Y-57075000D01*
G75*
G02*
X164337500Y-57150000I-75000J0D01*
G01*
X163012500Y-57150000D01*
G75*
G02*
X162937500Y-57075000I0J75000D01*
G01*
G37*
G36*
G01*
X162937500Y-57575000D02*
X162937500Y-57425000D01*
G75*
G02*
X163012500Y-57350000I75000J0D01*
G01*
X164337500Y-57350000D01*
G75*
G02*
X164412500Y-57425000I0J-75000D01*
G01*
X164412500Y-57575000D01*
G75*
G02*
X164337500Y-57650000I-75000J0D01*
G01*
X163012500Y-57650000D01*
G75*
G02*
X162937500Y-57575000I0J75000D01*
G01*
G37*
G36*
G01*
X162937500Y-58075000D02*
X162937500Y-57925000D01*
G75*
G02*
X163012500Y-57850000I75000J0D01*
G01*
X164337500Y-57850000D01*
G75*
G02*
X164412500Y-57925000I0J-75000D01*
G01*
X164412500Y-58075000D01*
G75*
G02*
X164337500Y-58150000I-75000J0D01*
G01*
X163012500Y-58150000D01*
G75*
G02*
X162937500Y-58075000I0J75000D01*
G01*
G37*
G36*
G01*
X162937500Y-58575000D02*
X162937500Y-58425000D01*
G75*
G02*
X163012500Y-58350000I75000J0D01*
G01*
X164337500Y-58350000D01*
G75*
G02*
X164412500Y-58425000I0J-75000D01*
G01*
X164412500Y-58575000D01*
G75*
G02*
X164337500Y-58650000I-75000J0D01*
G01*
X163012500Y-58650000D01*
G75*
G02*
X162937500Y-58575000I0J75000D01*
G01*
G37*
G36*
G01*
X162937500Y-59075000D02*
X162937500Y-58925000D01*
G75*
G02*
X163012500Y-58850000I75000J0D01*
G01*
X164337500Y-58850000D01*
G75*
G02*
X164412500Y-58925000I0J-75000D01*
G01*
X164412500Y-59075000D01*
G75*
G02*
X164337500Y-59150000I-75000J0D01*
G01*
X163012500Y-59150000D01*
G75*
G02*
X162937500Y-59075000I0J75000D01*
G01*
G37*
G36*
G01*
X162937500Y-59575000D02*
X162937500Y-59425000D01*
G75*
G02*
X163012500Y-59350000I75000J0D01*
G01*
X164337500Y-59350000D01*
G75*
G02*
X164412500Y-59425000I0J-75000D01*
G01*
X164412500Y-59575000D01*
G75*
G02*
X164337500Y-59650000I-75000J0D01*
G01*
X163012500Y-59650000D01*
G75*
G02*
X162937500Y-59575000I0J75000D01*
G01*
G37*
G36*
G01*
X162937500Y-60075000D02*
X162937500Y-59925000D01*
G75*
G02*
X163012500Y-59850000I75000J0D01*
G01*
X164337500Y-59850000D01*
G75*
G02*
X164412500Y-59925000I0J-75000D01*
G01*
X164412500Y-60075000D01*
G75*
G02*
X164337500Y-60150000I-75000J0D01*
G01*
X163012500Y-60150000D01*
G75*
G02*
X162937500Y-60075000I0J75000D01*
G01*
G37*
G36*
G01*
X162937500Y-60575000D02*
X162937500Y-60425000D01*
G75*
G02*
X163012500Y-60350000I75000J0D01*
G01*
X164337500Y-60350000D01*
G75*
G02*
X164412500Y-60425000I0J-75000D01*
G01*
X164412500Y-60575000D01*
G75*
G02*
X164337500Y-60650000I-75000J0D01*
G01*
X163012500Y-60650000D01*
G75*
G02*
X162937500Y-60575000I0J75000D01*
G01*
G37*
G36*
G01*
X162937500Y-61075000D02*
X162937500Y-60925000D01*
G75*
G02*
X163012500Y-60850000I75000J0D01*
G01*
X164337500Y-60850000D01*
G75*
G02*
X164412500Y-60925000I0J-75000D01*
G01*
X164412500Y-61075000D01*
G75*
G02*
X164337500Y-61150000I-75000J0D01*
G01*
X163012500Y-61150000D01*
G75*
G02*
X162937500Y-61075000I0J75000D01*
G01*
G37*
G36*
G01*
X162937500Y-61575000D02*
X162937500Y-61425000D01*
G75*
G02*
X163012500Y-61350000I75000J0D01*
G01*
X164337500Y-61350000D01*
G75*
G02*
X164412500Y-61425000I0J-75000D01*
G01*
X164412500Y-61575000D01*
G75*
G02*
X164337500Y-61650000I-75000J0D01*
G01*
X163012500Y-61650000D01*
G75*
G02*
X162937500Y-61575000I0J75000D01*
G01*
G37*
G36*
G01*
X162937500Y-62075000D02*
X162937500Y-61925000D01*
G75*
G02*
X163012500Y-61850000I75000J0D01*
G01*
X164337500Y-61850000D01*
G75*
G02*
X164412500Y-61925000I0J-75000D01*
G01*
X164412500Y-62075000D01*
G75*
G02*
X164337500Y-62150000I-75000J0D01*
G01*
X163012500Y-62150000D01*
G75*
G02*
X162937500Y-62075000I0J75000D01*
G01*
G37*
G36*
G01*
X162937500Y-62575000D02*
X162937500Y-62425000D01*
G75*
G02*
X163012500Y-62350000I75000J0D01*
G01*
X164337500Y-62350000D01*
G75*
G02*
X164412500Y-62425000I0J-75000D01*
G01*
X164412500Y-62575000D01*
G75*
G02*
X164337500Y-62650000I-75000J0D01*
G01*
X163012500Y-62650000D01*
G75*
G02*
X162937500Y-62575000I0J75000D01*
G01*
G37*
G36*
G01*
X165187500Y-64825000D02*
X165187500Y-63500000D01*
G75*
G02*
X165262500Y-63425000I75000J0D01*
G01*
X165412500Y-63425000D01*
G75*
G02*
X165487500Y-63500000I0J-75000D01*
G01*
X165487500Y-64825000D01*
G75*
G02*
X165412500Y-64900000I-75000J0D01*
G01*
X165262500Y-64900000D01*
G75*
G02*
X165187500Y-64825000I0J75000D01*
G01*
G37*
G36*
G01*
X165687500Y-64825000D02*
X165687500Y-63500000D01*
G75*
G02*
X165762500Y-63425000I75000J0D01*
G01*
X165912500Y-63425000D01*
G75*
G02*
X165987500Y-63500000I0J-75000D01*
G01*
X165987500Y-64825000D01*
G75*
G02*
X165912500Y-64900000I-75000J0D01*
G01*
X165762500Y-64900000D01*
G75*
G02*
X165687500Y-64825000I0J75000D01*
G01*
G37*
G36*
G01*
X166187500Y-64825000D02*
X166187500Y-63500000D01*
G75*
G02*
X166262500Y-63425000I75000J0D01*
G01*
X166412500Y-63425000D01*
G75*
G02*
X166487500Y-63500000I0J-75000D01*
G01*
X166487500Y-64825000D01*
G75*
G02*
X166412500Y-64900000I-75000J0D01*
G01*
X166262500Y-64900000D01*
G75*
G02*
X166187500Y-64825000I0J75000D01*
G01*
G37*
G36*
G01*
X166687500Y-64825000D02*
X166687500Y-63500000D01*
G75*
G02*
X166762500Y-63425000I75000J0D01*
G01*
X166912500Y-63425000D01*
G75*
G02*
X166987500Y-63500000I0J-75000D01*
G01*
X166987500Y-64825000D01*
G75*
G02*
X166912500Y-64900000I-75000J0D01*
G01*
X166762500Y-64900000D01*
G75*
G02*
X166687500Y-64825000I0J75000D01*
G01*
G37*
G36*
G01*
X167187500Y-64825000D02*
X167187500Y-63500000D01*
G75*
G02*
X167262500Y-63425000I75000J0D01*
G01*
X167412500Y-63425000D01*
G75*
G02*
X167487500Y-63500000I0J-75000D01*
G01*
X167487500Y-64825000D01*
G75*
G02*
X167412500Y-64900000I-75000J0D01*
G01*
X167262500Y-64900000D01*
G75*
G02*
X167187500Y-64825000I0J75000D01*
G01*
G37*
G36*
G01*
X167687500Y-64825000D02*
X167687500Y-63500000D01*
G75*
G02*
X167762500Y-63425000I75000J0D01*
G01*
X167912500Y-63425000D01*
G75*
G02*
X167987500Y-63500000I0J-75000D01*
G01*
X167987500Y-64825000D01*
G75*
G02*
X167912500Y-64900000I-75000J0D01*
G01*
X167762500Y-64900000D01*
G75*
G02*
X167687500Y-64825000I0J75000D01*
G01*
G37*
G36*
G01*
X168187500Y-64825000D02*
X168187500Y-63500000D01*
G75*
G02*
X168262500Y-63425000I75000J0D01*
G01*
X168412500Y-63425000D01*
G75*
G02*
X168487500Y-63500000I0J-75000D01*
G01*
X168487500Y-64825000D01*
G75*
G02*
X168412500Y-64900000I-75000J0D01*
G01*
X168262500Y-64900000D01*
G75*
G02*
X168187500Y-64825000I0J75000D01*
G01*
G37*
G36*
G01*
X168687500Y-64825000D02*
X168687500Y-63500000D01*
G75*
G02*
X168762500Y-63425000I75000J0D01*
G01*
X168912500Y-63425000D01*
G75*
G02*
X168987500Y-63500000I0J-75000D01*
G01*
X168987500Y-64825000D01*
G75*
G02*
X168912500Y-64900000I-75000J0D01*
G01*
X168762500Y-64900000D01*
G75*
G02*
X168687500Y-64825000I0J75000D01*
G01*
G37*
G36*
G01*
X169187500Y-64825000D02*
X169187500Y-63500000D01*
G75*
G02*
X169262500Y-63425000I75000J0D01*
G01*
X169412500Y-63425000D01*
G75*
G02*
X169487500Y-63500000I0J-75000D01*
G01*
X169487500Y-64825000D01*
G75*
G02*
X169412500Y-64900000I-75000J0D01*
G01*
X169262500Y-64900000D01*
G75*
G02*
X169187500Y-64825000I0J75000D01*
G01*
G37*
G36*
G01*
X169687500Y-64825000D02*
X169687500Y-63500000D01*
G75*
G02*
X169762500Y-63425000I75000J0D01*
G01*
X169912500Y-63425000D01*
G75*
G02*
X169987500Y-63500000I0J-75000D01*
G01*
X169987500Y-64825000D01*
G75*
G02*
X169912500Y-64900000I-75000J0D01*
G01*
X169762500Y-64900000D01*
G75*
G02*
X169687500Y-64825000I0J75000D01*
G01*
G37*
G36*
G01*
X170187500Y-64825000D02*
X170187500Y-63500000D01*
G75*
G02*
X170262500Y-63425000I75000J0D01*
G01*
X170412500Y-63425000D01*
G75*
G02*
X170487500Y-63500000I0J-75000D01*
G01*
X170487500Y-64825000D01*
G75*
G02*
X170412500Y-64900000I-75000J0D01*
G01*
X170262500Y-64900000D01*
G75*
G02*
X170187500Y-64825000I0J75000D01*
G01*
G37*
G36*
G01*
X170687500Y-64825000D02*
X170687500Y-63500000D01*
G75*
G02*
X170762500Y-63425000I75000J0D01*
G01*
X170912500Y-63425000D01*
G75*
G02*
X170987500Y-63500000I0J-75000D01*
G01*
X170987500Y-64825000D01*
G75*
G02*
X170912500Y-64900000I-75000J0D01*
G01*
X170762500Y-64900000D01*
G75*
G02*
X170687500Y-64825000I0J75000D01*
G01*
G37*
G36*
G01*
X171187500Y-64825000D02*
X171187500Y-63500000D01*
G75*
G02*
X171262500Y-63425000I75000J0D01*
G01*
X171412500Y-63425000D01*
G75*
G02*
X171487500Y-63500000I0J-75000D01*
G01*
X171487500Y-64825000D01*
G75*
G02*
X171412500Y-64900000I-75000J0D01*
G01*
X171262500Y-64900000D01*
G75*
G02*
X171187500Y-64825000I0J75000D01*
G01*
G37*
G36*
G01*
X171687500Y-64825000D02*
X171687500Y-63500000D01*
G75*
G02*
X171762500Y-63425000I75000J0D01*
G01*
X171912500Y-63425000D01*
G75*
G02*
X171987500Y-63500000I0J-75000D01*
G01*
X171987500Y-64825000D01*
G75*
G02*
X171912500Y-64900000I-75000J0D01*
G01*
X171762500Y-64900000D01*
G75*
G02*
X171687500Y-64825000I0J75000D01*
G01*
G37*
G36*
G01*
X172187500Y-64825000D02*
X172187500Y-63500000D01*
G75*
G02*
X172262500Y-63425000I75000J0D01*
G01*
X172412500Y-63425000D01*
G75*
G02*
X172487500Y-63500000I0J-75000D01*
G01*
X172487500Y-64825000D01*
G75*
G02*
X172412500Y-64900000I-75000J0D01*
G01*
X172262500Y-64900000D01*
G75*
G02*
X172187500Y-64825000I0J75000D01*
G01*
G37*
G36*
G01*
X172687500Y-64825000D02*
X172687500Y-63500000D01*
G75*
G02*
X172762500Y-63425000I75000J0D01*
G01*
X172912500Y-63425000D01*
G75*
G02*
X172987500Y-63500000I0J-75000D01*
G01*
X172987500Y-64825000D01*
G75*
G02*
X172912500Y-64900000I-75000J0D01*
G01*
X172762500Y-64900000D01*
G75*
G02*
X172687500Y-64825000I0J75000D01*
G01*
G37*
G36*
G01*
X173187500Y-64825000D02*
X173187500Y-63500000D01*
G75*
G02*
X173262500Y-63425000I75000J0D01*
G01*
X173412500Y-63425000D01*
G75*
G02*
X173487500Y-63500000I0J-75000D01*
G01*
X173487500Y-64825000D01*
G75*
G02*
X173412500Y-64900000I-75000J0D01*
G01*
X173262500Y-64900000D01*
G75*
G02*
X173187500Y-64825000I0J75000D01*
G01*
G37*
G36*
G01*
X173687500Y-64825000D02*
X173687500Y-63500000D01*
G75*
G02*
X173762500Y-63425000I75000J0D01*
G01*
X173912500Y-63425000D01*
G75*
G02*
X173987500Y-63500000I0J-75000D01*
G01*
X173987500Y-64825000D01*
G75*
G02*
X173912500Y-64900000I-75000J0D01*
G01*
X173762500Y-64900000D01*
G75*
G02*
X173687500Y-64825000I0J75000D01*
G01*
G37*
G36*
G01*
X174187500Y-64825000D02*
X174187500Y-63500000D01*
G75*
G02*
X174262500Y-63425000I75000J0D01*
G01*
X174412500Y-63425000D01*
G75*
G02*
X174487500Y-63500000I0J-75000D01*
G01*
X174487500Y-64825000D01*
G75*
G02*
X174412500Y-64900000I-75000J0D01*
G01*
X174262500Y-64900000D01*
G75*
G02*
X174187500Y-64825000I0J75000D01*
G01*
G37*
G36*
G01*
X174687500Y-64825000D02*
X174687500Y-63500000D01*
G75*
G02*
X174762500Y-63425000I75000J0D01*
G01*
X174912500Y-63425000D01*
G75*
G02*
X174987500Y-63500000I0J-75000D01*
G01*
X174987500Y-64825000D01*
G75*
G02*
X174912500Y-64900000I-75000J0D01*
G01*
X174762500Y-64900000D01*
G75*
G02*
X174687500Y-64825000I0J75000D01*
G01*
G37*
G36*
G01*
X175187500Y-64825000D02*
X175187500Y-63500000D01*
G75*
G02*
X175262500Y-63425000I75000J0D01*
G01*
X175412500Y-63425000D01*
G75*
G02*
X175487500Y-63500000I0J-75000D01*
G01*
X175487500Y-64825000D01*
G75*
G02*
X175412500Y-64900000I-75000J0D01*
G01*
X175262500Y-64900000D01*
G75*
G02*
X175187500Y-64825000I0J75000D01*
G01*
G37*
G36*
G01*
X175687500Y-64825000D02*
X175687500Y-63500000D01*
G75*
G02*
X175762500Y-63425000I75000J0D01*
G01*
X175912500Y-63425000D01*
G75*
G02*
X175987500Y-63500000I0J-75000D01*
G01*
X175987500Y-64825000D01*
G75*
G02*
X175912500Y-64900000I-75000J0D01*
G01*
X175762500Y-64900000D01*
G75*
G02*
X175687500Y-64825000I0J75000D01*
G01*
G37*
G36*
G01*
X176187500Y-64825000D02*
X176187500Y-63500000D01*
G75*
G02*
X176262500Y-63425000I75000J0D01*
G01*
X176412500Y-63425000D01*
G75*
G02*
X176487500Y-63500000I0J-75000D01*
G01*
X176487500Y-64825000D01*
G75*
G02*
X176412500Y-64900000I-75000J0D01*
G01*
X176262500Y-64900000D01*
G75*
G02*
X176187500Y-64825000I0J75000D01*
G01*
G37*
G36*
G01*
X176687500Y-64825000D02*
X176687500Y-63500000D01*
G75*
G02*
X176762500Y-63425000I75000J0D01*
G01*
X176912500Y-63425000D01*
G75*
G02*
X176987500Y-63500000I0J-75000D01*
G01*
X176987500Y-64825000D01*
G75*
G02*
X176912500Y-64900000I-75000J0D01*
G01*
X176762500Y-64900000D01*
G75*
G02*
X176687500Y-64825000I0J75000D01*
G01*
G37*
G36*
G01*
X177187500Y-64825000D02*
X177187500Y-63500000D01*
G75*
G02*
X177262500Y-63425000I75000J0D01*
G01*
X177412500Y-63425000D01*
G75*
G02*
X177487500Y-63500000I0J-75000D01*
G01*
X177487500Y-64825000D01*
G75*
G02*
X177412500Y-64900000I-75000J0D01*
G01*
X177262500Y-64900000D01*
G75*
G02*
X177187500Y-64825000I0J75000D01*
G01*
G37*
G36*
G01*
X178262500Y-62575000D02*
X178262500Y-62425000D01*
G75*
G02*
X178337500Y-62350000I75000J0D01*
G01*
X179662500Y-62350000D01*
G75*
G02*
X179737500Y-62425000I0J-75000D01*
G01*
X179737500Y-62575000D01*
G75*
G02*
X179662500Y-62650000I-75000J0D01*
G01*
X178337500Y-62650000D01*
G75*
G02*
X178262500Y-62575000I0J75000D01*
G01*
G37*
G36*
G01*
X178262500Y-62075000D02*
X178262500Y-61925000D01*
G75*
G02*
X178337500Y-61850000I75000J0D01*
G01*
X179662500Y-61850000D01*
G75*
G02*
X179737500Y-61925000I0J-75000D01*
G01*
X179737500Y-62075000D01*
G75*
G02*
X179662500Y-62150000I-75000J0D01*
G01*
X178337500Y-62150000D01*
G75*
G02*
X178262500Y-62075000I0J75000D01*
G01*
G37*
G36*
G01*
X178262500Y-61575000D02*
X178262500Y-61425000D01*
G75*
G02*
X178337500Y-61350000I75000J0D01*
G01*
X179662500Y-61350000D01*
G75*
G02*
X179737500Y-61425000I0J-75000D01*
G01*
X179737500Y-61575000D01*
G75*
G02*
X179662500Y-61650000I-75000J0D01*
G01*
X178337500Y-61650000D01*
G75*
G02*
X178262500Y-61575000I0J75000D01*
G01*
G37*
G36*
G01*
X178262500Y-61075000D02*
X178262500Y-60925000D01*
G75*
G02*
X178337500Y-60850000I75000J0D01*
G01*
X179662500Y-60850000D01*
G75*
G02*
X179737500Y-60925000I0J-75000D01*
G01*
X179737500Y-61075000D01*
G75*
G02*
X179662500Y-61150000I-75000J0D01*
G01*
X178337500Y-61150000D01*
G75*
G02*
X178262500Y-61075000I0J75000D01*
G01*
G37*
G36*
G01*
X178262500Y-60575000D02*
X178262500Y-60425000D01*
G75*
G02*
X178337500Y-60350000I75000J0D01*
G01*
X179662500Y-60350000D01*
G75*
G02*
X179737500Y-60425000I0J-75000D01*
G01*
X179737500Y-60575000D01*
G75*
G02*
X179662500Y-60650000I-75000J0D01*
G01*
X178337500Y-60650000D01*
G75*
G02*
X178262500Y-60575000I0J75000D01*
G01*
G37*
G36*
G01*
X178262500Y-60075000D02*
X178262500Y-59925000D01*
G75*
G02*
X178337500Y-59850000I75000J0D01*
G01*
X179662500Y-59850000D01*
G75*
G02*
X179737500Y-59925000I0J-75000D01*
G01*
X179737500Y-60075000D01*
G75*
G02*
X179662500Y-60150000I-75000J0D01*
G01*
X178337500Y-60150000D01*
G75*
G02*
X178262500Y-60075000I0J75000D01*
G01*
G37*
G36*
G01*
X178262500Y-59575000D02*
X178262500Y-59425000D01*
G75*
G02*
X178337500Y-59350000I75000J0D01*
G01*
X179662500Y-59350000D01*
G75*
G02*
X179737500Y-59425000I0J-75000D01*
G01*
X179737500Y-59575000D01*
G75*
G02*
X179662500Y-59650000I-75000J0D01*
G01*
X178337500Y-59650000D01*
G75*
G02*
X178262500Y-59575000I0J75000D01*
G01*
G37*
G36*
G01*
X178262500Y-59075000D02*
X178262500Y-58925000D01*
G75*
G02*
X178337500Y-58850000I75000J0D01*
G01*
X179662500Y-58850000D01*
G75*
G02*
X179737500Y-58925000I0J-75000D01*
G01*
X179737500Y-59075000D01*
G75*
G02*
X179662500Y-59150000I-75000J0D01*
G01*
X178337500Y-59150000D01*
G75*
G02*
X178262500Y-59075000I0J75000D01*
G01*
G37*
G36*
G01*
X178262500Y-58575000D02*
X178262500Y-58425000D01*
G75*
G02*
X178337500Y-58350000I75000J0D01*
G01*
X179662500Y-58350000D01*
G75*
G02*
X179737500Y-58425000I0J-75000D01*
G01*
X179737500Y-58575000D01*
G75*
G02*
X179662500Y-58650000I-75000J0D01*
G01*
X178337500Y-58650000D01*
G75*
G02*
X178262500Y-58575000I0J75000D01*
G01*
G37*
G36*
G01*
X178262500Y-58075000D02*
X178262500Y-57925000D01*
G75*
G02*
X178337500Y-57850000I75000J0D01*
G01*
X179662500Y-57850000D01*
G75*
G02*
X179737500Y-57925000I0J-75000D01*
G01*
X179737500Y-58075000D01*
G75*
G02*
X179662500Y-58150000I-75000J0D01*
G01*
X178337500Y-58150000D01*
G75*
G02*
X178262500Y-58075000I0J75000D01*
G01*
G37*
G36*
G01*
X178262500Y-57575000D02*
X178262500Y-57425000D01*
G75*
G02*
X178337500Y-57350000I75000J0D01*
G01*
X179662500Y-57350000D01*
G75*
G02*
X179737500Y-57425000I0J-75000D01*
G01*
X179737500Y-57575000D01*
G75*
G02*
X179662500Y-57650000I-75000J0D01*
G01*
X178337500Y-57650000D01*
G75*
G02*
X178262500Y-57575000I0J75000D01*
G01*
G37*
G36*
G01*
X178262500Y-57075000D02*
X178262500Y-56925000D01*
G75*
G02*
X178337500Y-56850000I75000J0D01*
G01*
X179662500Y-56850000D01*
G75*
G02*
X179737500Y-56925000I0J-75000D01*
G01*
X179737500Y-57075000D01*
G75*
G02*
X179662500Y-57150000I-75000J0D01*
G01*
X178337500Y-57150000D01*
G75*
G02*
X178262500Y-57075000I0J75000D01*
G01*
G37*
G36*
G01*
X178262500Y-56575000D02*
X178262500Y-56425000D01*
G75*
G02*
X178337500Y-56350000I75000J0D01*
G01*
X179662500Y-56350000D01*
G75*
G02*
X179737500Y-56425000I0J-75000D01*
G01*
X179737500Y-56575000D01*
G75*
G02*
X179662500Y-56650000I-75000J0D01*
G01*
X178337500Y-56650000D01*
G75*
G02*
X178262500Y-56575000I0J75000D01*
G01*
G37*
G36*
G01*
X178262500Y-56075000D02*
X178262500Y-55925000D01*
G75*
G02*
X178337500Y-55850000I75000J0D01*
G01*
X179662500Y-55850000D01*
G75*
G02*
X179737500Y-55925000I0J-75000D01*
G01*
X179737500Y-56075000D01*
G75*
G02*
X179662500Y-56150000I-75000J0D01*
G01*
X178337500Y-56150000D01*
G75*
G02*
X178262500Y-56075000I0J75000D01*
G01*
G37*
G36*
G01*
X178262500Y-55575000D02*
X178262500Y-55425000D01*
G75*
G02*
X178337500Y-55350000I75000J0D01*
G01*
X179662500Y-55350000D01*
G75*
G02*
X179737500Y-55425000I0J-75000D01*
G01*
X179737500Y-55575000D01*
G75*
G02*
X179662500Y-55650000I-75000J0D01*
G01*
X178337500Y-55650000D01*
G75*
G02*
X178262500Y-55575000I0J75000D01*
G01*
G37*
G36*
G01*
X178262500Y-55075000D02*
X178262500Y-54925000D01*
G75*
G02*
X178337500Y-54850000I75000J0D01*
G01*
X179662500Y-54850000D01*
G75*
G02*
X179737500Y-54925000I0J-75000D01*
G01*
X179737500Y-55075000D01*
G75*
G02*
X179662500Y-55150000I-75000J0D01*
G01*
X178337500Y-55150000D01*
G75*
G02*
X178262500Y-55075000I0J75000D01*
G01*
G37*
G36*
G01*
X178262500Y-54575000D02*
X178262500Y-54425000D01*
G75*
G02*
X178337500Y-54350000I75000J0D01*
G01*
X179662500Y-54350000D01*
G75*
G02*
X179737500Y-54425000I0J-75000D01*
G01*
X179737500Y-54575000D01*
G75*
G02*
X179662500Y-54650000I-75000J0D01*
G01*
X178337500Y-54650000D01*
G75*
G02*
X178262500Y-54575000I0J75000D01*
G01*
G37*
G36*
G01*
X178262500Y-54075000D02*
X178262500Y-53925000D01*
G75*
G02*
X178337500Y-53850000I75000J0D01*
G01*
X179662500Y-53850000D01*
G75*
G02*
X179737500Y-53925000I0J-75000D01*
G01*
X179737500Y-54075000D01*
G75*
G02*
X179662500Y-54150000I-75000J0D01*
G01*
X178337500Y-54150000D01*
G75*
G02*
X178262500Y-54075000I0J75000D01*
G01*
G37*
G36*
G01*
X178262500Y-53575000D02*
X178262500Y-53425000D01*
G75*
G02*
X178337500Y-53350000I75000J0D01*
G01*
X179662500Y-53350000D01*
G75*
G02*
X179737500Y-53425000I0J-75000D01*
G01*
X179737500Y-53575000D01*
G75*
G02*
X179662500Y-53650000I-75000J0D01*
G01*
X178337500Y-53650000D01*
G75*
G02*
X178262500Y-53575000I0J75000D01*
G01*
G37*
G36*
G01*
X178262500Y-53075000D02*
X178262500Y-52925000D01*
G75*
G02*
X178337500Y-52850000I75000J0D01*
G01*
X179662500Y-52850000D01*
G75*
G02*
X179737500Y-52925000I0J-75000D01*
G01*
X179737500Y-53075000D01*
G75*
G02*
X179662500Y-53150000I-75000J0D01*
G01*
X178337500Y-53150000D01*
G75*
G02*
X178262500Y-53075000I0J75000D01*
G01*
G37*
G36*
G01*
X178262500Y-52575000D02*
X178262500Y-52425000D01*
G75*
G02*
X178337500Y-52350000I75000J0D01*
G01*
X179662500Y-52350000D01*
G75*
G02*
X179737500Y-52425000I0J-75000D01*
G01*
X179737500Y-52575000D01*
G75*
G02*
X179662500Y-52650000I-75000J0D01*
G01*
X178337500Y-52650000D01*
G75*
G02*
X178262500Y-52575000I0J75000D01*
G01*
G37*
G36*
G01*
X178262500Y-52075000D02*
X178262500Y-51925000D01*
G75*
G02*
X178337500Y-51850000I75000J0D01*
G01*
X179662500Y-51850000D01*
G75*
G02*
X179737500Y-51925000I0J-75000D01*
G01*
X179737500Y-52075000D01*
G75*
G02*
X179662500Y-52150000I-75000J0D01*
G01*
X178337500Y-52150000D01*
G75*
G02*
X178262500Y-52075000I0J75000D01*
G01*
G37*
G36*
G01*
X178262500Y-51575000D02*
X178262500Y-51425000D01*
G75*
G02*
X178337500Y-51350000I75000J0D01*
G01*
X179662500Y-51350000D01*
G75*
G02*
X179737500Y-51425000I0J-75000D01*
G01*
X179737500Y-51575000D01*
G75*
G02*
X179662500Y-51650000I-75000J0D01*
G01*
X178337500Y-51650000D01*
G75*
G02*
X178262500Y-51575000I0J75000D01*
G01*
G37*
G36*
G01*
X178262500Y-51075000D02*
X178262500Y-50925000D01*
G75*
G02*
X178337500Y-50850000I75000J0D01*
G01*
X179662500Y-50850000D01*
G75*
G02*
X179737500Y-50925000I0J-75000D01*
G01*
X179737500Y-51075000D01*
G75*
G02*
X179662500Y-51150000I-75000J0D01*
G01*
X178337500Y-51150000D01*
G75*
G02*
X178262500Y-51075000I0J75000D01*
G01*
G37*
G36*
G01*
X178262500Y-50575000D02*
X178262500Y-50425000D01*
G75*
G02*
X178337500Y-50350000I75000J0D01*
G01*
X179662500Y-50350000D01*
G75*
G02*
X179737500Y-50425000I0J-75000D01*
G01*
X179737500Y-50575000D01*
G75*
G02*
X179662500Y-50650000I-75000J0D01*
G01*
X178337500Y-50650000D01*
G75*
G02*
X178262500Y-50575000I0J75000D01*
G01*
G37*
G36*
G01*
X177187500Y-49500000D02*
X177187500Y-48175000D01*
G75*
G02*
X177262500Y-48100000I75000J0D01*
G01*
X177412500Y-48100000D01*
G75*
G02*
X177487500Y-48175000I0J-75000D01*
G01*
X177487500Y-49500000D01*
G75*
G02*
X177412500Y-49575000I-75000J0D01*
G01*
X177262500Y-49575000D01*
G75*
G02*
X177187500Y-49500000I0J75000D01*
G01*
G37*
G36*
G01*
X176687500Y-49500000D02*
X176687500Y-48175000D01*
G75*
G02*
X176762500Y-48100000I75000J0D01*
G01*
X176912500Y-48100000D01*
G75*
G02*
X176987500Y-48175000I0J-75000D01*
G01*
X176987500Y-49500000D01*
G75*
G02*
X176912500Y-49575000I-75000J0D01*
G01*
X176762500Y-49575000D01*
G75*
G02*
X176687500Y-49500000I0J75000D01*
G01*
G37*
G36*
G01*
X176187500Y-49500000D02*
X176187500Y-48175000D01*
G75*
G02*
X176262500Y-48100000I75000J0D01*
G01*
X176412500Y-48100000D01*
G75*
G02*
X176487500Y-48175000I0J-75000D01*
G01*
X176487500Y-49500000D01*
G75*
G02*
X176412500Y-49575000I-75000J0D01*
G01*
X176262500Y-49575000D01*
G75*
G02*
X176187500Y-49500000I0J75000D01*
G01*
G37*
G36*
G01*
X175687500Y-49500000D02*
X175687500Y-48175000D01*
G75*
G02*
X175762500Y-48100000I75000J0D01*
G01*
X175912500Y-48100000D01*
G75*
G02*
X175987500Y-48175000I0J-75000D01*
G01*
X175987500Y-49500000D01*
G75*
G02*
X175912500Y-49575000I-75000J0D01*
G01*
X175762500Y-49575000D01*
G75*
G02*
X175687500Y-49500000I0J75000D01*
G01*
G37*
G36*
G01*
X175187500Y-49500000D02*
X175187500Y-48175000D01*
G75*
G02*
X175262500Y-48100000I75000J0D01*
G01*
X175412500Y-48100000D01*
G75*
G02*
X175487500Y-48175000I0J-75000D01*
G01*
X175487500Y-49500000D01*
G75*
G02*
X175412500Y-49575000I-75000J0D01*
G01*
X175262500Y-49575000D01*
G75*
G02*
X175187500Y-49500000I0J75000D01*
G01*
G37*
G36*
G01*
X174687500Y-49500000D02*
X174687500Y-48175000D01*
G75*
G02*
X174762500Y-48100000I75000J0D01*
G01*
X174912500Y-48100000D01*
G75*
G02*
X174987500Y-48175000I0J-75000D01*
G01*
X174987500Y-49500000D01*
G75*
G02*
X174912500Y-49575000I-75000J0D01*
G01*
X174762500Y-49575000D01*
G75*
G02*
X174687500Y-49500000I0J75000D01*
G01*
G37*
G36*
G01*
X174187500Y-49500000D02*
X174187500Y-48175000D01*
G75*
G02*
X174262500Y-48100000I75000J0D01*
G01*
X174412500Y-48100000D01*
G75*
G02*
X174487500Y-48175000I0J-75000D01*
G01*
X174487500Y-49500000D01*
G75*
G02*
X174412500Y-49575000I-75000J0D01*
G01*
X174262500Y-49575000D01*
G75*
G02*
X174187500Y-49500000I0J75000D01*
G01*
G37*
G36*
G01*
X173687500Y-49500000D02*
X173687500Y-48175000D01*
G75*
G02*
X173762500Y-48100000I75000J0D01*
G01*
X173912500Y-48100000D01*
G75*
G02*
X173987500Y-48175000I0J-75000D01*
G01*
X173987500Y-49500000D01*
G75*
G02*
X173912500Y-49575000I-75000J0D01*
G01*
X173762500Y-49575000D01*
G75*
G02*
X173687500Y-49500000I0J75000D01*
G01*
G37*
G36*
G01*
X173187500Y-49500000D02*
X173187500Y-48175000D01*
G75*
G02*
X173262500Y-48100000I75000J0D01*
G01*
X173412500Y-48100000D01*
G75*
G02*
X173487500Y-48175000I0J-75000D01*
G01*
X173487500Y-49500000D01*
G75*
G02*
X173412500Y-49575000I-75000J0D01*
G01*
X173262500Y-49575000D01*
G75*
G02*
X173187500Y-49500000I0J75000D01*
G01*
G37*
G36*
G01*
X172687500Y-49500000D02*
X172687500Y-48175000D01*
G75*
G02*
X172762500Y-48100000I75000J0D01*
G01*
X172912500Y-48100000D01*
G75*
G02*
X172987500Y-48175000I0J-75000D01*
G01*
X172987500Y-49500000D01*
G75*
G02*
X172912500Y-49575000I-75000J0D01*
G01*
X172762500Y-49575000D01*
G75*
G02*
X172687500Y-49500000I0J75000D01*
G01*
G37*
G36*
G01*
X172187500Y-49500000D02*
X172187500Y-48175000D01*
G75*
G02*
X172262500Y-48100000I75000J0D01*
G01*
X172412500Y-48100000D01*
G75*
G02*
X172487500Y-48175000I0J-75000D01*
G01*
X172487500Y-49500000D01*
G75*
G02*
X172412500Y-49575000I-75000J0D01*
G01*
X172262500Y-49575000D01*
G75*
G02*
X172187500Y-49500000I0J75000D01*
G01*
G37*
G36*
G01*
X171687500Y-49500000D02*
X171687500Y-48175000D01*
G75*
G02*
X171762500Y-48100000I75000J0D01*
G01*
X171912500Y-48100000D01*
G75*
G02*
X171987500Y-48175000I0J-75000D01*
G01*
X171987500Y-49500000D01*
G75*
G02*
X171912500Y-49575000I-75000J0D01*
G01*
X171762500Y-49575000D01*
G75*
G02*
X171687500Y-49500000I0J75000D01*
G01*
G37*
G36*
G01*
X171187500Y-49500000D02*
X171187500Y-48175000D01*
G75*
G02*
X171262500Y-48100000I75000J0D01*
G01*
X171412500Y-48100000D01*
G75*
G02*
X171487500Y-48175000I0J-75000D01*
G01*
X171487500Y-49500000D01*
G75*
G02*
X171412500Y-49575000I-75000J0D01*
G01*
X171262500Y-49575000D01*
G75*
G02*
X171187500Y-49500000I0J75000D01*
G01*
G37*
G36*
G01*
X170687500Y-49500000D02*
X170687500Y-48175000D01*
G75*
G02*
X170762500Y-48100000I75000J0D01*
G01*
X170912500Y-48100000D01*
G75*
G02*
X170987500Y-48175000I0J-75000D01*
G01*
X170987500Y-49500000D01*
G75*
G02*
X170912500Y-49575000I-75000J0D01*
G01*
X170762500Y-49575000D01*
G75*
G02*
X170687500Y-49500000I0J75000D01*
G01*
G37*
G36*
G01*
X170187500Y-49500000D02*
X170187500Y-48175000D01*
G75*
G02*
X170262500Y-48100000I75000J0D01*
G01*
X170412500Y-48100000D01*
G75*
G02*
X170487500Y-48175000I0J-75000D01*
G01*
X170487500Y-49500000D01*
G75*
G02*
X170412500Y-49575000I-75000J0D01*
G01*
X170262500Y-49575000D01*
G75*
G02*
X170187500Y-49500000I0J75000D01*
G01*
G37*
G36*
G01*
X169687500Y-49500000D02*
X169687500Y-48175000D01*
G75*
G02*
X169762500Y-48100000I75000J0D01*
G01*
X169912500Y-48100000D01*
G75*
G02*
X169987500Y-48175000I0J-75000D01*
G01*
X169987500Y-49500000D01*
G75*
G02*
X169912500Y-49575000I-75000J0D01*
G01*
X169762500Y-49575000D01*
G75*
G02*
X169687500Y-49500000I0J75000D01*
G01*
G37*
G36*
G01*
X169187500Y-49500000D02*
X169187500Y-48175000D01*
G75*
G02*
X169262500Y-48100000I75000J0D01*
G01*
X169412500Y-48100000D01*
G75*
G02*
X169487500Y-48175000I0J-75000D01*
G01*
X169487500Y-49500000D01*
G75*
G02*
X169412500Y-49575000I-75000J0D01*
G01*
X169262500Y-49575000D01*
G75*
G02*
X169187500Y-49500000I0J75000D01*
G01*
G37*
G36*
G01*
X168687500Y-49500000D02*
X168687500Y-48175000D01*
G75*
G02*
X168762500Y-48100000I75000J0D01*
G01*
X168912500Y-48100000D01*
G75*
G02*
X168987500Y-48175000I0J-75000D01*
G01*
X168987500Y-49500000D01*
G75*
G02*
X168912500Y-49575000I-75000J0D01*
G01*
X168762500Y-49575000D01*
G75*
G02*
X168687500Y-49500000I0J75000D01*
G01*
G37*
G36*
G01*
X168187500Y-49500000D02*
X168187500Y-48175000D01*
G75*
G02*
X168262500Y-48100000I75000J0D01*
G01*
X168412500Y-48100000D01*
G75*
G02*
X168487500Y-48175000I0J-75000D01*
G01*
X168487500Y-49500000D01*
G75*
G02*
X168412500Y-49575000I-75000J0D01*
G01*
X168262500Y-49575000D01*
G75*
G02*
X168187500Y-49500000I0J75000D01*
G01*
G37*
G36*
G01*
X167687500Y-49500000D02*
X167687500Y-48175000D01*
G75*
G02*
X167762500Y-48100000I75000J0D01*
G01*
X167912500Y-48100000D01*
G75*
G02*
X167987500Y-48175000I0J-75000D01*
G01*
X167987500Y-49500000D01*
G75*
G02*
X167912500Y-49575000I-75000J0D01*
G01*
X167762500Y-49575000D01*
G75*
G02*
X167687500Y-49500000I0J75000D01*
G01*
G37*
G36*
G01*
X167187500Y-49500000D02*
X167187500Y-48175000D01*
G75*
G02*
X167262500Y-48100000I75000J0D01*
G01*
X167412500Y-48100000D01*
G75*
G02*
X167487500Y-48175000I0J-75000D01*
G01*
X167487500Y-49500000D01*
G75*
G02*
X167412500Y-49575000I-75000J0D01*
G01*
X167262500Y-49575000D01*
G75*
G02*
X167187500Y-49500000I0J75000D01*
G01*
G37*
G36*
G01*
X166687500Y-49500000D02*
X166687500Y-48175000D01*
G75*
G02*
X166762500Y-48100000I75000J0D01*
G01*
X166912500Y-48100000D01*
G75*
G02*
X166987500Y-48175000I0J-75000D01*
G01*
X166987500Y-49500000D01*
G75*
G02*
X166912500Y-49575000I-75000J0D01*
G01*
X166762500Y-49575000D01*
G75*
G02*
X166687500Y-49500000I0J75000D01*
G01*
G37*
G36*
G01*
X166187500Y-49500000D02*
X166187500Y-48175000D01*
G75*
G02*
X166262500Y-48100000I75000J0D01*
G01*
X166412500Y-48100000D01*
G75*
G02*
X166487500Y-48175000I0J-75000D01*
G01*
X166487500Y-49500000D01*
G75*
G02*
X166412500Y-49575000I-75000J0D01*
G01*
X166262500Y-49575000D01*
G75*
G02*
X166187500Y-49500000I0J75000D01*
G01*
G37*
G36*
G01*
X165687500Y-49500000D02*
X165687500Y-48175000D01*
G75*
G02*
X165762500Y-48100000I75000J0D01*
G01*
X165912500Y-48100000D01*
G75*
G02*
X165987500Y-48175000I0J-75000D01*
G01*
X165987500Y-49500000D01*
G75*
G02*
X165912500Y-49575000I-75000J0D01*
G01*
X165762500Y-49575000D01*
G75*
G02*
X165687500Y-49500000I0J75000D01*
G01*
G37*
G36*
G01*
X165187500Y-49500000D02*
X165187500Y-48175000D01*
G75*
G02*
X165262500Y-48100000I75000J0D01*
G01*
X165412500Y-48100000D01*
G75*
G02*
X165487500Y-48175000I0J-75000D01*
G01*
X165487500Y-49500000D01*
G75*
G02*
X165412500Y-49575000I-75000J0D01*
G01*
X165262500Y-49575000D01*
G75*
G02*
X165187500Y-49500000I0J75000D01*
G01*
G37*
G36*
G01*
X204162500Y-67450000D02*
X204162500Y-66550000D01*
G75*
G02*
X204412500Y-66300000I250000J0D01*
G01*
X204937500Y-66300000D01*
G75*
G02*
X205187500Y-66550000I0J-250000D01*
G01*
X205187500Y-67450000D01*
G75*
G02*
X204937500Y-67700000I-250000J0D01*
G01*
X204412500Y-67700000D01*
G75*
G02*
X204162500Y-67450000I0J250000D01*
G01*
G37*
G36*
G01*
X205987500Y-67450000D02*
X205987500Y-66550000D01*
G75*
G02*
X206237500Y-66300000I250000J0D01*
G01*
X206762500Y-66300000D01*
G75*
G02*
X207012500Y-66550000I0J-250000D01*
G01*
X207012500Y-67450000D01*
G75*
G02*
X206762500Y-67700000I-250000J0D01*
G01*
X206237500Y-67700000D01*
G75*
G02*
X205987500Y-67450000I0J250000D01*
G01*
G37*
G36*
G01*
X150500000Y-93525000D02*
X150500000Y-94475000D01*
G75*
G02*
X150250000Y-94725000I-250000J0D01*
G01*
X149750000Y-94725000D01*
G75*
G02*
X149500000Y-94475000I0J250000D01*
G01*
X149500000Y-93525000D01*
G75*
G02*
X149750000Y-93275000I250000J0D01*
G01*
X150250000Y-93275000D01*
G75*
G02*
X150500000Y-93525000I0J-250000D01*
G01*
G37*
G36*
G01*
X148600000Y-93525000D02*
X148600000Y-94475000D01*
G75*
G02*
X148350000Y-94725000I-250000J0D01*
G01*
X147850000Y-94725000D01*
G75*
G02*
X147600000Y-94475000I0J250000D01*
G01*
X147600000Y-93525000D01*
G75*
G02*
X147850000Y-93275000I250000J0D01*
G01*
X148350000Y-93275000D01*
G75*
G02*
X148600000Y-93525000I0J-250000D01*
G01*
G37*
M02*
