%TF.GenerationSoftware,KiCad,Pcbnew,10.0.4*%
%TF.CreationDate,2026-06-26T13:37:29+02:00*%
%TF.ProjectId,puppet_pcb,70757070-6574-45f7-9063-622e6b696361,rev?*%
%TF.SameCoordinates,Original*%
%TF.FileFunction,Copper,L2,Bot*%
%TF.FilePolarity,Positive*%
%FSLAX46Y46*%
G04 Gerber Fmt 4.6, Leading zero omitted, Abs format (unit mm)*
G04 Created by KiCad (PCBNEW 10.0.4) date 2026-06-26 13:37:29*
%MOMM*%
%LPD*%
G01*
G04 APERTURE LIST*
%TA.AperFunction,ComponentPad*%
%ADD10C,1.270000*%
%TD*%
%TA.AperFunction,ComponentPad*%
%ADD11C,1.700000*%
%TD*%
%TA.AperFunction,ComponentPad*%
%ADD12C,2.800000*%
%TD*%
%TA.AperFunction,ComponentPad*%
%ADD13C,1.665000*%
%TD*%
%TA.AperFunction,ViaPad*%
%ADD14C,0.900000*%
%TD*%
%TA.AperFunction,Conductor*%
%ADD15C,0.200000*%
%TD*%
G04 APERTURE END LIST*
D10*
X149500000Y-89500000D03*
X144500000Y-89500000D03*
%TA.AperFunction,ComponentPad*%
G36*
G01*
X209610000Y-77340000D02*
X209610000Y-76140000D01*
G75*
G02*
X209860000Y-75890000I250000J0D01*
G01*
X211060000Y-75890000D01*
G75*
G02*
X211310000Y-76140000I0J-250000D01*
G01*
X211310000Y-77340000D01*
G75*
G02*
X211060000Y-77590000I-250000J0D01*
G01*
X209860000Y-77590000D01*
G75*
G02*
X209610000Y-77340000I0J250000D01*
G01*
G37*
%TD.AperFunction*%
D11*
X213000000Y-76740000D03*
X210460000Y-79280000D03*
X213000000Y-79280000D03*
X210460000Y-81820000D03*
X213000000Y-81820000D03*
X210460000Y-84360000D03*
X213000000Y-84360000D03*
X210460000Y-86900000D03*
X213000000Y-86900000D03*
X210460000Y-89440000D03*
X213000000Y-89440000D03*
X210460000Y-91980000D03*
X213000000Y-91980000D03*
X210460000Y-94520000D03*
X213000000Y-94520000D03*
X210460000Y-97060000D03*
X213000000Y-97060000D03*
X210460000Y-99600000D03*
X213000000Y-99600000D03*
X210460000Y-102140000D03*
X213000000Y-102140000D03*
X210460000Y-104680000D03*
X213000000Y-104680000D03*
X210460000Y-107220000D03*
X213000000Y-107220000D03*
X210460000Y-109760000D03*
X213000000Y-109760000D03*
X210460000Y-112300000D03*
X213000000Y-112300000D03*
X210460000Y-114840000D03*
X213000000Y-114840000D03*
X210460000Y-117380000D03*
X213000000Y-117380000D03*
X210460000Y-119920000D03*
X213000000Y-119920000D03*
X210460000Y-122460000D03*
X213000000Y-122460000D03*
X210460000Y-125000000D03*
X213000000Y-125000000D03*
D10*
X126100000Y-106520000D03*
X123560000Y-106520000D03*
X121020000Y-106520000D03*
X118480000Y-106520000D03*
X115940000Y-106520000D03*
X113400000Y-106520000D03*
X110860000Y-106520000D03*
X103520000Y-129380000D03*
X106060000Y-129380000D03*
X108600000Y-129380000D03*
X111140000Y-129380000D03*
X113680000Y-129380000D03*
X116220000Y-129380000D03*
X118760000Y-129380000D03*
X121300000Y-129380000D03*
X123840000Y-129380000D03*
X126380000Y-129380000D03*
X128920000Y-129380000D03*
X131460000Y-129380000D03*
X208920000Y-60000000D03*
X211460000Y-60000000D03*
X214000000Y-60000000D03*
X208920000Y-44770000D03*
X211460000Y-44770000D03*
X214034000Y-44770000D03*
%TA.AperFunction,ComponentPad*%
G36*
G01*
X106600000Y-49149999D02*
X106600000Y-46850001D01*
G75*
G02*
X106850001Y-46600000I250001J0D01*
G01*
X109149999Y-46600000D01*
G75*
G02*
X109400000Y-46850001I0J-250001D01*
G01*
X109400000Y-49149999D01*
G75*
G02*
X109149999Y-49400000I-250001J0D01*
G01*
X106850001Y-49400000D01*
G75*
G02*
X106600000Y-49149999I0J250001D01*
G01*
G37*
%TD.AperFunction*%
D12*
X113000000Y-48000000D03*
D10*
X192306000Y-60000000D03*
X194846000Y-60000000D03*
X197386000Y-60000000D03*
X192306000Y-44770000D03*
X194846000Y-44770000D03*
X197420000Y-44770000D03*
%TA.AperFunction,ComponentPad*%
G36*
G01*
X96399999Y-103150000D02*
X94100001Y-103150000D01*
G75*
G02*
X93850000Y-102899999I0J250001D01*
G01*
X93850000Y-100600001D01*
G75*
G02*
X94100001Y-100350000I250001J0D01*
G01*
X96399999Y-100350000D01*
G75*
G02*
X96650000Y-100600001I0J-250001D01*
G01*
X96650000Y-102899999D01*
G75*
G02*
X96399999Y-103150000I-250001J0D01*
G01*
G37*
%TD.AperFunction*%
D12*
X95250000Y-96750000D03*
%TA.AperFunction,ComponentPad*%
G36*
G01*
X96367499Y-116150000D02*
X94067501Y-116150000D01*
G75*
G02*
X93817500Y-115899999I0J250001D01*
G01*
X93817500Y-113600001D01*
G75*
G02*
X94067501Y-113350000I250001J0D01*
G01*
X96367499Y-113350000D01*
G75*
G02*
X96617500Y-113600001I0J-250001D01*
G01*
X96617500Y-115899999D01*
G75*
G02*
X96367499Y-116150000I-250001J0D01*
G01*
G37*
%TD.AperFunction*%
X95217500Y-109750000D03*
D10*
X150000000Y-62500000D03*
X145000000Y-62500000D03*
%TA.AperFunction,ComponentPad*%
G36*
G01*
X96367499Y-90150000D02*
X94067501Y-90150000D01*
G75*
G02*
X93817500Y-89899999I0J250001D01*
G01*
X93817500Y-87600001D01*
G75*
G02*
X94067501Y-87350000I250001J0D01*
G01*
X96367499Y-87350000D01*
G75*
G02*
X96617500Y-87600001I0J-250001D01*
G01*
X96617500Y-89899999D01*
G75*
G02*
X96367499Y-90150000I-250001J0D01*
G01*
G37*
%TD.AperFunction*%
D12*
X95217500Y-83750000D03*
%TA.AperFunction,ComponentPad*%
G36*
G01*
X96649999Y-58400000D02*
X94350001Y-58400000D01*
G75*
G02*
X94100000Y-58149999I0J250001D01*
G01*
X94100000Y-55850001D01*
G75*
G02*
X94350001Y-55600000I250001J0D01*
G01*
X96649999Y-55600000D01*
G75*
G02*
X96900000Y-55850001I0J-250001D01*
G01*
X96900000Y-58149999D01*
G75*
G02*
X96649999Y-58400000I-250001J0D01*
G01*
G37*
%TD.AperFunction*%
X95500000Y-52000000D03*
%TA.AperFunction,ComponentPad*%
G36*
G01*
X96649999Y-73400000D02*
X94350001Y-73400000D01*
G75*
G02*
X94100000Y-73149999I0J250001D01*
G01*
X94100000Y-70850001D01*
G75*
G02*
X94350001Y-70600000I250001J0D01*
G01*
X96649999Y-70600000D01*
G75*
G02*
X96900000Y-70850001I0J-250001D01*
G01*
X96900000Y-73149999D01*
G75*
G02*
X96649999Y-73400000I-250001J0D01*
G01*
G37*
%TD.AperFunction*%
X95500000Y-67000000D03*
D10*
X109010000Y-102750000D03*
X111550000Y-102750000D03*
X114090000Y-102750000D03*
X116630000Y-102750000D03*
X119170000Y-102750000D03*
X121710000Y-102750000D03*
X124250000Y-102750000D03*
X131590000Y-79890000D03*
X129050000Y-79890000D03*
X126510000Y-79890000D03*
X123970000Y-79890000D03*
X121430000Y-79890000D03*
X118890000Y-79890000D03*
X116350000Y-79890000D03*
X113810000Y-79890000D03*
X111270000Y-79890000D03*
X108730000Y-79890000D03*
X106190000Y-79890000D03*
X103650000Y-79890000D03*
X174000000Y-68500000D03*
X169000000Y-68500000D03*
D13*
X146020000Y-126740000D03*
X148560000Y-126740000D03*
X151100000Y-126740000D03*
X153640000Y-126740000D03*
X156180000Y-126740000D03*
X158720000Y-126740000D03*
X161260000Y-126740000D03*
X163800000Y-126740000D03*
X166340000Y-126740000D03*
X168880000Y-126740000D03*
X171420000Y-126740000D03*
X173960000Y-126740000D03*
X173960000Y-111500000D03*
X171420000Y-111500000D03*
X168880000Y-111500000D03*
X166340000Y-111500000D03*
X163800000Y-111500000D03*
X161260000Y-111500000D03*
X158720000Y-111500000D03*
X156180000Y-111500000D03*
X153640000Y-111500000D03*
X151100000Y-111500000D03*
X148560000Y-111500000D03*
X179040000Y-126740000D03*
X181580000Y-126740000D03*
X184120000Y-126740000D03*
X186660000Y-126740000D03*
X189200000Y-126740000D03*
X191740000Y-126740000D03*
X194280000Y-126740000D03*
X196820000Y-126740000D03*
X199360000Y-126740000D03*
X199360000Y-111500000D03*
X196820000Y-111500000D03*
X194280000Y-111500000D03*
X191740000Y-111500000D03*
X189200000Y-111500000D03*
X186660000Y-111500000D03*
X184120000Y-111500000D03*
X181580000Y-111500000D03*
X179040000Y-111500000D03*
X176500000Y-126740000D03*
X186660000Y-124200000D03*
X186660000Y-121660000D03*
X186660000Y-119120000D03*
X186660000Y-116580000D03*
X186660000Y-114040000D03*
X157450000Y-123690000D03*
X154910000Y-123690000D03*
X152370000Y-123690000D03*
X149830000Y-123690000D03*
X147290000Y-123690000D03*
X146020000Y-111500000D03*
X140940000Y-111500000D03*
X143480000Y-126740000D03*
X143480000Y-114040000D03*
X176500000Y-111500000D03*
X143480000Y-111500000D03*
X140940000Y-126740000D03*
D10*
X174000000Y-101000000D03*
X169000000Y-101000000D03*
%TA.AperFunction,ComponentPad*%
G36*
G01*
X96367499Y-129150000D02*
X94067501Y-129150000D01*
G75*
G02*
X93817500Y-128899999I0J250001D01*
G01*
X93817500Y-126600001D01*
G75*
G02*
X94067501Y-126350000I250001J0D01*
G01*
X96367499Y-126350000D01*
G75*
G02*
X96617500Y-126600001I0J-250001D01*
G01*
X96617500Y-128899999D01*
G75*
G02*
X96367499Y-129150000I-250001J0D01*
G01*
G37*
%TD.AperFunction*%
D12*
X95217500Y-122750000D03*
D14*
X163000000Y-79000000D03*
X164500000Y-67000000D03*
X134500000Y-68000000D03*
X115500000Y-54500000D03*
X169000000Y-52000000D03*
X163500000Y-46500000D03*
X140000000Y-48000000D03*
X139500000Y-51500000D03*
X167000000Y-89500000D03*
X168000000Y-84000000D03*
X166000000Y-91500000D03*
X155500000Y-76842300D03*
X171348900Y-92500000D03*
X166839400Y-93500000D03*
X160500000Y-79000000D03*
X167451950Y-58451950D03*
X181000000Y-48886100D03*
X129500000Y-68000000D03*
X129000000Y-55500000D03*
X210000000Y-67221900D03*
X182000000Y-52500000D03*
X187500000Y-100000000D03*
X174086700Y-93825000D03*
X134500000Y-54053700D03*
X185693850Y-58693850D03*
X167500000Y-109000000D03*
X170500000Y-95000000D03*
X181500000Y-70000000D03*
X165764800Y-62000000D03*
X165764800Y-53645500D03*
X140113100Y-66358500D03*
X137500000Y-70000000D03*
X189417200Y-57000000D03*
X141000000Y-58000000D03*
X138454100Y-53028600D03*
X135500000Y-67000000D03*
D15*
X182795900Y-68704100D02*
X182795900Y-61591800D01*
X182795900Y-61591800D02*
X185693850Y-58693850D01*
X181500000Y-70000000D02*
X182795900Y-68704100D01*
X135826800Y-66673200D02*
X135500000Y-67000000D01*
X135826800Y-65905300D02*
X135826800Y-66673200D01*
X141100000Y-60632100D02*
X135826800Y-65905300D01*
X141100000Y-58100000D02*
X141100000Y-60632100D01*
X141000000Y-58000000D02*
X141100000Y-58100000D01*
X138454100Y-54496200D02*
X138454100Y-53028600D01*
X141000000Y-58000000D02*
X141000000Y-57042100D01*
X141000000Y-57042100D02*
X138454100Y-54496200D01*
X184851000Y-124931000D02*
X186660000Y-126740000D01*
X180700200Y-124931000D02*
X184851000Y-124931000D01*
X167745800Y-111289100D02*
X167745800Y-111976600D01*
X167745800Y-111976600D02*
X180700200Y-124931000D01*
X135395500Y-78938800D02*
X167745800Y-111289100D01*
X122381200Y-78938800D02*
X135395500Y-78938800D01*
X121430000Y-79890000D02*
X122381200Y-78938800D01*
X166611800Y-97354900D02*
X168180900Y-95785800D01*
X166611800Y-108111800D02*
X166611800Y-97354900D01*
X167500000Y-109000000D02*
X166611800Y-108111800D01*
X183690200Y-93825000D02*
X174086700Y-93825000D01*
X187500000Y-97634800D02*
X183690200Y-93825000D01*
X187500000Y-100000000D02*
X187500000Y-97634800D01*
X197386000Y-92288400D02*
X197386000Y-60000000D01*
X187500000Y-100000000D02*
X189674400Y-100000000D01*
X189674400Y-100000000D02*
X197386000Y-92288400D01*
X211730000Y-121190000D02*
X210460000Y-122460000D01*
X211730000Y-119535600D02*
X211730000Y-121190000D01*
X212615600Y-118650000D02*
X211730000Y-119535600D01*
X214959900Y-117073000D02*
X213382900Y-118650000D01*
X213382900Y-118650000D02*
X212615600Y-118650000D01*
X210000000Y-67221900D02*
X210000000Y-69128500D01*
X210000000Y-69128500D02*
X214959900Y-74088400D01*
X214959900Y-74088400D02*
X214959900Y-117073000D01*
X177017800Y-48886100D02*
X167451950Y-58451950D01*
X181000000Y-48886100D02*
X177017800Y-48886100D01*
X186531400Y-50544600D02*
X192306000Y-44770000D01*
X185693850Y-58693850D02*
X186531400Y-57856300D01*
X186531400Y-57856300D02*
X186531400Y-50544600D01*
X168780000Y-65420600D02*
X166079400Y-65420600D01*
X182000000Y-52500000D02*
X181700600Y-52500000D01*
X181700600Y-52500000D02*
X168780000Y-65420600D01*
X166079400Y-65420600D02*
X164500000Y-67000000D01*
X168966700Y-95000000D02*
X170500000Y-95000000D01*
X168180900Y-95785800D02*
X168966700Y-95000000D01*
X154532000Y-77810300D02*
X155500000Y-76842300D01*
X165119600Y-90869600D02*
X154532000Y-80282000D01*
X154532000Y-80282000D02*
X154532000Y-77810300D01*
X165369600Y-90869600D02*
X165119600Y-90869600D01*
X166000000Y-91500000D02*
X165369600Y-90869600D01*
X193857300Y-43781300D02*
X194846000Y-44770000D01*
X191888900Y-43781300D02*
X193857300Y-43781300D01*
X162990200Y-72680000D02*
X191888900Y-43781300D01*
X161816300Y-73856000D02*
X162990200Y-72682100D01*
X163000000Y-79000000D02*
X161816300Y-77816300D01*
X161816300Y-77816300D02*
X161816300Y-73856000D01*
X162990200Y-72682100D02*
X162990200Y-72680000D01*
X165345950Y-78154050D02*
X167000000Y-78154050D01*
X161687050Y-81187050D02*
X162312950Y-81187050D01*
X160500000Y-80000000D02*
X161687050Y-81187050D01*
X162312950Y-81187050D02*
X165345950Y-78154050D01*
X160500000Y-79000000D02*
X160500000Y-80000000D01*
X119053700Y-54053700D02*
X113000000Y-48000000D01*
X134500000Y-54053700D02*
X119053700Y-54053700D01*
X134500000Y-67250000D02*
X134500000Y-68000000D01*
X133683400Y-54870300D02*
X133683400Y-66433400D01*
X134500000Y-54053700D02*
X133683400Y-54870300D01*
X133683400Y-66433400D02*
X134500000Y-67250000D01*
X140113100Y-67322400D02*
X140113100Y-66358500D01*
X137500000Y-70000000D02*
X137500000Y-69935500D01*
X137500000Y-69935500D02*
X140113100Y-67322400D01*
X129993300Y-55500000D02*
X129000000Y-55500000D01*
X130720900Y-56227600D02*
X129993300Y-55500000D01*
X129500000Y-68000000D02*
X130720900Y-66779100D01*
X130720900Y-66779100D02*
X130720900Y-56227600D01*
X111216700Y-108703300D02*
X113400000Y-106520000D01*
X92500000Y-122500000D02*
X106296700Y-108703300D01*
X106296700Y-108703300D02*
X111216700Y-108703300D01*
X92500000Y-125032500D02*
X92500000Y-122500000D01*
X95217500Y-127750000D02*
X92500000Y-125032500D01*
X128000000Y-54500000D02*
X129000000Y-55500000D01*
X115500000Y-54500000D02*
X128000000Y-54500000D01*
X165764800Y-62000000D02*
X165764800Y-53645500D01*
X166218300Y-93823300D02*
X168180900Y-95785800D01*
X166218300Y-93000000D02*
X166218300Y-93823300D01*
X169500000Y-89718300D02*
X166218300Y-93000000D01*
X169500000Y-79000000D02*
X169500000Y-89718300D01*
X165500000Y-79000000D02*
X169500000Y-79000000D01*
X162912950Y-81587050D02*
X165500000Y-79000000D01*
X159715000Y-79889100D02*
X161412950Y-81587050D01*
X159694171Y-79889100D02*
X159715000Y-79889100D01*
X159342700Y-79537629D02*
X159694171Y-79889100D01*
X159340900Y-68734900D02*
X159340900Y-79515000D01*
X165764800Y-62311000D02*
X159340900Y-68734900D01*
X165764800Y-62000000D02*
X165764800Y-62311000D01*
X159340900Y-79515000D02*
X159342700Y-79516800D01*
X161412950Y-81587050D02*
X162912950Y-81587050D01*
X159342700Y-79516800D02*
X159342700Y-79537629D01*
X169500000Y-51500000D02*
X169000000Y-52000000D01*
X167000000Y-46500000D02*
X169500000Y-49000000D01*
X163500000Y-46500000D02*
X167000000Y-46500000D01*
X169500000Y-49000000D02*
X169500000Y-51500000D01*
X139500000Y-48500000D02*
X140000000Y-48000000D01*
X139500000Y-51500000D02*
X139500000Y-48500000D01*
X168000000Y-88500000D02*
X167000000Y-89500000D01*
X168000000Y-84000000D02*
X168000000Y-88500000D01*
X170000000Y-78154050D02*
X170000000Y-90339400D01*
X170000000Y-90339400D02*
X166839400Y-93500000D01*
X167000000Y-78154050D02*
X170000000Y-78154050D01*
X192306000Y-60502100D02*
X174654050Y-78154050D01*
X174654050Y-78154050D02*
X167000000Y-78154050D01*
X192306000Y-60000000D02*
X192306000Y-60502100D01*
X167815500Y-115515500D02*
X179040000Y-126740000D01*
X150967500Y-115515500D02*
X167815500Y-115515500D01*
X147290100Y-111838100D02*
X150967500Y-115515500D01*
X147290100Y-111163300D02*
X147290100Y-111838100D01*
X146492600Y-110365800D02*
X147290100Y-111163300D01*
X141745800Y-110365800D02*
X146492600Y-110365800D01*
X111270000Y-79890000D02*
X141745800Y-110365800D01*
X114790500Y-78909500D02*
X113810000Y-79890000D01*
X119269900Y-78909500D02*
X114790500Y-78909500D01*
X120160100Y-79799700D02*
X119269900Y-78909500D01*
X120160100Y-81129700D02*
X120160100Y-79799700D01*
X149694200Y-110663800D02*
X120160100Y-81129700D01*
X149694200Y-111726100D02*
X149694200Y-110663800D01*
X151077100Y-113109000D02*
X149694200Y-111726100D01*
X167949000Y-113109000D02*
X151077100Y-113109000D01*
X181580000Y-126740000D02*
X167949000Y-113109000D01*
X116950000Y-79890000D02*
X116350000Y-79890000D01*
X148560000Y-111500000D02*
X116950000Y-79890000D01*
X123970000Y-84370000D02*
X123970000Y-79890000D01*
X151100000Y-111500000D02*
X123970000Y-84370000D01*
X115683200Y-103696800D02*
X116630000Y-102750000D01*
X108581300Y-103696800D02*
X115683200Y-103696800D01*
X107497700Y-102613200D02*
X108581300Y-103696800D01*
X107497700Y-96030200D02*
X107497700Y-102613200D01*
X95217500Y-83750000D02*
X107497700Y-96030200D01*
X194846000Y-69002900D02*
X171348900Y-92500000D01*
X194846000Y-60000000D02*
X194846000Y-69002900D01*
X99710000Y-122750000D02*
X115940000Y-106520000D01*
X95217500Y-122750000D02*
X99710000Y-122750000D01*
X109010000Y-92884100D02*
X109010000Y-102750000D01*
X95500000Y-79374100D02*
X109010000Y-92884100D01*
X95500000Y-72000000D02*
X95500000Y-79374100D01*
X182719600Y-112639600D02*
X181580000Y-111500000D01*
X189692900Y-112639600D02*
X182719600Y-112639600D01*
X190605800Y-111726700D02*
X189692900Y-112639600D01*
X190605800Y-111029300D02*
X190605800Y-111726700D01*
X198225100Y-103410000D02*
X190605800Y-111029300D01*
X211730000Y-103410000D02*
X198225100Y-103410000D01*
X213000000Y-102140000D02*
X211730000Y-103410000D01*
X197196400Y-93343600D02*
X179040000Y-111500000D01*
X213500900Y-93343600D02*
X197196400Y-93343600D01*
X214156500Y-93999200D02*
X213500900Y-93343600D01*
X214156500Y-95903500D02*
X214156500Y-93999200D01*
X213000000Y-97060000D02*
X214156500Y-95903500D01*
X211730000Y-95790000D02*
X213000000Y-94520000D01*
X199830000Y-95790000D02*
X211730000Y-95790000D01*
X184120000Y-111500000D02*
X199830000Y-95790000D01*
X123560000Y-109360000D02*
X123560000Y-106520000D01*
X140940000Y-126740000D02*
X123560000Y-109360000D01*
X93753300Y-53746700D02*
X95500000Y-52000000D01*
X93753300Y-65253300D02*
X93753300Y-53746700D01*
X95500000Y-67000000D02*
X93753300Y-65253300D01*
X121890200Y-104850200D02*
X123560000Y-106520000D01*
X119846500Y-104850200D02*
X121890200Y-104850200D01*
X117900000Y-102903700D02*
X119846500Y-104850200D01*
X117900000Y-102643200D02*
X117900000Y-102903700D01*
X117064100Y-101807300D02*
X117900000Y-102643200D01*
X112388900Y-101807300D02*
X117064100Y-101807300D01*
X112388900Y-101911100D02*
X112388900Y-101807300D01*
X111550000Y-102750000D02*
X112388900Y-101911100D01*
X98798800Y-70298800D02*
X95500000Y-67000000D01*
X98798800Y-77870500D02*
X98798800Y-70298800D01*
X112388900Y-91460600D02*
X98798800Y-77870500D01*
X112388900Y-101807300D02*
X112388900Y-91460600D01*
X214558200Y-83378200D02*
X213000000Y-81820000D01*
X214558200Y-98041800D02*
X214558200Y-83378200D01*
X213000000Y-99600000D02*
X214558200Y-98041800D01*
X214157300Y-100757300D02*
X213000000Y-99600000D01*
X214157300Y-115318600D02*
X214157300Y-100757300D01*
X213365900Y-116110000D02*
X214157300Y-115318600D01*
X212581600Y-116110000D02*
X213365900Y-116110000D01*
X211730000Y-116961600D02*
X212581600Y-116110000D01*
X211730000Y-117798400D02*
X211730000Y-116961600D01*
X210878400Y-118650000D02*
X211730000Y-117798400D01*
X210077000Y-118650000D02*
X210878400Y-118650000D01*
X209279100Y-119447900D02*
X210077000Y-118650000D01*
X209279100Y-123819100D02*
X209279100Y-119447900D01*
X210460000Y-125000000D02*
X209279100Y-123819100D01*
X189417200Y-52772800D02*
X189417200Y-57000000D01*
X197420000Y-44770000D02*
X189417200Y-52772800D01*
X211730000Y-80550000D02*
X213000000Y-81820000D01*
X211730000Y-75908800D02*
X211730000Y-80550000D01*
X207468800Y-71647600D02*
X211730000Y-75908800D01*
X207468800Y-51335200D02*
X207468800Y-71647600D01*
X214034000Y-44770000D02*
X207468800Y-51335200D01*
M02*
